<svg width="155" height="156" viewBox="0 0 155 156" fill="none" xmlns="http://www.w3.org/2000/svg">
<path d="M28.3172 61.2667C29.5473 62.1261 30.9481 62.7107 32.4243 62.9805C31.3898 69.6275 30.6873 72.6306 31.6523 73.9585C32.6173 75.2863 33.3198 76.344 36.0836 76.6373C38.8474 76.9307 46.5134 77.3399 50.2576 76.6373C54.0019 75.9348 57.1285 75.0624 58.1476 73.6728C59.1666 72.2832 57.9005 65.3429 56.5572 63.1581C58.0565 62.6859 59.4752 61.9882 60.7647 61.0891C63.7112 65.444 65.6085 70.4224 66.3077 75.6337C67.0408 81.6328 67.1598 87.6909 66.6628 93.7141C66.6628 93.8608 66.7091 98.3462 66.8326 102.291C66.8773 103.823 66.3995 105.325 65.4778 106.55C64.5561 107.775 63.2452 108.65 61.7605 109.031C59.1589 109.71 56.8737 110.505 56.8737 110.505L52.2417 111.54C51.7968 111.638 51.3364 111.642 50.8897 111.552C50.4431 111.463 50.02 111.281 49.6475 111.019C49.2749 110.757 48.961 110.42 48.7258 110.03C48.4906 109.64 48.3392 109.205 48.2813 108.753C47.9648 106.344 47.3395 103.565 46.1274 103.349C44.7301 103.117 44.0198 106.753 43.1783 107.981C42.7681 108.632 42.3969 109.308 42.0666 110.003C41.841 110.463 41.5263 110.873 41.1407 111.21C40.7552 111.546 40.3065 111.803 39.8209 111.964C39.3352 112.126 38.8223 112.19 38.3119 112.151C37.8015 112.113 37.3038 111.973 36.8479 111.741C31.5365 109.062 30.9266 109.332 27.0511 108.652C26.1505 108.49 25.337 108.012 24.7558 107.305C24.1746 106.598 23.8636 105.708 23.8781 104.792C23.9245 102.16 23.9553 98.6781 23.7932 97.2963C23.5307 94.9339 22.8977 83.0682 22.9286 78.8453C22.9595 74.6224 24.5498 66.5704 28.3172 61.2667Z" fill="#615FFF"/>
<path d="M24.9207 31.143C25.353 27.2289 27.9161 21.3694 34.9027 17.0925C34.8564 15.2396 35.8292 14.3287 38.9944 13.3714C41.9126 12.4836 48.4592 12.1053 51.8406 13.0471C55.3995 14.1897 61.6451 19.3622 59.4835 30.0854C61.3054 31.915 62.1314 31.915 61.3517 33.1039C60.572 34.2928 58.5725 36.8095 47.1082 37.8826C42.5919 38.3072 37.7592 35.4199 37.7592 35.4199C37.7592 35.4199 30.9887 35.2501 26.6886 34.6479C25.1832 34.4704 24.7509 32.6484 24.9207 31.143Z" fill="#615FFF"/>
<path d="M89.4292 108.869C88.4178 109.131 88.966 109.934 89.4292 111.524C89.4988 111.771 89.6636 111.98 89.8873 112.105C90.1109 112.231 90.3752 112.262 90.6219 112.192C90.8687 112.123 91.0776 111.958 91.2029 111.734C91.3281 111.51 91.3593 111.246 91.2897 110.999C90.8574 109.587 90.7802 108.521 89.4292 108.869Z" fill="#001434"/>
<path d="M58.7958 49.3626C58.155 49.27 57.9003 49.6869 57.3985 49.7332C54.928 49.9571 51.7783 48.5057 49.5086 48.4208C50.7052 47.0389 51.9249 45.3791 48.7829 42.044C48.6921 41.945 48.5819 41.8659 48.459 41.8116C48.3362 41.7573 48.2034 41.729 48.0691 41.7285C47.9348 41.7281 47.8019 41.7554 47.6787 41.8089C47.5555 41.8623 47.4447 41.9407 47.3532 42.0391C47.2618 42.1374 47.1917 42.2537 47.1474 42.3805C47.1032 42.5073 47.0856 42.6418 47.0959 42.7758C47.1062 42.9097 47.1441 43.04 47.2072 43.1585C47.2704 43.2771 47.3574 43.3812 47.4627 43.4645C49.9254 45.1706 48.42 48.4903 45.4478 47.5484C45.2804 47.4842 45.0984 47.4678 44.9223 47.5012C44.7461 47.5346 44.5827 47.6164 44.4505 47.7374C44.3182 47.8585 44.2222 48.014 44.1734 48.1865C44.1246 48.359 44.1248 48.5417 44.174 48.7142C42.2054 49.3395 40.2522 50.3431 38.3222 50.5438C37.5502 50.621 36.7782 50.1964 36.0061 50.3276C34.8018 50.5129 34.8404 52.4893 36.0756 53.6704C38.5538 56.0482 44.7144 57.9165 47.4087 54.4424C51.0062 57.8007 56.8272 54.8207 58.9888 52.1959C60.17 50.8758 59.8457 49.5325 58.7958 49.3626Z" fill="#001434"/>
<path d="M102.036 132.253C101.673 131.272 100.392 131.998 100.701 133.141C101.087 134.53 102.028 136.483 102.777 138.545C103.424 140.253 103.94 142.008 104.321 143.794C104.321 144.258 103.055 144.528 102.059 144.682C101.218 144.813 100.608 144.528 100.415 143.98C98.9235 140.403 97.6978 136.72 96.7479 132.963C96.4854 131.929 94.3624 131.419 94.787 133.133C95.2116 134.847 96.138 136.63 97.6126 141.308C98.6857 144.744 99.2415 146.272 100.701 146.172C102.723 146.041 107.016 146.944 105.919 143.323C104.83 139.564 103.534 135.868 102.036 132.253Z" fill="#001434"/>
<path d="M95.7903 111.787C96.9174 111.563 96.2689 110.436 96.2303 109.471C96.1917 108.213 94.254 108.244 94.3466 109.471C94.4392 110.699 94.4933 112.042 95.7903 111.787Z" fill="#001434"/>
<path d="M130.592 75.8348C122.602 72.4457 118.394 85.2456 126.979 86.6429C126.454 89.5225 129.388 89.6692 128.917 86.7279C134.167 86.2492 136.135 78.5832 130.592 75.8348ZM131.858 81.733C131.256 87.137 121.822 84.821 124.501 79.4169C126.547 75.6032 132.785 77.2785 131.858 81.7638V81.733Z" fill="#001434"/>
<path d="M150.379 142.899C149.854 140.853 148.65 136.538 146.998 131.991C146.342 130.184 145.122 130.995 145.168 131.489C145.338 133.133 146.596 135.349 147.307 138.213C148.017 141.077 148.936 143.617 148.851 143.849C148.596 144.536 145.763 145.161 144.937 144.397C144.111 143.633 143.269 139.989 142.011 135.38C141.463 133.38 140.899 131.389 139.872 131.381C139.1 131.381 139.1 131.798 139.224 132.245C139.826 134.6 142.744 142.629 143.084 144.551C143.362 146.049 145.068 146.172 147.013 146.172C148.959 146.172 151.159 145.956 150.379 142.899Z" fill="#001434"/>
<path d="M140.25 112.034C141.926 112.034 140.636 110.382 140.188 108.738C139.857 107.526 138.019 108.174 138.359 109.386C138.861 111.177 139.239 112.034 140.25 112.034Z" fill="#001434"/>
<path d="M92.6951 16.143C91.2206 15.9114 84.7666 21.9176 84.0795 22.4889C83.3924 23.0602 82.3734 31.5986 82.605 32.9033C82.8366 34.208 86.905 38.6933 88.6266 41.2332C89.7383 41.8972 98.2536 42.5688 99.6046 42.4144C109.641 35.7057 108.097 37.1493 109.386 25.9861C109.386 24.6582 104.167 18.6906 102.932 17.4245C102.299 16.776 94.8876 16.4827 92.6951 16.143ZM88.2792 32.7026C87.237 29.9388 87.2293 26.2023 88.92 25.9938C90.6107 25.7854 89.5916 28.4874 90.7188 28.3484C91.6529 28.2326 90.2401 22.3654 94.0075 20.7828C94.3472 22.4966 93.7991 25.9861 94.5325 26.4107C95.9298 27.2213 95.5206 21.9948 95.9607 20.3968C96.5557 20.3825 97.1507 20.4291 97.7363 20.5357C98.0065 21.9408 97.0415 26.3875 98.4465 26.4339C99.5351 26.4725 99.0873 22.3963 99.6277 21.2151C101.944 22.5661 102.963 25.6773 102.222 31.1817C102.847 40.0135 89.7151 39.3341 88.2792 32.7026Z" fill="#001434"/>
<path d="M96.5008 13.1166C89.6685 12.3987 90.7262 12.4141 81.2536 20.4584C79.9181 21.5778 78.9376 32.4014 79.1615 33.7447C79.2542 35.335 84.8744 41.5728 86.4724 44.0201C86.9819 44.7921 88.1554 44.931 90.8729 45.1626C91.8533 49.648 88.9042 51.5703 86.071 54.28C84.5887 55.9013 81.74 58.611 80.3658 58.0938C76.9304 57.1596 73.4178 55.8627 68.5541 54.5271C69.1992 52.7571 69.5107 50.883 69.4728 48.9995C78.0961 46.5909 75.479 38.4848 68.9093 33.2506C69.7816 31.1739 67.2494 29.9387 65.7209 29.074C65.4162 26.2067 64.5005 23.438 63.0357 20.9544C61.5708 18.4708 59.5907 16.33 57.2288 14.6761C40.731 3.59005 12.4678 13.5181 13.3093 36.6088C13.3103 36.8379 13.3564 37.0646 13.4451 37.2759C13.5337 37.4872 13.663 37.679 13.8258 37.8403C13.9885 38.0016 14.1814 38.1292 14.3935 38.216C14.6055 38.3027 14.8326 38.3468 15.0617 38.3458C11.1245 44.0973 9.20993 52.9213 18.5744 52.5662C18.8511 54.1136 19.5091 55.5676 20.489 56.7968C8.85481 62.803 7.13323 76.0198 4.53929 87.322C2.22327 97.6051 5.5429 107.17 18.088 106.622C18.034 109.239 18.1575 112.428 18.1729 115.014C14.9073 117.631 7.97472 124.34 16.104 125.181C40.3064 124.27 42.1824 132.26 45.9112 104.661C48.8139 128.061 47.7563 124.95 69.9129 124.232C67.0333 133.372 65.2808 140.783 65.0801 142.945C64.8794 145.107 65.7131 145.261 68.0214 145.3C69.4574 145.3 72.1826 145.709 72.4373 144.203C73.3449 139.531 74.5098 134.913 75.9268 130.369C77.8645 124.046 81.7786 109.278 82.6819 105.472C83.0215 104.059 81.7786 103.503 81.408 104.599C80.4044 107.603 76.8841 122.479 73.2634 133.434C72.1054 136.939 71.5341 140.498 70.8161 143.138C70.6 143.91 69.5577 144.026 68.4383 144.026C67.6663 144.026 67.0333 144.026 66.7862 143.316C66.6318 142.852 67.3344 138.877 69.2953 131.736C70.3838 127.767 72.2289 123.143 73.6417 118.449C74.3056 116.249 78.459 102.006 79.7714 97.9525C79.9644 97.4507 79.7714 96.7482 79.231 96.6864C78.6906 96.6246 78.1733 96.6864 76.9845 100.546C75.865 104.144 74.5372 108.653 73.8038 112.018C72.8002 103.272 73.9505 91.2283 73.6803 82.7517C76.7065 83.4465 79.756 84.2957 82.0951 84.1953C83.0047 85.5095 84.3883 86.4199 85.9552 86.7352C85.4379 89.5145 88.4642 89.6766 87.9006 86.8124C89.3173 86.6509 90.6148 85.9421 91.5162 84.8373C92.4177 83.7325 92.8517 82.3192 92.7257 80.8989C97.2882 77.9189 104.09 73.1247 106.498 69.8051C111.949 63.0964 106.274 47.7643 96.9486 47.8724C96.9872 47.1621 97.0258 46.4751 97.0952 45.842C101.527 46.9691 104.29 43.1863 107.988 40.438C113.331 37.6356 111.509 32.0076 112.62 26.8506C114.164 23.6468 105.186 15.2705 104.846 14.5603C104.283 13.8423 102.438 13.7419 96.5008 13.1166ZM50.327 63.189C38.3532 63.4824 25.5996 63.328 20.543 52.6743C29.3979 53.2456 27.8616 44.4524 26.7191 38.1605C27.9929 37.7205 31.1427 38.1605 33.2734 38.7318C25.947 41.3103 28.5796 49.1308 35.7284 46.0659C38.4458 45.8729 40.1751 48.2198 42.4989 45.4328C43.3635 44.3675 43.1937 42.4683 42.2364 41.1868C45.0697 41.3412 47.9415 40.9552 52.0872 40.2913C49.3311 48.0422 56.5185 44.7149 60.4712 45.6027C65.8753 47.3243 66.4466 39.4266 61.6601 37.9675C62.8978 37.5736 64.1075 37.0965 65.2808 36.5393C69.0714 48.629 71.1558 60.7186 50.327 63.189ZM61.3204 69.0177C62.5711 76.0661 54.2025 76.2668 44.5138 76.5911C30.664 76.9771 27.5837 75.819 30.5405 63.1581C38.4227 65.7444 51.3306 66.4006 59.6066 63.1581C60.4121 65.035 60.9875 67.0025 61.3204 69.0177ZM36.5158 44.1204C34.9178 43.7499 32.8411 45.0623 31.575 44.7303C29.1586 42.3062 33.5745 39.8898 36.7552 40.2681C36.5314 41.5392 36.4511 42.8314 36.5158 44.1204ZM58.6107 43.3484C57.0667 43.0705 55.1752 44.0664 53.9786 43.7267C51.9097 41.5188 55.5767 38.6855 58.8346 39.2027C58.6125 40.5935 58.5375 42.0037 58.6107 43.4102V43.3484ZM16.8219 36.3926C16.635 36.4226 16.4437 36.4081 16.2634 36.3503C16.0831 36.2925 15.9191 36.193 15.7844 36.0599C15.6498 35.9268 15.5485 35.7638 15.4887 35.5842C15.4288 35.4046 15.4122 35.2134 15.44 35.0262C15.5172 26.8352 20.543 18.7137 26.4334 16.6524C31.0655 15.0312 35.1031 19.8022 37.8746 23.6005C38.8859 24.9824 41.1093 23.9016 40.1288 22.4193C37.7124 18.7832 34.9332 14.9231 29.8997 14.429C35.8519 12.3137 41.6883 11.094 46.3203 12.5839C50.0877 13.7883 52.1567 16.7837 54.411 21.8866C55.2988 23.9016 57.0667 23.1218 56.5649 21.5315C55.7928 19.0765 53.3224 15.0158 52.1953 14.1511C58.4177 16.6061 62.3858 22.6432 63.7754 29.3365C64.0533 30.6875 62.1542 30.6489 62.5016 31.7529C62.7409 32.5249 63.814 32.6175 65.3349 31.1739C74.5989 35.7287 38.2528 41.8276 35.4659 37.5352C37.4345 36.8327 54.4727 35.6206 54.6889 33.9145C54.7506 33.3818 54.0636 33.0653 53.5386 33.1425C33.0109 36.9022 32.0073 36.0761 16.8219 36.3926ZM8.32984 101.612C5.24182 98.6782 5.78222 92.5021 6.33807 88.202C10.1981 89.9545 15.0386 90.4023 17.5631 90.4331C17.8101 95.1424 18.0185 99.7513 18.0803 104.646C13.456 104.515 10.2599 103.542 8.32212 101.612H8.32984ZM17.316 86.1253L17.455 88.4954C15.0309 88.4414 10.2676 87.9859 6.79355 86.272C9.10957 75.7573 11.0242 63.5519 21.84 58.3022C22.2125 58.6657 22.607 59.006 23.0211 59.3213C18.5281 65.8756 16.6444 74.6456 17.3083 86.1253H17.316ZM39.5575 122.448C35.5045 124.456 29.2512 122.927 24.8894 123.297C21.9481 122.911 17.123 123.977 14.4596 122.657C13.8265 120.271 18.1729 118.303 19.4467 116.481C27.2981 117.477 33.0264 119.322 40.0748 121.707C39.9357 121.978 39.7589 122.227 39.5498 122.448H39.5575ZM49.0223 113.231C48.59 110.606 48.15 96.9489 43.9811 104.322C43.1474 109.394 42.1824 114.944 41.0089 120.032C33.8833 117.546 28.0778 115.755 20.1647 114.628C21.0216 97.8444 15.2393 73.8504 24.6424 60.4407C25.9507 61.2355 27.3217 61.9223 28.7417 62.4942C25.0978 76.6065 29.8457 79.2468 44.5293 78.5288C60.2782 78.7295 67.1954 74.8695 61.359 62.3166C62.6248 61.658 63.7981 60.8351 64.8485 59.8694C75.6566 74.2905 69.6349 97.636 71.8738 114.744C63.7754 115.878 57.8464 117.901 50.466 119.569C49.7508 117.516 49.2666 115.39 49.0223 113.231ZM70.515 122.209C66.2767 121.568 52.9827 124.525 51.0218 121.437C58.3559 119.793 64.2541 117.747 72.2675 116.658C72.0436 117.523 71.5341 118.889 70.515 122.209ZM88.7807 84.5505C84.9207 86.7121 80.636 80.1423 84.8203 77.9343C89.352 74.8232 93.6521 82.3271 88.7807 84.5505ZM92.4478 78.7681C90.1317 72.7001 79.6633 75.4022 81.2614 82.219C79.3314 82.1418 76.1275 81.2771 73.5413 80.675C73.3406 74.3368 69.4805 62.1159 66.2535 58.4489C66.8 57.7824 67.2833 57.0665 67.6972 56.3104C75.9036 57.8544 80.389 61.8071 83.423 59.1823C81.9793 66.3234 84.5115 74.167 94.5245 77.3553C93.8451 77.8263 93.1426 78.2895 92.4169 78.7681H92.4478ZM103.117 53.2919C108.621 58.0629 108.243 70.8164 100.438 70.5617C102.314 69.7897 102.198 67.3733 100.245 68.2457C99.6175 68.773 98.946 69.2457 98.2378 69.6584C96.9456 68.7098 96.0167 67.3477 95.6053 65.7984C96.7149 65.3751 97.7867 64.8586 98.8091 64.2544C99.0044 64.1083 99.1377 63.8943 99.1827 63.6546C99.2276 63.4149 99.1808 63.167 99.0517 62.9602C98.9225 62.7533 98.7203 62.6025 98.4852 62.5377C98.2502 62.4728 97.9993 62.4986 97.7823 62.61C96.9266 63.1241 96.0307 63.5681 95.1035 63.9379C92.9187 58.9352 102.908 57.3681 103.086 53.3073L103.117 53.2919ZM100.067 50.2502C102.631 50.9064 101.743 54.3495 98.1452 55.963C88.526 60.4098 93.9377 72.0903 101.063 72.5612C99.4113 74.1052 98.0371 75.2941 96.0916 75.3636C91.7915 75.5411 86.9433 71.9745 85.5846 66.5704C84.9207 63.9456 84.4961 61.0351 85.5846 58.4798C87.9161 52.8364 95.42 49.0767 100.037 50.2656L100.067 50.2502ZM92.8029 45.317C93.5749 45.3865 94.4395 45.4869 95.2347 45.5795C95.1498 46.3979 95.1035 47.2857 95.0649 48.1812C94.2282 48.4353 93.4167 48.7661 92.6408 49.1694C92.7644 47.8944 92.8082 46.6129 92.772 45.3325L92.8029 45.317ZM110.775 26.5032C110.273 35.2732 112.064 35.6592 104.406 40.824C102.553 42.368 100.955 43.6881 100.021 43.912C97.2419 43.9969 90.9115 43.2249 87.9624 42.7849C86.4184 40.4688 81.7863 35.2887 81.0143 33.3895C80.7904 32.0771 81.8635 23.1373 82.5583 21.8094C88.7884 16.3204 91.3438 14.4754 91.9459 14.5526C94.3623 14.9231 101.897 15.2551 103.619 15.8572C106.228 19.1383 110.86 23.5001 110.775 26.5032Z" fill="#001434"/>
<path d="M133.781 108.413C133.187 108.591 133.264 109.363 133.781 111.115C134.129 112.189 136.051 111.702 135.649 110.645C135.024 108.892 135.24 107.973 133.781 108.413Z" fill="#001434"/>
<path d="M80.2888 91.0587C79.0844 92.3711 80.4123 94.579 81.7865 98.3619C82.9754 101.627 84.033 106.537 85.523 107.502C87.013 108.467 95.011 107.502 111.509 107.611C125.081 107.711 140.027 108.043 141.285 106.923C142.543 105.804 141.015 103.318 139.849 99.7978C138.683 96.2774 137.842 91.7458 136.113 90.8271C134.383 89.9084 120.086 90.472 107.193 90.4256C93.6291 90.3793 81.4699 89.8003 80.2888 91.0587Z" fill="#615FFF"/>
<path d="M87.8855 113.763C86.9128 114.837 88.1557 117.23 89.5376 121.013C90.7265 124.278 91.2823 128.655 92.7723 129.62C94.2623 130.585 103.233 129.898 119.731 130.014C133.303 130.115 146.11 130.014 147.778 129.775C151.136 129.258 149.484 126.417 148.311 122.896C147.137 119.376 145.995 114.072 144.304 113.154C142.613 112.235 127.32 112.436 114.412 112.382C100.824 112.343 89.0204 112.497 87.8855 113.763Z" fill="#615FFF"/>
<path d="M138.961 101.233C137.819 98.1454 137.541 93.6678 135.989 92.7414C134.692 91.9694 133.55 95.0574 132.384 98.5237C131.612 100.739 129.296 104.584 129.882 105.943C130.284 106.946 135.742 106.298 136.993 106.12C138.243 105.943 139.502 102.662 138.961 101.233Z" fill="#001434"/>
<path d="M119.352 92.0467C118.449 92.7493 117.731 95.2969 117.469 96.2078C116.581 99.2959 113.362 104.97 114.203 105.796C115.546 107.109 119.746 106.452 121.082 106.483C122.417 106.514 123.089 103.395 123.83 101.512C124.903 98.8095 127.528 92.8959 126.779 92.2011C126.03 91.5063 120.256 91.3596 119.352 92.0467Z" fill="#001434"/>
<path d="M107.85 91.6222C106.838 91.6222 105.534 91.3829 104.607 91.9387C103.681 92.4946 102.6 95.2584 102.345 96.1616C101.45 99.2497 97.6513 104.847 98.2458 106.121C98.8402 107.394 103.38 107.031 105.41 106.893C107.085 106.746 108.012 103.519 108.791 101.689C110.173 98.4313 112.273 93.5059 111.879 91.9542C111.679 91.0664 109.718 91.545 107.85 91.6222Z" fill="#001434"/>
<path d="M96.4544 92.0464C96.1842 90.9965 92.2006 91.3593 90.6257 91.699C88.8578 92.085 88.0164 94.3392 87.2829 96.1921C86.5495 98.0449 84.3725 101.843 84.6195 103.534C84.9008 104.8 85.5541 105.953 86.4955 106.846C86.9587 107.155 88.3252 107.301 90.0776 107.224C91.2974 107.17 92.7024 103.202 92.9804 102.237C93.8296 99.2492 96.7014 93.0191 96.4544 92.0464Z" fill="#001434"/>
<path d="M143.223 114.126C141.084 113.439 139.695 119.785 138.112 122.618C137.101 124.417 136.359 127.358 136.83 128.207C137.51 129.427 142.698 128.871 144.08 128.732C145.461 128.593 147.098 125.559 146.496 122.842C145.909 120.225 144.659 114.581 143.223 114.126Z" fill="#001434"/>
<path d="M112.759 113.617C111.586 114.064 110.335 117.824 110.034 118.889C109.262 121.699 105.811 127.536 107.286 128.601C108.235 129.281 112.443 129.103 114.126 128.802C115.809 128.501 115.793 125.899 116.442 124.409C118.125 120.418 120.896 114.682 119.568 114.072C118.24 113.462 114.936 112.783 112.759 113.617Z" fill="#001434"/>
<path d="M101.797 124.378C102.7 121.198 104.885 115.516 105.155 114.257C105.425 112.999 98.7165 113.107 97.6434 113.532C96.5703 113.956 96.2461 116.465 95.3968 118.611C94.7406 120.287 92.6639 124.61 92.6639 126.162C92.7842 127.05 93.21 127.869 93.8683 128.478C94.316 128.933 97.8209 129.157 99.2723 128.91C100.724 128.663 101.565 125.173 101.797 124.378Z" fill="#001434"/>
<path d="M131.342 124.471C132.484 121.553 135.804 114.991 134.553 114.149C133.303 113.308 129.149 113.509 127.814 114.049C126.478 114.589 125.104 117.654 124.803 118.681C124.031 121.476 120.541 126.509 121.468 128.1C122 129.011 126.872 128.972 128.779 128.787C130.685 128.601 130.747 126.015 131.342 124.471Z" fill="#001434"/>
<path d="M128.555 77.9036C125.876 77.9036 125.729 82.4198 128.423 83.5469C132.839 85.3998 131.241 77.9036 128.555 77.9036Z" fill="#615FFF"/>
<path d="M87.6075 78.6912C84.4578 78.8843 83.9019 82.8678 87.4763 83.4314C91.0507 83.9949 90.7573 78.4982 87.6075 78.6912Z" fill="#615FFF"/>
</svg>
