<svg width="155" height="155" viewBox="0 0 155 155" fill="none" xmlns="http://www.w3.org/2000/svg">
<path d="M28.3172 60.317C29.5473 61.1764 30.9481 61.761 32.4243 62.0308C31.3898 68.6778 30.6873 71.6809 31.6523 73.0088C32.6173 74.3366 33.3198 75.3943 36.0836 75.6876C38.8474 75.981 46.5134 76.3902 50.2576 75.6876C54.0019 74.9851 57.1285 74.1127 58.1476 72.7231C59.1666 71.3335 57.9005 64.3932 56.5572 62.2084C58.0565 61.7361 59.4752 61.0385 60.7647 60.1394C63.7112 64.4943 65.6085 69.4727 66.3077 74.684C67.0408 80.6831 67.1598 86.7412 66.6628 92.7644C66.6628 92.9111 66.7091 97.3965 66.8326 101.341C66.8773 102.874 66.3995 104.375 65.4778 105.6C64.5561 106.825 63.2452 107.7 61.7605 108.081C59.1589 108.76 56.8737 109.556 56.8737 109.556L52.2417 110.59C51.7968 110.688 51.3364 110.692 50.8897 110.603C50.4431 110.513 50.02 110.331 49.6475 110.069C49.2749 109.807 48.961 109.47 48.7258 109.08C48.4906 108.69 48.3392 108.255 48.2813 107.803C47.9648 105.394 47.3395 102.615 46.1274 102.399C44.7301 102.167 44.0198 105.804 43.1783 107.031C42.7681 107.683 42.3969 108.358 42.0666 109.054C41.841 109.513 41.5263 109.923 41.1407 110.26C40.7552 110.597 40.3065 110.853 39.8209 111.015C39.3352 111.176 38.8223 111.24 38.3119 111.201C37.8015 111.163 37.3038 111.023 36.8479 110.791C31.5365 108.112 30.9266 108.382 27.0511 107.703C26.1505 107.54 25.337 107.062 24.7558 106.355C24.1746 105.648 23.8636 104.758 23.8781 103.843C23.9245 101.21 23.9553 97.7284 23.7932 96.3465C23.5307 93.9842 22.8977 82.1185 22.9286 77.8956C22.9595 73.6727 24.5498 65.6207 28.3172 60.317Z" fill="#615FFF"/>
<path d="M24.9206 30.1933C25.3529 26.2792 27.916 20.4197 34.9026 16.1428C34.8563 14.2899 35.829 13.379 38.9943 12.4217C41.9125 11.5339 48.4591 11.1556 51.8405 12.0974C55.3994 13.24 61.645 18.4125 59.4834 29.1356C61.3053 30.9653 62.1313 30.9653 61.3516 32.1542C60.5719 33.3431 58.5724 35.8598 47.1081 36.9329C42.5918 37.3575 37.7591 34.4702 37.7591 34.4702C37.7591 34.4702 30.9886 34.3004 26.6885 33.6982C25.1831 33.5206 24.7507 31.6987 24.9206 30.1933Z" fill="#615FFF"/>
<path d="M89.4291 107.919C88.4178 108.181 88.9659 108.984 89.4291 110.575C89.4988 110.821 89.6635 111.03 89.8872 111.156C90.1109 111.281 90.3752 111.312 90.6219 111.242C90.8686 111.173 91.0776 111.008 91.2028 110.784C91.3281 110.561 91.3593 110.296 91.2897 110.05C90.8574 108.637 90.7802 107.572 89.4291 107.919Z" fill="#B9B9B9"/>
<path d="M58.7957 48.4129C58.155 48.3203 57.9002 48.7372 57.3984 48.7835C54.928 49.0074 51.7782 47.556 49.5085 47.4711C50.7051 46.0892 51.9249 44.4294 48.7828 41.0943C48.692 40.9953 48.5818 40.9161 48.4589 40.8619C48.3361 40.8076 48.2034 40.7793 48.0691 40.7788C47.9348 40.7783 47.8018 40.8057 47.6786 40.8591C47.5554 40.9126 47.4446 40.991 47.3531 41.0893C47.2617 41.1877 47.1917 41.304 47.1474 41.4308C47.1031 41.5576 47.0855 41.6921 47.0958 41.826C47.1061 41.96 47.144 42.0903 47.2071 42.2088C47.2703 42.3274 47.3573 42.4315 47.4627 42.5148C49.9254 44.2209 48.4199 47.5406 45.4477 46.5987C45.2803 46.5345 45.0984 46.5181 44.9222 46.5515C44.746 46.5849 44.5826 46.6667 44.4504 46.7877C44.3181 46.9088 44.2222 47.0643 44.1733 47.2368C44.1245 47.4093 44.1247 47.592 44.1739 47.7644C42.2053 48.3898 40.2521 49.3934 38.3221 49.5941C37.5501 49.6713 36.7781 49.2467 36.0061 49.3779C34.8017 49.5632 34.8403 51.5396 36.0756 52.7207C38.5537 55.0985 44.7143 56.9668 47.4086 53.4927C51.0062 56.851 56.8271 53.871 58.9887 51.2462C60.1699 49.9261 59.8457 48.5828 58.7957 48.4129Z" fill="#B9B9B9"/>
<path d="M102.036 131.303C101.673 130.323 100.392 131.048 100.701 132.191C101.087 133.581 102.028 135.534 102.777 137.595C103.424 139.303 103.94 141.058 104.321 142.845C104.321 143.308 103.055 143.578 102.059 143.732C101.218 143.864 100.608 143.578 100.415 143.03C98.9234 139.453 97.6977 135.771 96.7478 132.013C96.4853 130.979 94.3623 130.469 94.7869 132.183C95.2115 133.897 96.1379 135.68 97.6125 140.359C98.6856 143.794 99.2414 145.323 100.701 145.222C102.723 145.091 107.016 145.994 105.919 142.374C104.83 138.615 103.534 134.919 102.036 131.303Z" fill="#B9B9B9"/>
<path d="M95.7902 110.837C96.9173 110.613 96.2689 109.486 96.2303 108.521C96.1917 107.263 94.2539 107.294 94.3466 108.521C94.4392 109.749 94.4932 111.092 95.7902 110.837Z" fill="#B9B9B9"/>
<path d="M130.592 74.8851C122.602 71.496 118.394 84.2959 126.979 85.6932C126.454 88.5728 129.388 88.7195 128.917 85.7781C134.167 85.2995 136.135 77.6335 130.592 74.8851ZM131.858 80.7833C131.256 86.1873 121.822 83.8713 124.501 78.4672C126.547 74.6535 132.785 76.3288 131.858 80.8141V80.7833Z" fill="#B9B9B9"/>
<path d="M150.379 141.949C149.854 139.904 148.65 135.588 146.998 131.041C146.342 129.234 145.122 130.045 145.168 130.539C145.338 132.184 146.596 134.399 147.307 137.263C148.017 140.128 148.936 142.667 148.851 142.899C148.596 143.586 145.763 144.211 144.937 143.447C144.11 142.683 143.269 139.039 142.011 134.43C141.462 132.431 140.899 130.439 139.872 130.431C139.1 130.431 139.1 130.848 139.224 131.296C139.826 133.65 142.744 141.679 143.084 143.602C143.362 145.099 145.068 145.223 147.013 145.223C148.959 145.223 151.159 145.007 150.379 141.949Z" fill="#B9B9B9"/>
<path d="M140.25 111.085C141.925 111.085 140.636 109.433 140.188 107.788C139.856 106.576 138.019 107.225 138.359 108.437C138.861 110.228 139.239 111.085 140.25 111.085Z" fill="#B9B9B9"/>
<path d="M92.695 15.1933C91.2205 14.9617 84.7665 20.9679 84.0794 21.5392C83.3923 22.1105 82.3733 30.6489 82.6049 31.9536C82.8365 33.2583 86.9049 37.7436 88.6265 40.2835C89.7382 40.9475 98.2534 41.6191 99.6045 41.4647C109.641 34.756 108.097 36.1996 109.386 25.0364C109.386 23.7085 104.167 17.7409 102.932 16.4748C102.299 15.8263 94.8875 15.533 92.695 15.1933ZM88.2791 31.7528C87.2369 28.9891 87.2292 25.2525 88.9199 25.0441C90.6106 24.8357 89.5915 27.5377 90.7186 27.3987C91.6528 27.2829 90.24 21.4157 94.0074 19.8331C94.3471 21.5469 93.799 25.0364 94.5324 25.461C95.9297 26.2716 95.5205 21.0451 95.9606 19.4471C96.5556 19.4328 97.1506 19.4793 97.7362 19.586C98.0064 20.9911 97.0414 25.4378 98.4464 25.4841C99.535 25.5227 99.0872 21.4466 99.6276 20.2654C101.944 21.6164 102.963 24.7276 102.222 30.232C102.847 39.0638 89.715 38.3844 88.2791 31.7528Z" fill="#B9B9B9"/>
<path d="M96.5007 12.1669C89.6685 11.4489 90.7261 11.4644 81.2536 19.5087C79.918 20.6281 78.9376 31.4517 79.1615 32.7949C79.2541 34.3853 84.8743 40.6231 86.4724 43.0704C86.9819 43.8424 88.1553 43.9813 90.8728 44.2129C91.8532 48.6983 88.9042 50.6206 86.0709 53.3303C84.5887 54.9516 81.74 57.6613 80.3658 57.1441C76.9303 56.2099 73.4177 54.913 68.5541 53.5774C69.1992 51.8074 69.5106 49.9333 69.4728 48.0498C78.0961 45.6411 75.479 37.5351 68.9092 32.3009C69.7816 30.2242 67.2494 28.989 65.7208 28.1243C65.4161 25.257 64.5005 22.4883 63.0356 20.0047C61.5707 17.5211 59.5907 15.3803 57.2287 13.7264C40.7309 2.64034 12.4677 12.5684 13.3092 35.6591C13.3102 35.8882 13.3564 36.1149 13.445 36.3262C13.5336 36.5375 13.663 36.7293 13.8257 36.8905C13.9884 37.0518 14.1813 37.1795 14.3934 37.2663C14.6055 37.353 14.8326 37.3971 15.0617 37.3961C11.1244 43.1476 9.20987 51.9716 18.5743 51.6165C18.851 53.1639 19.509 54.6179 20.4889 55.8471C8.85475 61.8533 7.13317 75.0701 4.53923 86.3722C2.22321 96.6554 5.54284 106.221 18.088 105.672C18.0339 108.29 18.1574 111.478 18.1729 114.064C14.9073 116.681 7.97466 123.39 16.1039 124.231C40.3063 123.321 42.1823 131.311 45.9111 103.712C48.8138 127.111 47.7562 124 69.9128 123.282C67.0332 132.422 65.2808 139.834 65.08 141.995C64.8793 144.157 65.7131 144.311 68.0214 144.35C69.4573 144.35 72.1825 144.759 72.4373 143.254C73.3448 138.582 74.5098 133.963 75.9267 129.419C77.8645 123.097 81.7785 108.328 82.6818 104.522C83.0215 103.109 81.7785 102.554 81.408 103.65C80.4044 106.653 76.884 121.529 73.2633 132.484C72.1053 135.989 71.534 139.548 70.8161 142.188C70.5999 142.96 69.5577 143.076 68.4383 143.076C67.6663 143.076 67.0332 143.076 66.7862 142.366C66.6318 141.903 67.3343 137.927 69.2952 130.786C70.3837 126.818 72.2288 122.193 73.6416 117.5C74.3055 115.299 78.4589 101.056 79.7713 97.0028C79.9643 96.501 79.7713 95.7985 79.2309 95.7367C78.6905 95.6749 78.1733 95.7367 76.9844 99.5967C75.865 103.194 74.5371 107.703 73.8037 111.069C72.8001 102.322 73.9504 90.2786 73.6802 81.802C76.7065 82.4968 79.7559 83.346 82.0951 83.2456C83.0046 84.5598 84.3883 85.4702 85.9551 85.7855C85.4379 88.5648 88.4641 88.7269 87.9006 85.8627C89.3173 85.7011 90.6147 84.9923 91.5162 83.8876C92.4176 82.7828 92.8516 81.3695 92.7256 79.9492C97.2882 76.9692 104.09 72.175 106.498 68.8554C111.949 62.1467 106.274 46.8146 96.9485 46.9227C96.9871 46.2124 97.0257 45.5253 97.0952 44.8923C101.526 46.0194 104.29 42.2366 107.988 39.4882C113.33 36.6859 111.509 31.0579 112.62 25.9009C114.164 22.6971 105.186 14.3208 104.846 13.6106C104.283 12.8926 102.437 12.7922 96.5007 12.1669ZM50.327 62.2393C38.3531 62.5327 25.5996 62.3783 20.5429 51.7246C29.3979 52.2958 27.8616 43.5027 26.719 37.2108C27.9928 36.7708 31.1426 37.2108 33.2733 37.7821C25.947 40.3606 28.5795 48.181 35.7283 45.1162C38.4458 44.9232 40.1751 47.2701 42.4988 44.4831C43.3635 43.4178 43.1936 41.5186 42.2363 40.2371C45.0696 40.3915 47.9415 40.0055 52.0872 39.3416C49.3311 47.0925 56.5185 43.7652 60.4712 44.653C65.8752 46.3746 66.4465 38.4769 61.66 37.0178C62.8978 36.6239 64.1074 36.1468 65.2808 35.5896C69.0713 47.6792 71.1557 59.7689 50.327 62.2393ZM61.3204 68.068C62.571 75.1164 54.2025 75.3171 44.5138 75.6413C30.664 76.0274 27.5836 74.8693 30.5404 62.2084C38.4226 64.7946 51.3306 65.4509 59.6065 62.2084C60.412 64.0853 60.9875 66.0528 61.3204 68.068ZM36.5158 43.1707C34.9177 42.8002 32.841 44.1126 31.5749 43.7806C29.1585 41.3565 33.5744 38.9401 36.7551 39.3184C36.5313 40.5895 36.451 41.8817 36.5158 43.1707ZM58.6106 42.3987C57.0666 42.1208 55.1752 43.1167 53.9786 42.777C51.9096 40.5691 55.5766 37.7358 58.8345 38.253C58.6125 39.6438 58.5374 41.054 58.6106 42.4605V42.3987ZM16.8219 35.4429C16.6349 35.4729 16.4436 35.4584 16.2633 35.4006C16.0831 35.3428 15.919 35.2433 15.7844 35.1102C15.6498 34.977 15.5484 34.8141 15.4886 34.6345C15.4288 34.4549 15.4121 34.2637 15.44 34.0765C15.5172 25.8855 20.5429 17.764 26.4334 15.7027C31.0654 14.0815 35.103 18.8525 37.8745 22.6508C38.8858 24.0327 41.1092 22.9519 40.1288 21.4696C37.7124 17.8334 34.9332 13.9734 29.8997 13.4793C35.8518 11.364 41.6882 10.1443 46.3203 11.6342C50.0877 12.8386 52.1566 15.8339 54.4109 20.9369C55.2987 22.9519 57.0666 22.1721 56.5648 20.5818C55.7928 18.1268 53.3224 14.0661 52.1952 13.2014C58.4176 15.6564 62.3857 21.6935 63.7753 28.3868C64.0533 29.7378 62.1541 29.6992 62.5015 30.8032C62.7409 31.5752 63.8139 31.6678 65.3348 30.2242C74.5989 34.779 38.2528 40.8779 35.4658 36.5855C37.4345 35.883 54.4727 34.6709 54.6888 32.9648C54.7506 32.4321 54.0635 32.1156 53.5385 32.1928C33.0109 35.9525 32.0072 35.1264 16.8219 35.4429ZM8.32978 100.662C5.24175 97.7285 5.78216 91.5524 6.33801 87.2523C10.198 89.0048 15.0385 89.4526 17.563 89.4834C17.81 94.1927 18.0185 98.8016 18.0802 103.696C13.4559 103.565 10.2598 102.592 8.32206 100.662H8.32978ZM17.3159 85.1756L17.4549 87.5457C15.0308 87.4917 10.2675 87.0362 6.79349 85.3223C9.10951 74.8076 11.0241 62.6021 21.8399 57.3525C22.2124 57.716 22.6069 58.0563 23.0211 58.3715C18.528 64.9259 16.6443 73.6959 17.3082 85.1756H17.3159ZM39.5575 121.499C35.5044 123.506 29.2512 121.977 24.8893 122.348C21.948 121.962 17.1229 123.027 14.4595 121.707C13.8265 119.322 18.1729 117.353 19.4467 115.531C27.298 116.527 33.0263 118.372 40.0747 120.757C39.9356 121.028 39.7589 121.278 39.5498 121.499H39.5575ZM49.0223 112.281C48.59 109.656 48.1499 95.9992 43.9811 103.372C43.1473 108.444 42.1823 113.995 41.0088 119.082C33.8832 116.596 28.0777 114.805 20.1647 113.678C21.0216 96.8947 15.2392 72.9007 24.6423 59.491C25.9506 60.2858 27.3216 60.9726 28.7417 61.5445C25.0978 75.6568 29.8456 78.2971 44.5292 77.5791C60.2781 77.7798 67.1953 73.9198 61.359 61.3669C62.6248 60.7083 63.798 59.8854 64.8484 58.9197C75.6565 73.3408 69.6349 96.6863 71.8737 113.794C63.7753 114.929 57.8463 116.951 50.4659 118.619C49.7507 116.566 49.2665 114.441 49.0223 112.281ZM70.515 121.259C66.2766 120.618 52.9827 123.575 51.0218 120.487C58.3558 118.843 64.254 116.797 72.2674 115.709C72.0435 116.573 71.534 117.94 70.515 121.259ZM88.7807 83.6007C84.9206 85.7624 80.636 79.1926 84.8203 76.9846C89.3519 73.8735 93.652 81.3774 88.7807 83.6007ZM92.4477 77.8184C90.1317 71.7504 79.6633 74.4525 81.2613 81.2693C79.3313 81.1921 76.1275 80.3274 73.5412 79.7253C73.3405 73.3871 69.4805 61.1662 66.2535 57.4992C66.8 56.8327 67.2833 56.1168 67.6971 55.3607C75.9036 56.9047 80.3889 60.8574 83.4229 58.2326C81.9793 65.3736 84.5115 73.2172 94.5244 76.4056C93.845 76.8766 93.1425 77.3398 92.4168 77.8184H92.4477ZM103.117 52.3422C108.621 57.1132 108.243 69.8667 100.438 69.612C102.314 68.84 102.198 66.4236 100.245 67.2959C99.6175 67.8233 98.9459 68.296 98.2377 68.7087C96.9455 67.7601 96.0166 66.398 95.6052 64.8487C96.7148 64.4254 97.7866 63.9089 98.809 63.3047C99.0043 63.1586 99.1377 62.9445 99.1826 62.7048C99.2275 62.4651 99.1808 62.2173 99.0516 62.0105C98.9224 61.8036 98.7203 61.6528 98.4852 61.588C98.2501 61.5231 97.9992 61.5489 97.7823 61.6603C96.9265 62.1744 96.0307 62.6184 95.1034 62.9881C92.9186 57.9855 102.908 56.4184 103.086 52.3576L103.117 52.3422ZM100.067 49.3005C102.63 49.9567 101.743 53.3998 98.1451 55.0133C88.5259 59.4601 93.9377 71.1405 101.063 71.6115C99.4112 73.1555 98.037 74.3444 96.0916 74.4139C91.7915 74.5914 86.9433 71.0247 85.5845 65.6207C84.9206 62.9959 84.496 60.0854 85.5845 57.5301C87.916 51.8867 95.4199 48.127 100.037 49.3159L100.067 49.3005ZM92.8028 44.3673C93.5748 44.4368 94.4395 44.5372 95.2346 44.6298C95.1497 45.4481 95.1034 46.336 95.0648 47.2315C94.2281 47.4856 93.4166 47.8164 92.6407 48.2197C92.7643 46.9447 92.8081 45.6632 92.7719 44.3828L92.8028 44.3673ZM110.775 25.5535C110.273 34.3235 112.064 34.7095 104.406 39.8743C102.553 41.4183 100.955 42.7384 100.021 42.9623C97.2419 43.0472 90.9114 42.2752 87.9623 41.8351C86.4183 39.5191 81.7863 34.339 81.0143 32.4398C80.7904 31.1274 81.8635 22.1876 82.5583 20.8597C88.7884 15.3707 91.3437 13.5256 91.9459 13.6028C94.3623 13.9734 101.897 14.3054 103.619 14.9075C106.228 18.1886 110.86 22.5504 110.775 25.5535Z" fill="#B9B9B9"/>
<path d="M133.781 107.464C133.187 107.641 133.264 108.413 133.781 110.166C134.128 111.239 136.051 110.752 135.649 109.695C135.024 107.942 135.24 107.024 133.781 107.464Z" fill="#B9B9B9"/>
<path d="M80.2887 90.109C79.0844 91.4214 80.4122 93.6293 81.7864 97.4122C82.9753 100.678 84.033 105.588 85.5229 106.553C87.0129 107.518 95.0109 106.553 111.509 106.661C125.081 106.761 140.027 107.093 141.285 105.974C142.543 104.854 141.015 102.368 139.849 98.8481C138.683 95.3277 137.842 90.7961 136.113 89.8774C134.383 88.9587 120.086 89.5222 107.193 89.4759C93.629 89.4296 81.4699 88.8506 80.2887 90.109Z" fill="#615FFF"/>
<path d="M87.8854 112.814C86.9127 113.887 88.1557 116.28 89.5375 120.063C90.7264 123.328 91.2823 127.706 92.7722 128.671C94.2622 129.636 103.233 128.949 119.731 129.064C133.303 129.165 146.11 129.064 147.778 128.825C151.136 128.308 149.484 125.467 148.31 121.947C147.137 118.426 145.994 113.123 144.304 112.204C142.613 111.285 127.32 111.486 114.412 111.432C100.824 111.393 89.0203 111.548 87.8854 112.814Z" fill="#615FFF"/>
<path d="M138.961 100.284C137.819 97.1957 137.541 92.7181 135.989 91.7917C134.692 91.0197 133.55 94.1077 132.384 97.574C131.612 99.7897 129.296 103.634 129.882 104.993C130.284 105.997 135.742 105.348 136.993 105.171C138.243 104.993 139.502 101.712 138.961 100.284Z" fill="#B9B9B9"/>
<path d="M119.352 91.097C118.449 91.7995 117.731 94.3472 117.469 95.2581C116.581 98.3462 113.362 104.02 114.203 104.846C115.546 106.159 119.746 105.503 121.082 105.534C122.417 105.564 123.089 102.446 123.83 100.562C124.903 97.8598 127.528 91.9462 126.779 91.2514C126.03 90.5566 120.256 90.4099 119.352 91.097Z" fill="#B9B9B9"/>
<path d="M107.849 90.6725C106.838 90.6725 105.533 90.4332 104.607 90.989C103.681 91.5449 102.6 94.3087 102.345 95.2119C101.45 98.2999 97.6513 103.897 98.2457 105.171C98.8402 106.445 103.38 106.082 105.41 105.943C107.085 105.796 108.012 102.569 108.791 100.739C110.173 97.4816 112.273 92.5562 111.879 91.0045C111.679 90.1167 109.718 90.5953 107.849 90.6725Z" fill="#B9B9B9"/>
<path d="M96.4543 91.0967C96.1841 90.0467 92.2006 90.4096 90.6257 90.7493C88.8578 91.1353 88.0163 93.3895 87.2829 95.2424C86.5495 97.0952 84.3724 100.893 84.6195 102.584C84.9008 103.85 85.554 105.004 86.4955 105.896C86.9587 106.205 88.3251 106.352 90.0776 106.274C91.2973 106.22 92.7024 102.252 92.9803 101.287C93.8295 98.2995 96.7014 92.0694 96.4543 91.0967Z" fill="#B9B9B9"/>
<path d="M143.223 113.176C141.084 112.489 139.694 118.835 138.112 121.668C137.101 123.467 136.359 126.408 136.83 127.258C137.51 128.477 142.698 127.921 144.079 127.783C145.461 127.644 147.098 124.61 146.496 121.892C145.909 119.275 144.658 113.632 143.223 113.176Z" fill="#B9B9B9"/>
<path d="M112.759 112.667C111.586 113.115 110.335 116.874 110.034 117.94C109.262 120.75 105.811 126.586 107.286 127.651C108.235 128.331 112.443 128.153 114.126 127.852C115.809 127.551 115.793 124.949 116.442 123.459C118.125 119.468 120.896 113.732 119.568 113.122C118.24 112.512 114.936 111.833 112.759 112.667Z" fill="#B9B9B9"/>
<path d="M101.797 123.429C102.7 120.248 104.885 114.566 105.155 113.308C105.425 112.049 98.7164 112.157 97.6433 112.582C96.5702 113.007 96.246 115.516 95.3968 117.662C94.7406 119.337 92.6639 123.66 92.6639 125.212C92.7842 126.1 93.21 126.919 93.8682 127.528C94.316 127.983 97.8209 128.207 99.2722 127.96C100.724 127.713 101.565 124.224 101.797 123.429Z" fill="#B9B9B9"/>
<path d="M131.342 123.521C132.484 120.603 135.804 114.041 134.553 113.2C133.302 112.358 129.149 112.559 127.813 113.099C126.478 113.64 125.104 116.705 124.803 117.731C124.031 120.526 120.541 125.56 121.468 127.15C122 128.061 126.872 128.022 128.778 127.837C130.685 127.652 130.747 125.065 131.342 123.521Z" fill="#B9B9B9"/>
<path d="M128.555 76.9539C125.876 76.9539 125.729 81.4701 128.423 82.5972C132.839 84.45 131.241 76.9539 128.555 76.9539Z" fill="#615FFF"/>
<path d="M87.6075 77.7415C84.4577 77.9345 83.9019 81.9181 87.4763 82.4817C91.0507 83.0452 90.7573 77.5485 87.6075 77.7415Z" fill="#615FFF"/>
</svg>
