<svg width="155" height="155" viewBox="0 0 155 155" fill="none" xmlns="http://www.w3.org/2000/svg">
<path d="M13.9055 63.6718C13.9055 63.6718 16.572 62.0907 16.464 59.3825C16.2323 53.5855 17.8937 47.0427 21.6557 46.29C21.7329 48.2463 21.9568 49.9015 24.6665 52.3117C22.2579 59.6836 25.945 76.9897 13.9055 63.6718Z" fill="#615FFF"/>
<path d="M30.0081 69.4658C30.0081 69.4658 32.2677 63.746 31.1367 60.8873C30.0425 57.9545 30.1507 54.7082 31.4378 51.8548C33.5446 49.9742 38.5109 49.6731 40.9188 49.6731C40.4517 51.0131 40.4517 52.4718 40.9188 53.8118C41.7464 55.6924 40.6926 58.6268 40.3167 59.4552C39.9407 60.2836 40.2395 62.466 40.2395 62.466L38.5843 67.1313C38.5843 67.1313 35.4252 66.3052 30.0081 69.4658Z" fill="#615FFF"/>
<path d="M29.4059 52.6858C29.4059 52.6858 32.1898 47.0424 32.792 44.2578C36.0274 45.537 37.3067 46.5152 38.7364 46.1392C40.1662 45.7632 38.582 50.8044 38.582 50.8044L29.4059 52.6858Z" fill="#615FFF"/>
<path d="M44.2289 65.0259C49.7218 62.7685 46.3357 54.8678 49.5712 52.385C51.6032 53.9653 57.6225 57.4262 60.858 58.2523C57.472 61.3403 61.535 64.5727 58.7512 68.6365C58.7496 68.6381 48.5931 68.4119 44.2289 65.0259Z" fill="#615FFF"/>
<path d="M67.1792 68.4123C69.0599 65.2524 67.4796 63.07 70.8656 60.2105C75.4621 60.4567 80.0716 60.2805 84.6359 59.6839C86.8176 59.2323 87.4197 64.0481 87.4197 64.0481C82.9807 62.694 72.0699 63.6721 67.1792 68.4123Z" fill="#615FFF"/>
<path d="M94.7941 68.0362C94.7941 68.0362 96.826 65.1798 96.4493 62.0918C96.0725 59.0038 95.3206 58.7806 95.6217 57.276C97.4612 56.2742 99.1783 55.0622 100.739 53.6646C105.328 58.4047 102.319 65.3991 100.512 69.3903L95.8471 69.842L94.7941 68.0362Z" fill="#615FFF"/>
<path d="M51.6783 97.9078C50.3118 98.4011 46.4641 99.695 44.5302 102.047C42.6265 104.363 39.1879 131.919 36.9306 121.083C36.9306 121.083 35.6491 126.129 37.6076 127.253C38.6599 127.858 39.7901 128.082 41.2191 126.501C42.6481 124.921 46.5622 113.108 48.5184 107.238C51.0769 104.605 60.1811 102.724 60.1811 102.724L61.7607 98.0584C61.6835 98.0584 53.0215 97.4269 51.6783 97.9078ZM105.705 104.83C110.385 103.294 115.366 102.907 120.227 103.702C120.227 103.702 119.242 98.9006 118.045 98.3595C115.775 97.3335 110.546 97.8963 109.542 96.1021C108.735 94.6608 104.2 84.0627 103.448 81.881C100.591 73.6027 111.047 78.7929 111.649 75.0333C111.799 74.6535 111.821 74.2354 111.712 73.8419C111.604 73.4484 111.37 73.1009 111.047 72.8516C109.768 72.024 96.4493 72.2494 97.1263 73.6792C97.3725 74.6436 97.4195 75.6481 97.2643 76.6313C97.1091 77.6145 96.7551 78.5557 96.2238 79.3974L98.4055 84.9659C98.4055 84.9659 96.0733 85.7186 94.2676 86.32C101.792 92.2645 88.7747 114.838 88.3231 116.197C88.3231 116.197 93.6654 112.283 98.8572 108.296C101.115 114.616 107.284 127.333 111.875 128.462C114.886 127.634 92.0102 99.116 108.263 100.169C106.228 102.649 105.554 103.852 105.705 104.83Z" fill="#615FFF"/>
<path d="M34.5229 98.5078C30.4598 98.6714 18.3447 98.5078 11.4978 97.9056C11.2984 97.8851 11.1153 97.7866 10.9885 97.6315C10.8616 97.4764 10.8013 97.2774 10.8207 97.078C10.7435 95.7988 13.5305 96.2882 22.5591 96.6264C27.977 96.8302 30.7655 96.6457 33.6953 96.9275C35.6554 97.1182 36.2537 98.4406 34.5229 98.5078Z" fill="#615FFF"/>
<path d="M27.9763 78.57C21.5803 78.57 15.6435 77.8551 8.11182 78.0435C7.6602 78.0551 6.76004 77.148 7.95742 76.7643C11.4253 75.6572 20.599 76.667 22.1037 76.6871C24.6629 76.7241 28.8973 76.596 29.7033 77.6652C30.324 78.4835 28.6534 78.57 27.9763 78.57Z" fill="#615FFF"/>
<path d="M133.846 95.1989C131.737 94.9997 124.14 95.8767 123.537 93.9204C123.546 93.8211 123.575 93.7246 123.621 93.6365C123.668 93.5484 123.732 93.4705 123.809 93.4074C123.886 93.3442 123.975 93.2971 124.07 93.2688C124.166 93.2405 124.266 93.2316 124.365 93.2426C132.341 94.0702 140.693 93.3561 147.541 93.3931C148.519 93.3985 151.227 94.7827 147.463 94.8985C143.777 95.0105 138.431 95.6327 133.846 95.1989Z" fill="#615FFF"/>
<path d="M138.961 71.3465C136.403 71.3465 133.269 71.6384 132.791 70.3684C132.649 69.9894 133.167 69.5408 133.844 69.5408C134.521 69.5408 144.232 69.4142 148.517 69.6914C149.497 69.7547 150.85 71.196 148.367 71.196C145.96 71.3465 141.596 71.3465 138.961 71.3465Z" fill="#615FFF"/>
<path d="M118.422 51.6321C118.422 49.7507 118.212 40.7213 118.196 35.755C118.158 24.6188 117.671 19.2796 119.625 17.7719C121.961 15.9693 128.581 16.2688 139.339 16.7938C140.694 16.8594 140.469 18.2606 138.587 18.2984C136.33 18.3439 132.417 18.11 129.181 18.144C123.764 18.2073 121.356 18.2212 120.453 19.5738C119.55 20.9263 119.848 29.8824 119.926 37.3299C119.998 44.1776 119.95 48.5426 120.004 50.7991C120.039 52.4613 118.422 53.5135 118.422 51.6321Z" fill="#615FFF"/>
<path d="M131.589 56.0718C129.857 56.3667 130.759 41.4731 131.062 39.743C131.511 37.1846 136.413 38.0801 139.039 37.7119C139.247 37.6967 139.44 37.6022 139.58 37.448C139.72 37.2938 139.796 37.0917 139.791 36.8835C140.223 30.8341 137.597 27.1871 149.197 28.1552C150.928 28.3003 151.153 29.585 148.896 29.585C142.425 29.585 141.829 29.964 141.596 30.4882C140.791 32.304 141.601 37.6401 140.694 38.7649C139.721 39.9723 133.477 38.5418 132.868 40.1198C132.199 41.8529 132.267 51.6319 132.342 55.2434C132.417 55.695 132.041 55.9946 131.589 56.0718Z" fill="#615FFF"/>
<path d="M3.89772 48.2501C3.82052 45.3164 3.72324 36.7217 4.87585 35.007C6.20293 33.0322 8.40856 33.7657 13.4536 33.6522C14.0558 33.639 14.722 33.6522 14.7328 33.0508C14.81 28.7592 14.2974 25.4589 15.1845 23.6446C16.0275 21.9215 18.9465 21.1619 26.6218 21.1619C30.0078 21.1619 29.2551 22.7383 28.202 22.6665C25.8698 22.5082 17.6526 22.8078 16.7648 24.1719C16.229 24.9933 16.4259 27.8583 16.388 33.9533C16.3726 36.5117 8.03259 34.5516 6.75646 35.6092C5.39927 36.7294 5.4039 46.591 5.5529 48.6222C5.5529 50.729 3.9726 51.1837 3.89772 48.2501Z" fill="#615FFF"/>
<path d="M29.5563 34.8527C29.5185 31.0143 29.8574 28.2312 30.8355 27.2531C31.9642 26.1244 36.78 26.0727 39.5639 26.1993C41.595 26.2919 40.542 27.6831 39.5639 27.7047C37.8322 27.7417 32.9246 27.5341 31.9642 28.4566C31.1204 29.268 30.9498 33.4229 30.9861 35.5297C31.0239 37.713 29.5733 36.5835 29.5563 34.8527Z" fill="#615FFF"/>
<path d="M112.1 132.22C111.705 133.191 111.274 136.003 112.401 135.907C113.154 135.845 113.605 133.423 113.605 132.37C113.53 131.318 112.531 131.158 112.1 132.22Z" fill="#B9B9B9"/>
<path d="M115.637 114.613C115.637 113.56 114.509 113.484 114.057 114.536C113.53 115.89 113.078 118.975 113.903 118.975C114.728 118.975 115.637 116.264 115.637 114.613Z" fill="#B9B9B9"/>
<path d="M105.555 130.94C106.382 131.241 108.643 129.661 108.263 128.984C107.664 128.187 103.689 130.195 105.555 130.94Z" fill="#B9B9B9"/>
<path d="M139.264 144.334C138.728 143.971 137.684 143.883 125.72 144.334C140.465 136.433 140.542 110.926 123.613 104.003C120.679 93.9205 121.506 95.5001 114.207 93.6943C113.078 93.3933 112.673 92.2059 112.025 90.9854C111.394 89.7965 110.445 87.675 109.169 84.7398C110.323 85.3809 111.612 85.7419 112.931 85.7936C114.054 85.8261 115.151 85.4518 116.019 84.7398C124.672 88.4269 129.187 84.8904 130.391 81.4295C133.479 81.6549 134.605 80.0746 134.755 78.3414C134.82 76.8512 134.358 75.3858 133.449 74.2025C132.541 73.0191 131.245 72.1935 129.789 71.8705C127.306 66.979 121.587 62.7654 113.009 63.593C108.043 64.0446 106.388 66.0009 105.786 68.2583C104.409 68.1559 103.027 68.1301 101.648 68.181C102.864 65.8304 103.653 63.2827 103.98 60.6563C104.108 59.4494 103.98 58.2289 103.604 57.0749C103.228 55.9209 102.612 54.8594 101.798 53.9599C102.776 52.3796 102.701 49.0685 102.4 42.748C106.237 41.0929 111.053 36.2014 110.15 27.3974C109.172 18.067 100.97 13.0258 98.4154 14.5312C97.0613 15.3588 98.9427 19.1208 95.6315 17.6192C89.8376 14.9851 91.343 7.38625 80.5071 6.93463C66.0498 5.43153 36.3282 16.7939 46.1852 32.9713C41.2946 34.2506 39.1121 38.1631 41.8211 44.4835C38.8103 46.4406 34.2122 44.8108 31.8884 41.7753C31.3033 41.0095 30.986 40.7215 30.3089 40.6466C26.9229 40.7972 25.6437 46.5911 24.8161 50.5036C23.2358 49.2244 22.8598 47.4928 22.4831 45.7635C22.0314 43.8821 21.5049 41.6248 18.8716 41.6248C14.2064 41.6248 10.5942 55.6205 10.4444 57.7273C10.1433 61.4893 17.4419 70.7449 26.0196 70.9703C30.8354 71.1209 33.9952 67.4337 37.6075 67.9595C34.4469 79.8484 36.102 91.8871 45.5831 97.0039C42.8741 97.8315 41.4451 99.9376 40.5419 102.346C40.1666 102.384 39.7885 102.384 39.4132 102.346C32.7168 102.497 27.0734 104.905 23.0852 109.193C12.1745 120.857 18.1189 140.947 30.5343 145.161C11.8734 144.258 11.949 143.656 11.4218 144.559C9.99277 146.891 27.7505 146.816 42.1978 146.666C53.5171 145.879 64.8704 145.703 76.2086 146.139C84.4104 146.439 91.7839 147.343 98.7064 147.569C107.36 147.794 122.484 146.591 134.147 145.989C138.812 145.614 140.301 145.037 139.264 144.334ZM132.793 77.1402C132.87 79.6986 132.04 79.6986 131.062 79.4732C131.36 77.7715 131.283 76.0251 130.836 74.3563C131.391 74.5893 131.869 74.9741 132.215 75.4666C132.561 75.959 132.762 76.5391 132.793 77.1402ZM107.51 80.6019C107.059 79.6986 106.758 78.6456 106.306 77.5138C107.209 77.5138 108.187 77.591 109.163 77.5138C109.163 80.151 111.547 82.3049 113.828 83.6127C111.648 84.3639 108.639 82.7836 107.51 80.6019ZM113.078 65.4026C119.249 64.8753 125.268 67.7348 127.901 72.0241C129.857 75.1839 130.309 82.3327 125.568 83.6868C125.715 82.3094 125.689 80.9191 125.491 79.5481C125.223 78.2619 124.663 78.2689 124.136 78.4194C123.309 78.6456 123.685 82.5581 123.233 84.0628C121.762 84.0648 120.297 83.888 118.869 83.5363C120.358 77.0877 117.59 77.1603 117.59 78.6456C117.548 80.1532 117.295 81.6474 116.838 83.0846C113.602 81.956 111.048 79.9248 110.971 77.2946C112.024 76.843 112.701 76.0146 112.852 74.2838C113.077 72.2518 112.25 69.6934 110.219 69.0164C109.492 68.7568 108.732 68.6047 107.961 68.5647C108.639 67.0578 109.542 65.7029 113.078 65.4026ZM110.971 73.9804C110.746 77.3664 106.156 74.2814 104.727 76.4631C104.528 76.7901 104.417 77.1623 104.404 77.5443C104.39 77.9264 104.475 78.3055 104.649 78.6456C108.262 87.5237 109.014 89.2553 111.347 93.9205C112.626 96.479 117.391 95.9154 119.021 97.0804C119.633 97.5181 120.075 98.6607 121.429 103.25C116.839 101.294 109.164 102.498 106.684 103.551C107.586 101.82 110.144 100.767 111.574 100.392C113.38 99.9399 113.38 98.8112 112.101 98.8112C109.167 98.8112 103.223 101.595 104.577 105.508C105.931 109.42 109.016 117.551 109.769 119.353C112.176 124.846 112.552 127.931 111.424 127.856C110.295 127.78 106.758 125.072 100.362 109.721C98.3312 104.906 98.2556 103.175 98.5567 102.348C99.084 100.542 102.394 99.4141 103.071 97.6069C103.975 95.0484 97.6542 80.0746 97.2041 79.0965C98.5582 77.5918 98.3328 73.6036 96.8274 70.5187C109.393 69.0889 111.423 71.4219 110.971 73.9804ZM109.393 113.032C114.133 110.624 121.128 112.041 124.293 115.741C130.765 123.321 125.798 137.562 115.261 137.186C112.014 137.283 108.86 136.098 106.481 133.887C104.101 131.677 102.687 128.619 102.544 125.374C102.45 123.611 102.706 121.847 103.297 120.183C106.758 126.653 109.318 129.663 111.648 129.588C116.797 129.316 111.114 117.857 109.393 113.032ZM97.5816 107.54C96.3024 108.593 92.9164 111.454 90.2831 113.635C93.2939 107.315 96.9802 100.242 97.5816 95.5765C97.9494 94.0849 98.0056 92.5335 97.7467 91.0192C97.4879 89.5049 96.9194 88.0603 96.077 86.7756C96.6784 86.5502 97.3562 86.324 97.8827 86.0986C101.495 95.805 101.645 96.3323 101.419 96.9337C100.365 98.514 97.4319 99.5678 96.9046 101.749C96.4491 102.799 96.3742 104.154 97.5816 107.54ZM89.8276 75.7861C90.4507 77.6752 90.6562 79.6771 90.4297 81.6533C89.08 82.4603 87.6715 83.1645 86.2161 83.7602C86.5921 81.353 85.5391 78.1924 84.4096 78.2673C83.8831 78.2673 83.7326 78.7946 83.8831 79.3211C84.6358 81.052 84.1093 83.0831 83.9603 84.5885C81.1039 85.491 78.3918 85.6415 76.5105 84.2874C79.1445 82.1799 80.7997 79.4717 78.7686 76.7627C77.5642 75.1075 75.608 75.1075 73.5761 75.7845C73.5999 73.8634 73.9301 71.9583 74.5542 70.1412C75.8272 67.2361 79.0689 65.3254 81.1757 64.5727C85.0133 64.3473 88.9259 64.5727 90.4313 65.7014C94.4195 68.635 97.716 74.6945 95.7736 77.7447C94.8002 78.7751 93.6853 79.662 92.4624 80.3788C92.5396 77.7447 91.3345 75.0357 90.5818 74.8852C89.9781 74.8072 89.6022 75.2596 89.8276 75.7861ZM69.2852 85.9442C68.0068 86.2452 66.8025 84.7398 67.1784 83.0877C67.4803 81.5831 73.0457 77.3695 75.9793 77.1433C77.5596 76.9927 78.3123 79.4014 77.6345 80.4544C76.6749 81.8761 75.4429 83.0933 74.0098 84.0356C72.5766 84.978 70.9708 85.6266 69.2852 85.9442ZM95.6215 80.5262C95.9817 81.166 96.2598 81.8487 96.4491 82.5581C96.683 83.123 96.8841 83.7009 97.0513 84.289C96.2237 84.5901 95.3204 85.0417 94.7939 85.2671C93.9816 84.382 93.0433 83.6214 92.0093 83.0098C93.4401 82.1065 94.6441 81.2787 95.6215 80.5262ZM101.643 62.4674C101.266 63.7466 100.288 66.8316 98.8585 68.1865C97.5044 68.2637 96.4506 68.4875 95.7705 68.5624C94.6292 66.8542 93.2054 65.3528 91.56 64.1226C89.6786 62.6936 84.7123 62.1671 79.5938 62.7685C73.8038 63.4456 70.2634 64.7248 67.5552 67.3589C49.948 70.4469 40.8437 61.4916 40.7665 61.4144C40.8352 60.3926 41.1729 59.4071 41.7454 58.558C42.3736 57.3827 42.5604 56.0214 42.2719 54.7203C41.3687 50.7321 43.0246 48.8531 44.0028 48.1745C51.6024 58.0315 64.847 61.4924 75.53 61.4924C87.7949 61.4152 96.7494 58.7834 100.587 55.3225C102.544 57.4262 102.318 60.0619 101.642 62.4674H101.643ZM47.8412 21.0075C53.0329 13.709 67.6301 8.21539 80.3473 8.74267C90.7308 8.96809 88.624 16.6434 94.9445 19.2767C97.6534 20.4054 99.6097 19.1995 99.4591 17.095C99.3819 15.5896 100.136 15.8158 100.813 16.1169C109.316 20.0294 111.573 35.8309 102.318 40.4212C101.791 29.0588 99.9857 26.576 98.2548 27.9301C93.1387 31.9183 79.7452 33.5735 67.4046 25.2212C66.4901 24.4203 65.3088 23.9909 64.0935 24.0176C56.0268 24.6692 48.2928 26.3498 46.4145 29.5853C45.9754 28.1423 45.8757 26.6173 46.1232 25.1293C46.3707 23.6414 46.9587 22.2308 47.8412 21.0075ZM43.0254 38.0133C43.2508 35.9065 46.4863 35.3792 48.292 34.5516C49.4207 34.0251 48.6688 32.6703 48.3692 32.2194C46.2624 29.1314 54.9908 26.8763 64.6215 25.9739C65.7242 26.7571 66.881 27.4611 68.0832 28.0807C66.428 28.4566 65.5248 28.6072 64.5467 29.3599C63.3431 30.2631 63.8696 31.391 64.8477 31.2413C67.0302 30.8645 70.715 30.0369 71.7703 29.9613C82.38 34.7022 92.0865 33.8746 98.708 29.9613C98.9669 30.5883 99.1439 31.2461 99.2345 31.9183C96.6432 31.9082 94.079 32.4465 91.7105 33.4979C87.1958 35.756 87.0453 44.4086 93.9679 44.7854C96.1602 44.9801 98.3696 44.8277 100.514 44.3337C100.617 46.3139 100.617 48.298 100.514 50.2782C100.233 53.1346 96.9023 58.3287 79.37 59.3107C73.9683 59.491 68.5692 58.8827 63.3431 57.505C54.0111 55.094 41.8967 47.4936 43.0254 38.0133ZM95.0193 42.9789C91.4079 43.3556 90.5803 41.0226 90.6552 39.518C90.8814 36.1319 92.6871 34.9276 95.1699 34.4011C94.9662 37.2556 94.9159 40.119 95.0193 42.9789ZM30.0827 42.3767C31.9641 44.5592 34.5974 46.666 37.6824 46.8922C38.9623 46.9694 41.3695 46.8922 42.6487 46.1395C42.7069 46.2742 42.7827 46.4006 42.8741 46.5154C42.1467 47.0386 41.5331 47.7042 41.0707 48.4717C35.2768 47.1925 31.89 53.2126 26.4728 51.2563C27.1483 47.9452 28.4275 43.1302 30.0827 42.3767ZM24.6655 68.8627C17.1385 67.8854 12.1745 60.139 12.2501 57.6524C12.3999 54.7188 16.3132 43.3556 18.7211 43.4305C19.7741 43.4305 20.1508 43.957 20.5268 46.0638C20.9784 48.9202 22.2576 51.2563 24.7404 52.5356C26.2492 53.2062 27.896 53.5081 29.5446 53.4164C31.1932 53.3247 32.7963 52.842 34.2214 52.0083C36.0048 50.7828 38.1624 50.2237 40.3164 50.4287C39.947 51.9906 39.9735 53.6199 40.3936 55.1689C40.5898 56.0062 40.4834 56.886 40.0933 57.6524C38.513 60.586 38.889 61.9409 39.265 62.5431C38.8133 63.6718 38.4374 64.8004 38.0614 66.004C33.2433 64.951 30.5343 69.6162 24.6655 68.8627ZM40.6924 63.8964C50.1734 71.2714 61.7605 70.2933 64.8485 69.6911C62.666 71.9484 63.1177 73.5287 64.6223 72.6247C65.3758 72.1731 70.0403 67.2068 73.5004 65.9276C74.454 65.6074 75.4365 65.3807 76.434 65.2505C73.4232 67.7333 71.3928 70.0663 71.7688 76.7627C68.9124 78.343 66.0498 80.9763 65.2978 82.5527C64.1691 85.0363 66.6519 88.0456 69.3609 87.7445C71.3056 87.4254 73.1557 86.6804 74.7788 85.5628C74.9624 85.7567 75.1637 85.933 75.3802 86.0893C72.2204 88.0456 67.7806 89.7764 63.7932 89.4753C57.3214 89.0237 52.8067 83.832 51.8271 82.6276C48.0651 82.6276 41.2174 82.4022 38.0575 78.7907C38.0254 73.7075 38.9183 68.6609 40.6924 63.8972V63.8964ZM39.1878 87.0721C38.6085 85.1906 38.2548 83.2469 38.134 81.282C41.8211 83.9161 47.4645 84.7429 51.001 84.5931C56.3433 89.8598 60.1061 91.2147 64.7713 91.2895C67.4803 91.3667 72.4458 90.3114 77.487 86.8497C78.1669 87.0661 78.8835 87.1431 79.5938 87.0759C82.6819 87.0759 86.5172 85.7218 89.9025 83.9879C100.061 89.0291 95.1699 98.8104 90.4297 108.819C89.9025 110.851 87.6459 113.409 87.0437 116.117C78.6914 117.021 69.8125 114.914 58.3752 109.27C59.5491 106.145 60.8801 103.081 62.3634 100.09C62.9648 98.8861 62.815 97.0796 60.4064 97.3058C50.0978 98.4352 41.7462 94.6725 39.1878 87.0728V87.0721ZM77.2616 123.19C70.715 121.309 62.9648 116.719 57.6225 112.881C57.5411 112.325 57.5927 111.758 57.7731 111.226C67.6301 116.042 80.2717 119.653 86.9681 118.223C87.7957 120.932 88.8494 122.663 87.1186 124.013C86.2161 124.696 84.3348 125.219 77.2616 123.19V123.19ZM79.5167 125.749C79.3661 138.014 62.5109 134.781 62.6614 124.921C65.2955 126.275 67.7783 127.103 68.6059 126.953C69.7345 126.727 71.0145 124.319 71.24 122.889C73.9306 124.03 76.6959 124.985 79.5167 125.749ZM39.1098 128.533C42.1978 128.611 43.9256 123.943 45.3553 119.428C49.6446 119.052 54.3106 119.052 56.4167 119.052C56.0407 119.955 55.965 120.858 56.6421 121.31C58.0101 122.284 59.4432 123.164 60.9314 123.943C60.8655 125.582 61.1212 127.218 61.6841 128.759C55.965 129.962 39.8625 131.693 35.7238 128.984C33.241 127.329 32.3377 121.535 36.0249 120.708C34.9718 126.125 35.3501 128.533 39.1121 128.533H39.1098ZM47.6883 112.054C48.2148 110.55 48.7414 109.198 49.2686 108.066C49.6558 107.589 50.1438 107.203 50.6976 106.937C51.8263 107.614 53.0221 109.253 53.7856 108.894C54.4565 108.578 54.7638 107.69 52.7326 105.961C54.6207 105.127 56.5537 104.398 58.5227 103.779C55.2864 111.078 55.122 113.584 56.3402 114.389C57.1585 114.929 57.9205 115.517 58.7481 116.119C58.3103 116.454 57.9071 116.832 57.5446 117.248C54.7128 117.248 51.0265 117.143 45.9567 117.549C46.3327 116.42 46.6338 115.216 47.0097 114.088C47.5363 114.614 48.289 115.291 48.7406 115.291C49.9488 115.215 49.1196 113.33 47.6907 112.054H47.6883ZM40.6152 109.198C41.9693 103.705 42.722 101.448 43.2485 100.771C44.1518 99.567 45.6564 98.6638 48.0643 97.9867C51.4503 99.1903 55.5891 99.6419 60.6303 99.1903C60.2543 100.019 59.8776 100.696 59.5765 101.448C54.9112 102.877 51.9768 104.006 50.0955 105.06C50.075 105.06 50.0553 105.068 50.0409 105.082C50.0264 105.097 50.0183 105.117 50.0183 105.137C48.1369 106.191 45.0519 111.458 43.1713 119.057C41.3648 126.356 39.7096 126.959 38.4304 126.582C36.5537 125.975 37.382 122.588 40.6175 109.195L40.6152 109.198ZM81.0969 144.262C74.1744 143.66 60.33 143.811 49.5689 144.185C53.2443 142.279 56.2405 139.283 58.1475 135.607C58.3729 135.157 59.3511 133.049 58.2973 132.898C57.7708 132.821 57.4697 133.275 55.8894 135.607C46.4114 150.354 20.0721 146.141 19.1719 125.673C18.4393 113.803 26.5932 104.003 39.7892 104.003C39.4394 105.404 38.7122 109.027 38.4351 109.722C19.473 110.55 20.9028 138.992 38.9623 138.842C42.9094 138.821 46.6909 137.254 49.4964 134.477C50.4745 133.499 49.948 132.747 49.342 132.597C48.8904 132.446 48.4387 133.423 46.0308 134.929C44.0262 136.205 41.7103 136.908 39.3344 136.961C23.6079 137.487 21.9527 112.957 37.9796 111.678C37.3782 114.236 36.8509 116.494 36.4 118.3C35.143 118.396 33.9675 118.959 33.1043 119.878C32.2412 120.797 31.7527 122.005 31.7348 123.266C31.2832 131.317 37.3797 132.309 44.7516 132.144C50.6537 131.921 56.5352 131.318 62.3596 130.338C63.9391 133.194 66.7986 135.53 71.8398 135.455C79.214 135.455 81.3965 129.36 81.3208 125.974C86.4377 127.102 88.695 125.824 89.2972 124.619C90.2005 122.739 89.447 119.804 88.5445 117.245L98.251 109.42V109.497C88.018 121.386 93.9625 139.897 106.679 145.241C98.1407 145.398 89.6004 145.07 81.0993 144.259L81.0969 144.262ZM99.1557 111.529C99.7579 112.883 102.167 117.85 102.167 117.85C96.8992 127.632 105.538 139.81 115.334 138.993C137.877 137.115 130.835 102.274 108.712 111.153C108.712 111.075 108.712 111.075 108.635 111.075C108.334 110.248 106.754 105.808 106.679 105.658C109.506 104.66 112.482 104.151 115.48 104.153C128.573 104.303 135.345 116.493 134.592 126.049C133.765 136.735 126.457 144.246 115.405 144.785C99.3634 145.569 88.6989 125.072 99.1581 111.528L99.1557 111.529Z" fill="#B9B9B9"/>
<path d="M117.367 130.264C118.496 131.167 120.533 132.166 121.581 132.07C122.26 132.008 123.086 131.091 118.493 129.21C117.217 128.684 116.239 129.361 117.367 130.264Z" fill="#B9B9B9"/>
<path d="M30.8357 132.295C31.7389 133.274 33.469 131.392 32.8676 130.49C32.2662 129.587 29.9324 131.318 30.8357 132.295Z" fill="#B9B9B9"/>
<path d="M118.194 122.363C119.775 122.213 122.709 120.558 122.408 119.204C122.107 117.85 118.797 120.031 117.668 121.385C117.217 121.912 117.368 122.441 118.194 122.363Z" fill="#B9B9B9"/>
<path d="M39.5642 133.8C39.5642 134.929 39.487 136.208 40.5423 136.133C41.5961 136.133 41.295 134.477 40.9939 133.575C40.6929 132.747 39.5642 132.672 39.5642 133.8Z" fill="#B9B9B9"/>
<path d="M80.4969 40.3457C87.0435 39.593 82.6794 44.1834 85.3884 44.1834C86.3657 44.1834 87.1184 41.327 85.5428 39.3676C84.3384 37.9378 81.8556 38.1633 80.6513 38.4651C79.447 38.767 79.3682 40.4963 80.4969 40.3457Z" fill="#B9B9B9"/>
<path d="M44.9822 127.705C45.8847 128.307 46.713 128.758 47.5398 128.608C48.3667 128.457 47.2472 127.087 46.3363 126.651C44.5452 125.793 44.1546 127.178 44.9822 127.705Z" fill="#B9B9B9"/>
<path d="M30.9108 124.169C31.0652 123.717 30.988 122.965 28.804 122.889C27.3742 122.812 27.3742 124.244 28.2775 124.395C29.8578 124.771 30.761 124.47 30.9108 124.169Z" fill="#B9B9B9"/>
<path d="M52.0548 128.608C53.4846 128.686 53.5595 123.492 52.9573 121.008C52.8068 120.407 51.1516 119.353 51.4527 122.212C51.7537 124.771 50.9261 128.534 52.0548 128.608Z" fill="#B9B9B9"/>
<path d="M46.9382 122.588C48.2174 122.437 48.9694 121.911 49.045 121.535C49.1956 120.858 47.8361 120.904 46.4117 121.159C45.2784 121.359 45.5833 122.739 46.9382 122.588Z" fill="#B9B9B9"/>
<path d="M58.9814 45.1622C61.7236 47.2188 73.577 46.612 75.6861 44.6357C78.1689 42.3026 77.4617 34.852 74.1058 33.4987C71.4478 32.4279 64.062 32.3715 60.1101 34.327C56.3049 36.2069 55.739 42.6786 58.9814 45.1622ZM59.1358 38.2396C60.0383 35.6055 63.6505 34.703 67.3369 34.6274C66.6871 37.8972 66.3846 41.2266 66.4344 44.56C63.7254 44.6372 61.0921 44.4828 60.1888 43.6575C58.3754 42.0008 58.6765 39.5929 59.1281 38.2388L59.1358 38.2396Z" fill="#B9B9B9"/>
<path d="M74.7035 48.1731C73.8759 47.2698 72.5967 48.3985 73.2738 49.4523C74.4024 51.1075 77.1871 52.6121 81.6261 52.4631C84.2594 52.3859 86.9684 52.2377 87.4162 50.8079C87.5706 50.2814 86.814 49.9803 86.2875 50.0552C84.41 50.4289 76.2089 50.8048 74.7035 48.1731Z" fill="#B9B9B9"/>
<path d="M33.4686 118.375C34.2213 118.224 33.9619 117.634 33.3188 115.816C32.8417 114.471 31.588 115.139 31.9639 116.268C32.3399 117.396 32.7167 118.525 33.4686 118.375Z" fill="#B9B9B9"/>
<path d="M87.4955 20.1801C87.6537 20.6287 88.2474 20.5561 88.4736 20.2573C89.6772 18.3011 86.2911 12.8082 83.8832 13.185C83.3567 13.2622 83.1305 13.7864 83.9604 14.5391C85.5696 16.1124 86.7813 18.046 87.4955 20.1801Z" fill="#B9B9B9"/>
<path d="M74.3273 14.5371C76.9606 15.6658 79.2952 18.1903 80.8739 21.9114C80.9363 22.0975 81.0588 22.2577 81.2222 22.3666C81.3856 22.4754 81.5805 22.5269 81.7764 22.5128C82.8302 22.1368 82.1068 18.567 79.8958 16.1174C78.3587 14.419 76.509 13.3328 74.9287 13.1838C73.7267 13.0317 73.1986 14.0855 74.3273 14.5371Z" fill="#B9B9B9"/>
<path d="M64.0938 18.0724C66.0937 18.4449 68.0005 19.2083 69.7049 20.3188C71.4093 21.4294 72.8778 22.8652 74.0265 24.5441C74.553 25.3717 75.7573 24.9201 75.2308 23.7166C73.124 18.4491 68.7591 16.3423 64.5455 16.5678C63.3419 16.6434 62.8903 17.847 64.0938 18.0724Z" fill="#B9B9B9"/>
</svg>
