<svg width="155" height="155" viewBox="0 0 155 155" fill="none" xmlns="http://www.w3.org/2000/svg">
<path d="M13.9055 63.8256C13.9055 63.8256 16.572 62.2445 16.464 59.5363C16.2323 53.7393 17.8937 47.1966 21.6557 46.4438C21.7329 48.4001 21.9568 50.0553 24.6665 52.4655C22.2579 59.8374 25.945 77.1435 13.9055 63.8256Z" fill="#615FFF"/>
<path d="M30.0081 69.6196C30.0081 69.6196 32.2677 63.8998 31.1367 61.0411C30.0425 58.1083 30.1507 54.862 31.4378 52.0086C33.5446 50.128 38.5109 49.8269 40.9188 49.8269C40.4517 51.1669 40.4517 52.6256 40.9188 53.9656C41.7464 55.8462 40.6926 58.7806 40.3167 59.609C39.9407 60.4374 40.2395 62.6198 40.2395 62.6198L38.5843 67.2851C38.5843 67.2851 35.4252 66.459 30.0081 69.6196Z" fill="#615FFF"/>
<path d="M29.4059 52.8396C29.4059 52.8396 32.1897 47.1963 32.7919 44.4116C36.0274 45.6908 37.3066 46.669 38.7364 46.293C40.1661 45.917 38.582 50.9582 38.582 50.9582L29.4059 52.8396Z" fill="#615FFF"/>
<path d="M44.2289 65.1797C49.7217 62.9223 46.3357 55.0216 49.5712 52.5388C51.6031 54.1191 57.6224 57.58 60.8579 58.4061C57.4719 61.4941 61.535 64.7265 58.7511 68.7903C58.7496 68.7919 48.593 68.5657 44.2289 65.1797Z" fill="#615FFF"/>
<path d="M67.1792 68.5661C69.0598 65.4062 67.4795 63.2238 70.8655 60.3643C75.4621 60.6105 80.0715 60.4343 84.6358 59.8378C86.8175 59.3861 87.4197 64.2019 87.4197 64.2019C82.9806 62.8478 72.0699 63.8259 67.1792 68.5661Z" fill="#615FFF"/>
<path d="M94.7941 68.19C94.7941 68.19 96.826 65.3336 96.4492 62.2456C96.0725 59.1576 95.3206 58.9345 95.6217 57.4298C97.4612 56.428 99.1783 55.216 100.739 53.8184C105.328 58.5585 102.319 65.5529 100.512 69.5441L95.8471 69.9958L94.7941 68.19Z" fill="#615FFF"/>
<path d="M51.6782 98.0616C50.3118 98.555 46.4641 99.8488 44.5302 102.2C42.6264 104.516 39.1879 132.072 36.9306 121.237C36.9306 121.237 35.649 126.283 37.6076 127.407C38.6599 128.012 39.7901 128.236 41.2191 126.655C42.6481 125.075 46.5621 113.262 48.5184 107.392C51.0768 104.759 60.1811 102.877 60.1811 102.877L61.7606 98.2122C61.6834 98.2122 53.0215 97.5807 51.6782 98.0616ZM105.705 104.984C110.385 103.448 115.366 103.061 120.227 103.856C120.227 103.856 119.242 99.0544 118.045 98.5133C115.775 97.4873 110.546 98.0501 109.542 96.2559C108.735 94.8146 104.2 84.2165 103.447 82.0348C100.591 73.7565 111.047 78.9467 111.649 75.1871C111.799 74.8073 111.821 74.3892 111.712 73.9957C111.604 73.6022 111.37 73.2547 111.047 73.0054C109.768 72.1778 96.4492 72.4032 97.1263 73.833C97.3725 74.7974 97.4194 75.8019 97.2643 76.7851C97.1091 77.7683 96.7551 78.7095 96.2238 79.5512L98.4055 85.1197C98.4055 85.1197 96.0733 85.8724 94.2675 86.4738C101.792 92.4183 88.7747 114.992 88.3231 116.35C88.3231 116.35 93.6654 112.437 98.8571 108.45C101.114 114.77 107.284 127.487 111.875 128.615C114.886 127.788 92.0102 99.2698 108.263 100.323C106.228 102.803 105.554 104.006 105.705 104.984Z" fill="#615FFF"/>
<path d="M34.5229 98.6616C30.4598 98.8252 18.3447 98.6616 11.4978 98.0594C11.2984 98.0389 11.1153 97.9404 10.9885 97.7853C10.8616 97.6302 10.8013 97.4312 10.8207 97.2318C10.7435 95.9526 13.5305 96.4421 22.5591 96.7802C27.977 96.984 30.7655 96.7995 33.6953 97.0813C35.6554 97.272 36.2537 98.5944 34.5229 98.6616Z" fill="#615FFF"/>
<path d="M27.9763 78.7238C21.5802 78.7238 15.6434 78.0089 8.11175 78.1973C7.66012 78.2089 6.75996 77.3018 7.95734 76.9181C11.4252 75.811 20.599 76.8208 22.1036 76.8409C24.6628 76.8779 28.8973 76.7498 29.7032 77.819C30.3239 78.6373 28.6533 78.7238 27.9763 78.7238Z" fill="#615FFF"/>
<path d="M133.846 95.3527C131.737 95.1535 124.14 96.0305 123.537 94.0742C123.546 93.975 123.575 93.8784 123.621 93.7903C123.668 93.7022 123.731 93.6243 123.809 93.5612C123.886 93.498 123.975 93.4509 124.07 93.4226C124.166 93.3943 124.266 93.3854 124.365 93.3964C132.341 94.224 140.693 93.5099 147.541 93.5469C148.519 93.5523 151.227 94.9366 147.463 95.0524C143.777 95.1643 138.431 95.7865 133.846 95.3527Z" fill="#615FFF"/>
<path d="M138.961 71.5004C136.403 71.5004 133.269 71.7922 132.791 70.5222C132.649 70.1432 133.167 69.6946 133.844 69.6946C134.521 69.6946 144.232 69.568 148.517 69.8452C149.497 69.9085 150.85 71.3498 148.367 71.3498C145.96 71.5004 141.596 71.5004 138.961 71.5004Z" fill="#615FFF"/>
<path d="M118.422 51.7859C118.422 49.9045 118.212 40.8752 118.195 35.9088C118.158 24.7726 117.671 19.4334 119.625 17.9257C121.961 16.1231 128.58 16.4226 139.339 16.9476C140.694 17.0132 140.469 18.4144 138.587 18.4522C136.33 18.4978 132.417 18.2638 129.181 18.2978C123.764 18.3611 121.356 18.375 120.453 19.7276C119.55 21.0801 119.848 30.0362 119.926 37.4837C119.998 44.3314 119.95 48.6964 120.003 50.9529C120.039 52.6151 118.422 53.6673 118.422 51.7859Z" fill="#615FFF"/>
<path d="M131.589 56.2256C129.857 56.5205 130.759 41.6269 131.062 39.8968C131.511 37.3384 136.413 38.2339 139.039 37.8657C139.247 37.8505 139.44 37.756 139.58 37.6018C139.72 37.4476 139.796 37.2455 139.791 37.0373C140.223 30.9879 137.598 27.3409 149.197 28.309C150.928 28.4542 151.153 29.7388 148.896 29.7388C142.425 29.7388 141.829 30.1178 141.597 30.642C140.791 32.4578 141.601 37.7939 140.694 38.9187C139.721 40.1261 133.477 38.6956 132.868 40.2736C132.199 42.0067 132.267 51.7858 132.342 55.3972C132.417 55.8488 132.041 56.1484 131.589 56.2256Z" fill="#615FFF"/>
<path d="M3.89769 48.4039C3.82049 45.4702 3.72321 36.8755 4.87582 35.1609C6.2029 33.1861 8.40853 33.9195 13.4536 33.806C14.0558 33.7929 14.722 33.806 14.7328 33.2046C14.81 28.913 14.2974 25.6127 15.1844 23.7984C16.0275 22.0753 18.9464 21.3157 26.6217 21.3157C30.0077 21.3157 29.255 22.8921 28.202 22.8203C25.8698 22.6621 17.6525 22.9616 16.7647 24.3257C16.229 25.1471 16.4258 28.0121 16.388 34.1071C16.3726 36.6655 8.03256 34.7054 6.75643 35.763C5.39924 36.8832 5.40387 46.7448 5.55287 48.776C5.55287 50.8828 3.97257 51.3375 3.89769 48.4039Z" fill="#615FFF"/>
<path d="M29.5563 35.0065C29.5185 31.1681 29.8574 28.385 30.8355 27.4069C31.9642 26.2782 36.78 26.2265 39.5638 26.3531C41.595 26.4457 40.5419 27.8369 39.5638 27.8585C37.8322 27.8955 32.9246 27.6879 31.9642 28.6104C31.1204 29.4218 30.9498 33.5767 30.986 35.6836C31.0239 37.8668 29.5733 36.7373 29.5563 35.0065Z" fill="#615FFF"/>
<path d="M112.1 132.374C111.705 133.345 111.274 136.157 112.401 136.061C113.154 135.998 113.605 133.577 113.605 132.524C113.53 131.472 112.531 131.312 112.1 132.374Z" fill="#001434"/>
<path d="M115.637 114.767C115.637 113.714 114.509 113.638 114.057 114.69C113.53 116.044 113.078 119.129 113.903 119.129C114.727 119.129 115.637 116.418 115.637 114.767Z" fill="#001434"/>
<path d="M105.555 131.094C106.382 131.395 108.643 129.815 108.264 129.138C107.664 128.34 103.689 130.348 105.555 131.094Z" fill="#001434"/>
<path d="M139.264 144.488C138.728 144.125 137.684 144.037 125.72 144.488C140.465 136.587 140.542 111.079 123.613 104.157C120.679 94.0744 121.506 95.6539 114.207 93.8482C113.078 93.5471 112.673 92.3597 112.025 91.1392C111.394 89.9503 110.445 87.8288 109.169 84.8936C110.323 85.5347 111.612 85.8957 112.931 85.9474C114.054 85.9799 115.151 85.6056 116.02 84.8936C124.672 88.5807 129.187 85.0442 130.391 81.5833C133.479 81.8087 134.605 80.2284 134.755 78.4952C134.82 77.005 134.358 75.5396 133.449 74.3563C132.541 73.1729 131.245 72.3473 129.789 72.0243C127.306 67.1328 121.587 62.9192 113.009 63.7468C108.043 64.1984 106.388 66.1547 105.786 68.4121C104.409 68.3097 103.028 68.2839 101.648 68.3349C102.864 65.9842 103.654 63.4365 103.98 60.8101C104.108 59.6032 103.98 58.3827 103.604 57.2287C103.228 56.0747 102.612 55.0132 101.798 54.1137C102.776 52.5334 102.701 49.2223 102.4 42.9019C106.237 41.2467 111.053 36.3552 110.15 27.5513C109.172 18.2208 100.97 13.1796 98.4154 14.685C97.0613 15.5126 98.9427 19.2746 95.6316 17.773C89.8376 15.1389 91.3431 7.54006 80.5072 7.08844C66.0498 5.58534 36.3283 16.9477 46.1853 33.1252C41.2946 34.4044 39.1121 38.3169 41.8211 44.6373C38.8103 46.5944 34.2122 44.9647 31.8885 41.9291C31.3033 41.1633 30.986 40.8753 30.3089 40.8004C26.9229 40.951 25.6437 46.7449 24.8161 50.6574C23.2358 49.3782 22.8598 47.6466 22.4831 45.9173C22.0315 44.0359 21.505 41.7786 18.8717 41.7786C14.2064 41.7786 10.5942 55.7743 10.4444 57.8811C10.1433 61.6431 17.4419 70.8987 26.0197 71.1241C30.8354 71.2747 33.9953 67.5876 37.6075 68.1133C34.4469 80.0022 36.1021 92.0409 45.5831 97.1577C42.8741 97.9853 41.4451 100.091 40.5419 102.5C40.1666 102.538 39.7885 102.538 39.4132 102.5C32.7168 102.651 27.0735 105.058 23.0853 109.347C12.1745 121.01 18.1189 141.101 30.5344 145.315C11.8734 144.412 11.9491 143.809 11.4218 144.713C9.9928 147.045 27.7505 146.97 42.1979 146.819C53.5171 146.033 64.8705 145.857 76.2086 146.293C84.4104 146.593 91.7839 147.496 98.7065 147.723C107.36 147.948 122.484 146.745 134.147 146.142C138.812 145.768 140.301 145.191 139.264 144.488ZM132.793 77.294C132.87 79.8524 132.04 79.8524 131.062 79.627C131.36 77.9253 131.283 76.179 130.836 74.5101C131.391 74.7431 131.869 75.1279 132.215 75.6204C132.561 76.1128 132.762 76.6929 132.793 77.294ZM107.51 80.7557C107.059 79.8524 106.758 78.7994 106.306 77.6677C107.209 77.6677 108.187 77.7449 109.163 77.6677C109.163 80.3048 111.547 82.4587 113.828 83.7665C111.648 84.5177 108.639 82.9374 107.51 80.7557ZM113.078 65.5564C119.249 65.0291 125.268 67.8886 127.901 72.1779C129.857 75.3377 130.309 82.4865 125.568 83.8406C125.715 82.4632 125.689 81.0729 125.491 79.7019C125.223 78.4157 124.663 78.4227 124.136 78.5732C123.309 78.7994 123.685 82.7119 123.233 84.2166C121.762 84.2186 120.297 84.0418 118.869 83.6901C120.358 77.2415 117.591 77.3141 117.591 78.7994C117.548 80.307 117.295 81.8012 116.838 83.2385C113.602 82.1098 111.048 80.0786 110.971 77.4484C112.024 76.9968 112.701 76.1684 112.852 74.4376C113.077 72.4057 112.25 69.8472 110.219 69.1702C109.492 68.9106 108.732 68.7585 107.961 68.7185C108.639 67.2116 109.542 65.8567 113.078 65.5564ZM110.971 74.1342C110.746 77.5202 106.156 74.4353 104.727 76.617C104.528 76.9439 104.417 77.3161 104.404 77.6981C104.39 78.0802 104.475 78.4593 104.649 78.7994C108.262 87.6775 109.014 89.4091 111.347 94.0743C112.626 96.6328 117.391 96.0692 119.021 97.2342C119.633 97.6719 120.075 98.8145 121.429 103.404C116.839 101.448 109.164 102.652 106.684 103.705C107.586 101.974 110.145 100.921 111.574 100.545C113.38 100.094 113.38 98.965 112.101 98.965C109.167 98.965 103.223 101.749 104.577 105.661C105.931 109.574 109.016 117.705 109.769 119.507C112.176 125 112.552 128.085 111.424 128.009C110.295 127.934 106.759 125.226 100.362 109.875C98.3313 105.06 98.2556 103.329 98.5567 102.502C99.084 100.696 102.394 99.568 103.071 97.7607C103.975 95.2023 97.6542 80.2284 97.2041 79.2503C98.5582 77.7456 98.3328 73.7574 96.8274 70.6725C109.393 69.2427 111.423 71.5757 110.971 74.1342ZM109.393 113.186C114.133 110.778 121.128 112.195 124.293 115.895C130.765 123.475 125.798 137.716 115.261 137.34C112.014 137.436 108.86 136.251 106.481 134.041C104.101 131.831 102.687 128.773 102.544 125.528C102.45 123.765 102.706 122.001 103.297 120.336C106.758 126.807 109.318 129.817 111.648 129.742C116.797 129.469 111.114 118.01 109.393 113.186ZM97.5817 107.694C96.3024 108.747 92.9164 111.607 90.2831 113.789C93.2939 107.469 96.9803 100.396 97.5817 95.7303C97.9495 94.2387 98.0057 92.6873 97.7468 91.173C97.4879 89.6587 96.9195 88.2141 96.077 86.9294C96.6784 86.704 97.3562 86.4778 97.8827 86.2524C101.495 95.9588 101.646 96.4861 101.419 97.0875C100.366 98.6678 97.4319 99.7216 96.9046 101.903C96.4491 102.953 96.3742 104.307 97.5817 107.694ZM89.8276 75.9399C90.4508 77.829 90.6562 79.8309 90.4298 81.8072C89.0801 82.6141 87.6715 83.3183 86.2162 83.914C86.5921 81.5068 85.5391 78.3463 84.4097 78.4211C83.8832 78.4211 83.7326 78.9484 83.8832 79.4749C84.6359 81.2058 84.1094 83.2369 83.9604 84.7423C81.1039 85.6448 78.3919 85.7953 76.5105 84.4412C79.1446 82.3337 80.7998 79.6255 78.7686 76.9165C77.5643 75.2613 75.608 75.2613 73.5761 75.9384C73.6 74.0172 73.9301 72.1121 74.5542 70.295C75.8273 67.3899 79.0689 65.4792 81.1757 64.7265C85.0134 64.5011 88.9259 64.7265 90.4313 65.8552C94.4195 68.7888 97.716 74.8483 95.7736 77.8985C94.8002 78.9289 93.6854 79.8158 92.4625 80.5326C92.5397 77.8985 91.3346 75.1895 90.5819 75.039C89.9782 74.961 89.6022 75.4134 89.8276 75.9399ZM69.2853 86.098C68.0068 86.3991 66.8025 84.8936 67.1785 83.2415C67.4803 81.7369 73.0457 77.5233 75.9793 77.2971C77.5596 77.1466 78.3123 79.5552 77.6345 80.6082C76.675 82.0299 75.443 83.2471 74.0098 84.1894C72.5767 85.1318 70.9708 85.7805 69.2853 86.098ZM95.6215 80.68C95.9818 81.3198 96.2598 82.0025 96.4491 82.712C96.6831 83.2768 96.8841 83.8547 97.0513 84.4428C96.2237 84.7439 95.3204 85.1955 94.7939 85.4209C93.9816 84.5358 93.0433 83.7752 92.0093 83.1636C93.4401 82.2603 94.6442 81.4325 95.6215 80.68ZM101.643 62.6212C101.266 63.9004 100.288 66.9854 98.8586 68.3403C97.5045 68.4175 96.4507 68.6413 95.7705 68.7162C94.6293 67.008 93.2054 65.5066 91.56 64.2764C89.6786 62.8474 84.7123 62.3209 79.5939 62.9223C73.8038 63.5994 70.2634 64.8786 67.5552 67.5127C49.948 70.6007 40.8438 61.6454 40.7665 61.5682C40.8352 60.5464 41.173 59.5609 41.7455 58.7118C42.3736 57.5365 42.5604 56.1752 42.272 54.8741C41.3687 50.8859 43.0247 49.0069 44.0028 48.3283C51.6024 58.1853 64.847 61.6462 75.53 61.6462C87.7949 61.569 96.7494 58.9372 100.587 55.4763C102.544 57.58 102.318 60.2157 101.642 62.6212H101.643ZM47.8412 21.1614C53.033 13.8628 67.6301 8.3692 80.3474 8.89648C90.7309 9.1219 88.6241 16.7972 94.9445 19.4305C97.6535 20.5592 99.6097 19.3533 99.4592 17.2488C99.382 15.7434 100.136 15.9696 100.813 16.2707C109.316 20.1832 111.574 35.9847 102.318 40.575C101.791 29.2126 99.9857 26.7298 98.2548 28.0839C93.1388 32.0721 79.7452 33.7273 67.4047 25.375C66.4901 24.5741 65.3089 24.1447 64.0935 24.1714C56.0268 24.823 48.2928 26.5036 46.4146 29.7391C45.9755 28.2961 45.8758 26.7711 46.1233 25.2831C46.3707 23.7952 46.9587 22.3846 47.8412 21.1614ZM43.0254 38.1671C43.2509 36.0603 46.4864 35.533 48.2921 34.7055C49.4208 34.1789 48.6688 32.8241 48.3693 32.3732C46.2625 29.2852 54.9908 27.0302 64.6216 26.1277C65.7242 26.9109 66.881 27.6149 68.0833 28.2345C66.4281 28.6105 65.5248 28.761 64.5467 29.5137C63.3431 30.4169 63.8696 31.5449 64.8478 31.3951C67.0302 31.0183 70.715 30.1908 71.7704 30.1151C82.3801 34.856 92.0865 34.0284 98.708 30.1151C98.9669 30.7421 99.1439 31.3999 99.2345 32.0721C96.6432 32.062 94.079 32.6003 91.7105 33.6517C87.1958 35.9098 87.0453 44.5624 93.9679 44.9392C96.1603 45.1339 98.3696 44.9815 100.515 44.4876C100.617 46.4677 100.617 48.4519 100.515 50.432C100.234 53.2884 96.9023 58.4825 79.37 59.4645C73.9683 59.6448 68.5693 59.0365 63.3431 57.6588C54.0111 55.2478 41.8968 47.6474 43.0254 38.1671ZM95.0194 43.1327C91.4079 43.5094 90.5803 41.1764 90.6552 39.6718C90.8814 36.2857 92.6871 35.0814 95.1699 34.5549C94.9662 37.4094 94.9159 40.2728 95.0194 43.1327ZM30.0827 42.5305C31.9641 44.713 34.5974 46.8198 37.6824 47.046C38.9624 47.1232 41.3695 47.046 42.6487 46.2933C42.7069 46.428 42.7827 46.5544 42.8741 46.6692C42.1467 47.1925 41.5331 47.858 41.0707 48.6255C35.2768 47.3463 31.89 53.3664 26.4728 51.4101C27.1483 48.099 28.4276 43.284 30.0827 42.5305ZM24.6656 69.0165C17.1385 68.0392 12.1745 60.2929 12.2501 57.8062C12.3999 54.8726 16.3132 43.5094 18.7211 43.5843C19.7741 43.5843 20.1509 44.1108 20.5268 46.2176C20.9785 49.074 22.2577 51.4101 24.7405 52.6894C26.2493 53.36 27.896 53.6619 29.5446 53.5702C31.1932 53.4785 32.7963 52.9959 34.2215 52.1621C36.0048 50.9366 38.1624 50.3775 40.3165 50.5826C39.947 52.1444 39.9735 53.7737 40.3937 55.3227C40.5898 56.16 40.4835 57.0398 40.0934 57.8062C38.5131 60.7399 38.889 62.0947 39.265 62.6969C38.8134 63.8256 38.4374 64.9542 38.0614 66.1578C33.2433 65.1048 30.5344 69.77 24.6656 69.0165ZM40.6924 64.0502C50.1735 71.4252 61.7605 70.4471 64.8485 69.8449C62.6661 72.1023 63.1177 73.6826 64.6223 72.7785C65.3758 72.3269 70.0403 67.3606 73.5004 66.0814C74.4541 65.7612 75.4366 65.5345 76.4341 65.4043C73.4232 67.8871 71.3928 70.2201 71.7688 76.9165C68.9124 78.4968 66.0498 81.1301 65.2979 82.7065C64.1692 85.1901 66.652 88.1994 69.3609 87.8983C71.3056 87.5793 73.1558 86.8343 74.7789 85.7166C74.9624 85.9105 75.1638 86.0868 75.3803 86.2431C72.2204 88.1994 67.7806 89.9302 63.7932 89.6291C57.3215 89.1775 52.8068 83.9858 51.8271 82.7814C48.0651 82.7814 41.2174 82.556 38.0576 78.9446C38.0255 73.8613 38.9183 68.8147 40.6924 64.051V64.0502ZM39.1878 87.2259C38.6086 85.3444 38.2548 83.4008 38.134 81.4358C41.8211 84.0699 47.4645 84.8967 51.0011 84.747C56.3433 90.0136 60.1061 91.3685 64.7713 91.4434C67.4803 91.5206 72.4459 90.4652 77.4871 87.0035C78.167 87.2199 78.8835 87.2969 79.5939 87.2297C82.6819 87.2297 86.5172 85.8756 89.9025 84.1417C100.061 89.1829 95.1699 98.9642 90.4298 108.973C89.9025 111.004 87.6459 113.563 87.0438 116.271C78.6914 117.174 69.8125 115.068 58.3753 109.424C59.5491 106.299 60.8802 103.235 62.3635 100.244C62.9648 99.0399 62.8151 97.2334 60.4064 97.4596C50.0978 98.589 41.7462 94.8263 39.1878 87.2266V87.2259ZM77.2617 123.343C70.715 121.463 62.9648 116.872 57.6226 113.035C57.5411 112.479 57.5927 111.912 57.7731 111.38C67.6301 116.195 80.2717 119.807 86.9681 118.377C87.7957 121.086 88.8495 122.817 87.1186 124.167C86.2162 124.85 84.3348 125.373 77.2617 123.344V123.343ZM79.5167 125.903C79.3661 138.168 62.5109 134.935 62.6614 125.075C65.2955 126.429 67.7783 127.257 68.6059 127.107C69.7346 126.881 71.0146 124.473 71.24 123.043C73.9306 124.184 76.6959 125.139 79.5167 125.903ZM39.1098 128.687C42.1979 128.764 43.9256 124.097 45.3554 119.582C49.6446 119.206 54.3106 119.206 56.4167 119.206C56.0407 120.109 55.9651 121.012 56.6421 121.464C58.0102 122.438 59.4433 123.318 60.9314 124.097C60.8655 125.736 61.1212 127.372 61.6841 128.913C55.9651 130.116 39.8625 131.846 35.7238 129.138C33.241 127.483 32.3378 121.689 36.0249 120.861C34.9719 126.279 35.3501 128.687 39.1121 128.687H39.1098ZM47.6884 112.208C48.2149 110.703 48.7414 109.352 49.2687 108.22C49.6558 107.743 50.1438 107.357 50.6976 107.091C51.8263 107.768 53.0222 109.407 53.7857 109.048C54.4566 108.732 54.7638 107.844 52.7327 106.115C54.6207 105.281 56.5537 104.552 58.5227 103.933C55.2865 111.231 55.122 113.737 56.3402 114.543C57.1586 115.083 57.9206 115.671 58.7481 116.273C58.3103 116.608 57.9071 116.986 57.5446 117.401C54.7129 117.401 51.0265 117.297 45.9568 117.702C46.3327 116.574 46.6338 115.37 47.0098 114.242C47.5363 114.768 48.289 115.445 48.7406 115.445C49.9488 115.369 49.1197 113.484 47.6907 112.208H47.6884ZM40.6152 109.352C41.9693 103.859 42.722 101.601 43.2486 100.924C44.1518 99.7208 45.6564 98.8176 48.0643 98.1405C51.4504 99.3441 55.5891 99.7957 60.6303 99.3441C60.2543 100.172 59.8776 100.849 59.5765 101.601C54.9113 103.031 51.9769 104.16 50.0955 105.214C50.075 105.214 50.0554 105.222 50.0409 105.236C50.0264 105.251 50.0183 105.27 50.0183 105.291C48.1369 106.345 45.052 111.612 43.1714 119.211C41.3649 126.51 39.7097 127.112 38.4305 126.736C36.5537 126.129 37.3821 122.742 40.6176 109.349L40.6152 109.352ZM81.097 144.416C74.1744 143.814 60.33 143.965 49.569 144.339C53.2443 142.432 56.2406 139.436 58.1475 135.761C58.3729 135.31 59.3511 133.203 58.2973 133.052C57.7708 132.975 57.4697 133.429 55.8894 135.761C46.4115 150.508 20.0721 146.294 19.172 125.827C18.4393 113.957 26.5933 104.157 39.7892 104.157C39.4395 105.558 38.7122 109.181 38.4351 109.876C19.473 110.703 20.9028 139.146 38.9624 138.996C42.9094 138.974 46.6909 137.407 49.4964 134.631C50.4745 133.653 49.948 132.901 49.342 132.75C48.8904 132.6 48.4388 133.577 46.0309 135.083C44.0262 136.359 41.7103 137.062 39.3345 137.115C23.6079 137.641 21.9527 113.111 37.9796 111.832C37.3782 114.39 36.8509 116.648 36.4001 118.454C35.1431 118.55 33.9675 119.113 33.1044 120.032C32.2412 120.951 31.7527 122.159 31.7348 123.42C31.2832 131.47 37.3798 132.463 44.7516 132.298C50.6537 132.075 56.5352 131.472 62.3596 130.491C63.9391 133.348 66.7986 135.684 71.8398 135.608C79.2141 135.608 81.3965 129.514 81.3209 126.128C86.4377 127.256 88.6951 125.978 89.2972 124.773C90.2005 122.893 89.447 119.957 88.5445 117.399L98.251 109.574V109.651C88.018 121.54 93.9625 140.05 106.679 145.395C98.1407 145.552 89.6004 145.224 81.0993 144.413L81.097 144.416ZM99.1558 111.683C99.7579 113.037 102.167 118.003 102.167 118.003C96.8992 127.786 105.538 139.964 115.334 139.147C137.877 137.269 130.835 102.427 108.712 111.306C108.712 111.229 108.712 111.229 108.635 111.229C108.334 110.402 106.754 105.962 106.679 105.812C109.506 104.814 112.482 104.304 115.48 104.307C128.573 104.457 135.345 116.647 134.592 126.203C133.765 136.888 126.457 144.4 115.405 144.939C99.3634 145.722 88.6989 125.226 99.1581 111.682L99.1558 111.683Z" fill="#001434"/>
<path d="M117.367 130.418C118.496 131.321 120.533 132.32 121.581 132.224C122.26 132.162 123.086 131.245 118.493 129.364C117.217 128.837 116.239 129.514 117.367 130.418Z" fill="#001434"/>
<path d="M30.8357 132.449C31.7389 133.427 33.469 131.546 32.8676 130.644C32.2662 129.741 29.9324 131.472 30.8357 132.449Z" fill="#001434"/>
<path d="M118.194 122.517C119.775 122.367 122.709 120.712 122.408 119.357C122.107 118.003 118.797 120.185 117.668 121.539C117.217 122.066 117.368 122.594 118.194 122.517Z" fill="#001434"/>
<path d="M39.5641 133.954C39.5641 135.083 39.4869 136.362 40.5423 136.286C41.596 136.286 41.295 134.631 40.9939 133.729C40.6928 132.901 39.5641 132.825 39.5641 133.954Z" fill="#001434"/>
<path d="M80.4969 40.4995C87.0435 39.7468 82.6793 44.3372 85.3883 44.3372C86.3657 44.3372 87.1184 41.4808 85.5427 39.5214C84.3384 38.0917 81.8556 38.3171 80.6513 38.6189C79.447 38.9208 79.3682 40.6501 80.4969 40.4995Z" fill="#001434"/>
<path d="M44.9822 127.858C45.8846 128.461 46.713 128.912 47.5398 128.762C48.3666 128.611 47.2472 127.241 46.3363 126.805C44.5452 125.947 44.1546 127.332 44.9822 127.858Z" fill="#001434"/>
<path d="M30.9108 124.323C31.0652 123.871 30.988 123.119 28.804 123.043C27.3743 122.966 27.3743 124.398 28.2775 124.549C29.8578 124.925 30.7611 124.624 30.9108 124.323Z" fill="#001434"/>
<path d="M52.0548 128.762C53.4846 128.839 53.5595 123.645 52.9573 121.162C52.8068 120.56 51.1516 119.507 51.4527 122.366C51.7537 124.925 50.9261 128.687 52.0548 128.762Z" fill="#001434"/>
<path d="M46.9382 122.742C48.2174 122.591 48.9694 122.065 49.045 121.689C49.1956 121.012 47.8361 121.058 46.4117 121.313C45.2784 121.513 45.5833 122.893 46.9382 122.742Z" fill="#001434"/>
<path d="M58.9814 45.316C61.7235 47.3726 73.5769 46.7658 75.6861 44.7895C78.1688 42.4565 77.4617 35.0058 74.1057 33.6525C71.4477 32.5817 64.0619 32.5254 60.11 34.4808C56.3048 36.3607 55.7389 42.8324 58.9814 45.316ZM59.1358 38.3934C60.0382 35.7593 63.6505 34.8568 67.3368 34.7812C66.687 38.051 66.3845 41.3804 66.4343 44.7138C63.7253 44.791 61.092 44.6366 60.1888 43.8113C58.3753 42.1546 58.6764 39.7467 59.128 38.3926L59.1358 38.3934Z" fill="#001434"/>
<path d="M74.7035 48.3269C73.876 47.4236 72.5967 48.5523 73.2738 49.6061C74.4025 51.2613 77.1871 52.7659 81.6261 52.6169C84.2595 52.5397 86.9684 52.3915 87.4162 50.9617C87.5706 50.4352 86.814 50.1341 86.2875 50.209C84.41 50.5827 76.209 50.9586 74.7035 48.3269Z" fill="#001434"/>
<path d="M33.4686 118.528C34.2213 118.378 33.9619 117.788 33.3188 115.97C32.8417 114.624 31.588 115.293 31.964 116.422C32.3399 117.55 32.7167 118.679 33.4686 118.528Z" fill="#001434"/>
<path d="M87.4954 20.3339C87.6537 20.7825 88.2474 20.7099 88.4736 20.4111C89.6771 18.4549 86.2911 12.962 83.8832 13.3388C83.3567 13.416 83.1305 13.9402 83.9604 14.6929C85.5695 16.2662 86.7812 18.1998 87.4954 20.3339Z" fill="#001434"/>
<path d="M74.3272 14.691C76.9605 15.8196 79.2951 18.3441 80.8738 22.0652C80.9362 22.2513 81.0587 22.4115 81.2221 22.5204C81.3855 22.6292 81.5805 22.6807 81.7763 22.6666C82.8301 22.2906 82.1067 18.7208 79.8957 16.2713C78.3586 14.5728 76.5089 13.4866 74.9286 13.3376C73.7266 13.1855 73.1985 14.2393 74.3272 14.691Z" fill="#001434"/>
<path d="M64.0938 18.2262C66.0937 18.5987 68.0004 19.3621 69.7048 20.4726C71.4092 21.5832 72.8778 23.019 74.0264 24.698C74.5529 25.5255 75.7573 25.0739 75.2308 23.8704C73.124 18.603 68.759 16.4961 64.5454 16.7216C63.3419 16.7972 62.8902 18.0008 64.0938 18.2262Z" fill="#001434"/>
</svg>
