<svg width="155" height="156" viewBox="0 0 155 156" fill="none" xmlns="http://www.w3.org/2000/svg">
<path d="M42.4852 100.689C43.3884 101.144 43.8439 100.92 44.0292 100.388C44.2145 99.8549 43.8053 99.3377 42.8249 99.2605C42.8365 99.132 42.8096 99.003 42.7477 98.8899C43.7281 98.6583 44.1064 98.2877 43.952 97.6856C43.7976 97.0834 43.0488 96.8518 42.076 97.5312C41.8688 97.3326 41.6411 97.1567 41.3967 97.0062C41.7749 95.8791 41.7749 95.4622 41.0956 95.2769C40.4162 95.0916 39.9684 95.6475 39.9684 96.7051H39.6674C39.4435 95.6475 38.8413 95.1611 38.1234 95.578C37.4054 95.9949 37.6679 96.4041 38.27 97.3073C38.1234 97.454 37.9689 97.5312 37.8995 97.6856C37.2973 97.5312 35.9386 96.9136 35.7919 97.7551C35.6452 98.5966 36.8418 98.8127 37.444 99.0366V99.4844C36.3941 99.716 35.9386 100.087 36.2397 100.766C36.5407 101.445 37.0657 101.445 37.9689 100.843C38.1334 101.077 38.3372 101.281 38.5711 101.445C38.5711 101.445 37.969 102.727 38.8722 102.989C39.7754 103.368 40.007 102.086 40.007 102.086C40.1604 102.099 40.3145 102.072 40.4548 102.009C40.6092 102.387 40.9103 103.437 41.7363 103.066C42.5624 102.696 41.9602 101.785 41.8135 101.407C42.083 101.214 42.3107 100.97 42.4852 100.689ZM40.6092 100.465C40.3963 100.558 40.1618 100.59 39.9318 100.557C39.7018 100.525 39.4853 100.429 39.3062 100.281C39.1271 100.134 38.9925 99.939 38.9173 99.7192C38.842 99.4995 38.8291 99.2632 38.8799 99.0366C38.887 98.8714 38.9507 98.7137 39.0603 98.59C39.17 98.4662 39.3189 98.384 39.4821 98.3572C40.7405 97.7551 42.2459 99.4844 40.5938 100.465H40.6092Z" fill="#615FFF"/>
<path d="M50.2049 118.445C52.6907 117.472 54.0649 117.773 52.7679 115.743C49.981 114.608 49.7571 114.083 48.6994 111.883C47.9274 110.223 47.3484 108.27 48.4756 106.541C46.5996 103.306 47.4951 101.947 42.0061 104.433C38.3931 106.085 39.4508 107.444 40.053 108.718C41.1801 110.903 43.9593 116.391 44.9398 117.827C45.9202 119.263 46.9856 119.665 50.2049 118.445Z" fill="#615FFF"/>
<path d="M43.3033 54.1916C42.0218 58.1828 43.0022 66.2349 43.1489 69.1685C43.3728 73.0826 43.0717 75.414 43.9209 75.8618C44.5231 76.1629 45.272 76.0857 45.1253 73.5458C44.5926 62.5601 44.5231 59.4026 45.1253 54.5081C45.3337 52.9872 43.7511 52.8405 43.3033 54.1916Z" fill="#615FFF"/>
<path d="M67.7533 52.161C66.4023 51.111 65.1207 52.3154 66.024 53.0642C68.5098 55.0946 70.656 58.9315 73.0184 60.8924C74.3771 62.0967 75.2031 60.6608 74.601 59.9891C73.9988 59.3175 70.0847 53.9675 67.7533 52.161Z" fill="#615FFF"/>
<path d="M19.9733 70.8202C21.5173 70.8202 26.0721 62.3976 27.5775 60.7378C29.083 59.078 30.6656 56.4531 31.8622 54.1912C32.5415 52.8401 31.7927 51.713 30.9589 52.4619C30.1252 53.2107 29.4149 55.4727 28.2492 57.0553C26.8982 58.9313 25.1612 59.9889 23.7407 62.5443C21.5559 66.3039 19.4483 69.392 19.3711 69.7703C19.2244 70.4419 19.5255 70.8202 19.9733 70.8202Z" fill="#615FFF"/>
<path d="M31.5612 47.0966C32.0167 48.6792 34.7959 47.9999 42.7707 47.9999C50.7456 47.9999 57.2922 48.6792 64.5182 47.9227C68.054 47.5521 67.3746 45.9695 65.3442 45.9695C62.7889 45.9695 54.9607 46.4944 50.0739 46.1934C45.1871 45.8923 37.4284 46.0467 32.9199 46.1934C32.3949 46.2165 31.4145 46.5176 31.5612 47.0966Z" fill="#615FFF"/>
<path d="M58.3499 66.0805C60.0792 66.4588 58.126 59.6111 57.5238 57.1252C56.9216 54.6394 56.4662 54.2688 55.7173 54.2688C54.9685 54.2688 54.8913 54.871 55.0379 55.3959C57.3694 63.3708 56.9988 65.7794 58.3499 66.0805Z" fill="#615FFF"/>
<path d="M89.1991 108.085C93.4143 104.225 99.0963 108.556 100.108 106.649C100.195 106.419 100.189 106.164 100.091 105.939C99.9928 105.714 99.8103 105.536 99.5826 105.444C94.387 103.491 90.0252 103.939 87.9176 106.803C87.7528 106.974 87.6618 107.203 87.664 107.44C87.6662 107.678 87.7615 107.905 87.9294 108.073C88.0973 108.241 88.3244 108.336 88.5619 108.338C88.7993 108.34 89.0281 108.249 89.1991 108.085Z" fill="#001434"/>
<path d="M35.4753 44.9351C44.7393 44.109 52.4054 44.9351 58.1259 44.9351C62.7117 44.9351 64.441 44.2634 63.7693 43.3911C62.8661 42.1867 52.4054 35.5629 49.1012 35.671C46.0904 35.8177 39.4742 39.2763 34.8808 43.723C34.0316 44.4719 34.2709 45.0123 35.4753 44.9351Z" fill="#001434"/>
<path d="M67.5291 134.85C65.4215 138.162 61.3144 140.91 56.0957 142.076C55.9522 142.11 55.8225 142.187 55.7237 142.296C55.6249 142.406 55.5616 142.543 55.5421 142.689C55.5294 142.786 55.5365 142.885 55.563 142.979C56.0185 144.106 61.438 142.825 64.8965 140.347C67.6758 138.239 69.4128 135.607 68.579 134.626C68.409 134.52 68.2047 134.485 68.009 134.527C67.8132 134.568 67.6412 134.684 67.5291 134.85Z" fill="#001434"/>
<path d="M37.9607 124.296C40.2768 128.21 42.4693 128.056 45.6345 127.23C47.5877 126.705 53.8332 124.914 56.3963 123.617C57.8245 122.845 57.1683 121.965 55.7941 122.49C53.6865 123.262 49.6181 124.667 45.2562 125.801C42.7703 126.473 41.1955 126.851 39.2346 123.54C36.1465 118.352 23.7404 95.477 22.8371 92.7673C22.0034 90.2814 24.7131 89.8337 25.6935 89.6098C26.8207 89.3782 26.9751 90.8141 28.1022 91.3391C29.4532 91.9413 34.726 90.8141 37.4281 89.9109C39.6437 89.1389 38.0765 87.3246 39.4662 87.0467C40.527 86.7926 41.6301 86.7689 42.7009 86.9772C44.0519 87.8033 48.4137 96.1564 49.3942 98.1096C50.3746 100.063 51.6561 99.3911 51.2007 98.4879C49.9963 96.002 45.7966 87.3478 43.6041 85.7729C42.7703 85.1707 40.1378 85.1707 38.3313 85.7729C37.3586 86.074 37.3586 87.1239 37.3586 87.6489C37.6519 89.1234 29.5227 90.3741 28.7044 89.9649C27.886 89.5557 27.7239 87.7879 25.6163 88.0889C23.061 88.4595 20.4285 90.0884 21.5556 93.2768C22.6055 96.3031 35.1738 119.579 37.9607 124.296Z" fill="#001434"/>
<path d="M148.637 88.4285C149.239 86.4676 151.948 77.4429 149.092 64.6507C147.286 56.3748 152.775 57.3553 147.548 40.4946C145.062 32.2959 147.996 22.5918 136.74 14.2464C126.063 6.34873 101.907 13.4203 70.6098 10.4867C24.5596 6.27153 9.81422 8.68019 6.27843 17.6355C1.60778 29.5939 6.34791 35.9938 5.29798 46.4468C1.36074 84.8927 4.52597 67.3682 27.2693 47.049C41.6364 34.2568 47.8819 33.2841 49.6112 33.3613C56.0883 33.5851 76.9248 49.5734 83.8497 57.1314C80.3911 58.6754 79.7118 60.3661 79.2177 64.6584C70.2624 65.0367 64.9201 74.4398 71.9917 78.2766C67.4754 81.5114 67.7765 87.7569 72.1461 91.4471C68.0004 93.9252 65.5995 99.8697 65.9005 105.212C63.7158 102.502 60.6277 101.228 56.567 101.452C54.0552 96.1427 51.267 90.9683 48.2139 85.9504C44.6781 80.4614 41.6209 81.1176 31.5153 82.569C22.7917 83.9046 12.9872 86.429 16.4612 95.1296C8.10809 96.7508 9.70614 109.998 19.3948 111.836C15.033 119.208 20.5992 129.592 27.5241 134.332C29.1762 137.42 32.1561 144.638 33.2446 146.599C33.9163 147.804 34.6729 146.669 34.2174 145.318C33.3913 142.685 31.5848 138.617 30.5349 136.285C45.203 144.26 65.5686 136.285 69.5058 126.203C73.2732 133.205 76.284 138.555 81.9969 140.802C86.8142 142.685 93.2836 142.461 97.9466 136.941C106.377 147.317 129.599 144.391 131.961 133.406C132.185 132.356 130.981 131.151 130.602 132.804C129.83 136.038 124.426 141.296 115.162 141.535C103.204 141.836 99.4365 135.66 99.2127 135.359C98.6877 134.687 97.9929 134.293 97.1823 135.289C88.9141 145.395 71.5285 137.937 75.8131 124.373C88.7751 136.725 124.635 135.413 135.86 122.945C139.542 121.741 149.246 116.174 150.304 107.296C151.647 95.5001 147.432 92.2654 148.637 88.4285ZM49.2484 28.7601C48.4763 28.5362 47.2875 25.6026 47.9668 20.6309C48.3497 18.4469 48.525 16.232 48.4918 14.0148C48.4918 12.9571 50.0358 12.656 50.2211 14.1614C50.5994 16.269 50.1516 19.8048 50.0744 21.3102C49.7733 27.1775 50.9776 29.2851 49.2484 28.7601ZM129.676 35.5152C132.61 32.4271 138.106 33.3381 140.137 35.2913C144.128 39.1513 143.371 47.103 134.115 52.9702C131.938 54.3985 131.027 52.6692 132.008 52.067C136.825 49.0562 140.137 44.4704 140.291 40.7803C140.438 35.739 134.702 33.8322 130.51 36.7967C129.614 37.4297 128.626 36.6577 129.676 35.5152ZM130.579 75.9992C125.839 75.9992 125.175 77.5432 123.585 77.5432C122.604 77.5432 122.458 76.4161 123.207 75.8139C125.237 74.4629 131.483 73.4979 131.784 75.2118C131.861 75.7831 131.56 76.0147 130.579 76.0147V75.9992ZM131.112 65.0136C131.181 66.2179 130.031 66.5576 129.83 65.4613C128.711 59.1386 120.265 56.3285 115.085 58.0887C114.63 58.2431 113.95 58.1659 114.251 57.3166C115.379 54.4834 130.44 55.4793 131.112 65.029V65.0136ZM113.58 68.5494C109.056 68.4336 104.624 70.0934 102.293 72.7645C101.521 73.6678 100.486 72.6873 100.865 71.5602C102.362 67.345 113.302 65.7084 114.251 67.7001C114.468 68.1942 114.105 68.5725 113.58 68.5648V68.5494ZM121.099 28.405C129.306 31.0375 127.198 44.0536 123.732 47.821C123.06 48.593 121.624 48.0448 122.906 45.7134C126.519 39.1668 124.635 31.8172 120.497 30.1343C116.884 28.7061 112.375 31.6783 111.171 40.5178C110.947 42.4015 109.511 41.0505 109.511 39.3906C109.442 34.9284 113.279 25.9037 121.099 28.3818V28.405ZM98.9811 43.4591C102.517 41.0505 110.113 45.9373 112.375 49.2492C113.201 50.4535 112.159 51.0402 111.017 50.0212C109.164 48.3459 106.655 45.8832 102.741 44.9105C99.1277 44.0767 98.0006 46.1303 98.8807 50.3995C99.0891 51.3799 97.4525 51.3799 97.2286 50.4767C96.7268 48.3228 96.3485 45.1653 98.9811 43.436V43.4591ZM88.6748 54.8925C94.4262 52.978 105.829 54.5915 109.141 58.9533C109.666 59.6327 108.539 60.011 108.083 59.7794C102.679 56.2436 94.7196 55.5256 89.3464 56.7762C89.2212 56.8205 89.0885 56.8396 88.9559 56.8325C88.8233 56.8254 88.6934 56.7922 88.5737 56.7349C88.4539 56.6775 88.3467 56.5971 88.258 56.4982C88.1694 56.3993 88.1011 56.2839 88.0572 56.1586C87.9684 55.9058 87.9836 55.628 88.0994 55.3863C88.2152 55.1446 88.4221 54.9587 88.6748 54.8694V54.8925ZM86.7911 66.7043C87.6943 64.1489 96.1246 62.2652 96.7268 63.3923C97.329 64.5195 92.8127 64.5504 88.5204 67.6847C87.5631 68.3641 86.4128 67.8082 86.7911 66.6811V66.7043ZM84.9846 70.6955C85.069 72.1769 85.4276 73.6297 86.0422 74.9802C84.4622 74.332 82.7776 73.9763 81.0705 73.9302C82.144 72.5933 83.475 71.4855 84.9846 70.6724V70.6955ZM19.8272 87.8495C22.3825 85.6648 33.6692 83.7811 39.8376 83.2175C41.9452 83.0708 44.3538 83.5958 45.6354 85.5335C48.9859 90.6905 51.9774 96.0714 54.5906 101.638C52.8484 101.845 51.2029 102.55 49.8505 103.668C44.2071 93.4389 44.8093 89.3009 33.7464 94.6432C31.5617 95.6931 31.1911 98.4029 32.5421 100.819C33.8236 103.074 42.0996 118.722 42.7712 120.004C44.8093 123.995 49.3178 121.733 53.4558 120.305C54.9612 119.78 55.9417 118.954 55.7178 117.525C58.497 117.749 60.6818 117.448 61.2839 118.653C63.0132 122.266 62.249 123.231 61.5078 124.142C60.9751 124.813 58.1264 126.458 46.9864 130.387C36.6724 134.023 34.3023 127.87 25.7716 110.601C18.1365 95.3612 14.9017 92.0879 19.8272 87.8264V87.8495ZM54.2124 117.186C54.6601 118.313 54.058 118.614 53.008 118.992C50.2211 120.042 45.7126 122.227 44.1299 119.44C43.3579 118.166 35.0975 102.51 33.8236 100.14C31.6389 96.1563 36.0779 95.0987 39.0115 94.1954C43.5818 92.6514 44.3152 95.9942 48.7157 104.803C46.2298 108.03 46.3456 115.032 54.2124 117.17V117.186ZM17.156 97.021C18.2831 99.5763 20.3907 103.869 23.7026 110.415C11.0572 111.241 10.6866 97.6386 17.1946 97.0055L17.156 97.021ZM54.9612 135.876C44.8788 140.161 30.4345 137.829 23.4401 127.971C23.5868 126.164 25.5477 124.111 26.8987 123.231C26.9881 123.192 27.0672 123.133 27.1295 123.059C27.1918 122.984 27.2357 122.896 27.2575 122.801C27.2793 122.706 27.2785 122.608 27.255 122.513C27.2316 122.419 27.1862 122.331 27.1226 122.258C26.2194 120.521 22.7608 123.756 21.9347 125.863C19.6728 121.355 18.0207 115.557 21.7109 112.245C22.6634 112.295 23.6183 112.272 24.5673 112.175C32.241 125.261 34.3486 137.451 47.6657 132.248C60.7899 127.129 67.5295 127.206 62.936 117.95C61.0601 114.09 53.7569 117.271 50.6766 113.364C47.0636 109.373 49.7733 103.429 55.9417 103.328C62.3339 102.502 65.8774 106.941 67.3056 112.886C69.1121 118.892 72.1924 128.928 54.9612 135.876ZM73.3967 129.329C68.3864 120.737 71.2274 125.608 70.6175 118.869C71.712 120.476 72.9721 121.964 74.3772 123.308C73.5099 125.2 73.1609 127.289 73.3659 129.36L73.3967 129.329ZM135.621 120.598C123.886 135.096 79.5651 135.722 69.8609 114.051C66.7729 107.281 67.074 97.8393 72.8718 93.5161C75.0566 96.3725 80.8466 99.6072 85.5867 98.1018C84.6835 99.7539 85.139 103.367 86.5672 102.919C88.2965 102.394 86.2661 98.5496 88.6748 96.3725C91.5312 93.8866 95.4453 97.1445 96.3948 95.392C97.3444 93.6396 92.3264 92.9139 90.9908 93.4389C95.9548 84.8619 85.5867 77.7903 77.5965 78.6163C78.1725 77.6285 78.8014 76.6724 79.4802 75.7522C87.6017 75.4511 89.2615 80.2684 90.8364 80.4228C91.894 80.4923 91.894 79.1413 90.2342 77.5587C93.2451 77.6359 96.5415 75.6441 98.6645 75.0033C101.058 74.2776 98.1396 80.9478 105.211 82.5304C109.951 83.5803 121.238 76.6554 119.81 80.2684C119.498 81.0242 119.351 81.8372 119.376 82.6542C119.401 83.4712 119.599 84.2735 119.957 85.0085C114.236 82.6925 107.319 83.8814 107.689 86.1357C107.767 86.6684 108.461 86.815 108.894 86.6684C115.842 83.5803 122.064 89.1465 124.851 89.0693C126.503 88.9998 130.942 87.1161 129.437 90.2736C123.415 102.626 133.652 96.2181 138.238 100.31C143.827 105.281 141.604 113.241 135.621 120.629V120.598ZM82.0509 80.7934C93.631 82.4532 92.4344 97.7235 81.3716 96.4497C81.7499 92.3426 82.1281 85.4177 82.0509 80.8243V80.7934ZM145.402 57.17C145.217 58.4418 144.741 59.6537 144.012 60.7116C143.282 61.7694 142.318 62.6445 141.194 63.2688C143.896 65.8242 146.236 70.1088 143.896 73.1196C142.129 75.3585 139.38 73.7218 141.642 72.5947C146.004 69.7382 139.01 63.2688 135.551 61.4623C134.872 61.084 134.779 60.6286 135.25 60.4047C136.454 59.8025 138.253 61.1767 139.689 61.9873C143.827 59.9569 145.093 55.0392 141.565 52.206C141.194 51.9049 140.793 51.2255 141.264 51.0016C142.545 50.5075 145.857 53.7423 145.402 57.2009V57.17Z" fill="#001434"/>
<path d="M101.991 124.992C96.9499 126.953 92.9586 121.834 91.955 123.448C91.1212 124.876 94.4331 127.061 98.1928 127.431C104.585 127.91 103.62 124.343 101.991 124.992Z" fill="#001434"/>
<path d="M102.817 112.052C101.219 111.18 97.8534 113.11 95.9697 112.655C94.3176 112.207 94.7653 110.47 93.7849 110.47C92.9588 110.47 93.9238 112.323 92.5806 112.956C91.5383 113.45 86.9372 111.296 88.2959 114.685C89.3458 117.248 94.5569 121.316 97.9228 120.707C102.308 119.911 104.385 112.909 102.817 112.052Z" fill="#001434"/>
<path d="M31.0359 88.5756C32.688 88.205 33.352 87.5256 33.1435 87.0316C32.9351 86.5375 32.6263 86.1746 30.2099 86.8077C27.7935 87.4407 28.1023 89.2549 31.0359 88.5756Z" fill="#001434"/>
<path d="M115.911 88.429C106.431 87.1474 102.787 90.9843 102.787 96.8516C102.787 102.047 105.875 107.467 115.579 107.312C129.259 107.142 129.838 90.3281 115.911 88.429ZM114.105 105.413C113.58 101.051 112.599 94.1264 111.696 89.9189C129.985 89.9344 126.21 107.482 114.105 105.429V105.413Z" fill="#001434"/>
<path d="M35.3284 87.8268C36.6795 87.6724 36.5328 85.2638 34.9502 85.6421C33.4447 85.8659 33.9929 88.0121 35.3284 87.8268Z" fill="#001434"/>
</svg>
