<svg width="155" height="155" viewBox="0 0 155 155" fill="none" xmlns="http://www.w3.org/2000/svg">
<path d="M42.4851 99.9363C43.3884 100.392 43.8439 100.168 44.0291 99.6352C44.2144 99.1025 43.8053 98.5852 42.8248 98.508C42.8364 98.3796 42.8095 98.2506 42.7476 98.1375C43.7281 97.9059 44.1063 97.5353 43.9519 96.9331C43.7975 96.331 43.0487 96.0994 42.076 96.7787C41.8687 96.5802 41.641 96.4042 41.3966 96.2538C41.7749 95.1266 41.7749 94.7098 41.0955 94.5245C40.4161 94.3392 39.9684 94.895 39.9684 95.9527H39.6673C39.4434 94.895 38.8412 94.4087 38.1233 94.8256C37.4053 95.2424 37.6678 95.6516 38.27 96.5549C38.1233 96.7015 37.9689 96.7787 37.8994 96.9331C37.2972 96.7787 35.9385 96.1611 35.7918 97.0026C35.6451 97.8441 36.8418 98.0603 37.4439 98.2842V98.7319C36.394 98.9635 35.9385 99.3341 36.2396 100.013C36.5407 100.693 37.0656 100.693 37.9689 100.091C38.1333 100.325 38.3371 100.528 38.571 100.693C38.571 100.693 37.9689 101.974 38.8721 102.237C39.7754 102.615 40.007 101.334 40.007 101.334C40.1604 101.346 40.3144 101.32 40.4547 101.256C40.6091 101.635 40.9102 102.685 41.7363 102.314C42.5623 101.943 41.9602 101.032 41.8135 100.654C42.0829 100.461 42.3107 100.217 42.4851 99.9363ZM40.6091 99.7124C40.3962 99.8051 40.1617 99.8371 39.9318 99.8047C39.7018 99.7724 39.4852 99.6769 39.3061 99.529C39.1271 99.3811 38.9924 99.1865 38.9172 98.9668C38.8419 98.7471 38.829 98.5108 38.8798 98.2842C38.8869 98.119 38.9506 97.9612 39.0603 97.8375C39.1699 97.7138 39.3189 97.6316 39.482 97.6048C40.7404 97.0026 42.2458 98.7319 40.5937 99.7124H40.6091Z" fill="#615FFF"/>
<path d="M50.2048 117.693C52.6907 116.72 54.0648 117.021 52.7679 114.991C49.9809 113.856 49.757 113.331 48.6994 111.131C47.9274 109.471 47.3484 107.518 48.4755 105.788C46.5995 102.554 47.4951 101.195 42.0061 103.681C38.3931 105.333 39.4508 106.691 40.0529 107.965C41.18 110.15 43.9593 115.639 44.9397 117.075C45.9202 118.511 46.9855 118.912 50.2048 117.693Z" fill="#615FFF"/>
<path d="M43.3033 53.4391C42.0218 57.4304 43.0022 65.4824 43.1489 68.4161C43.3728 72.3301 43.0717 74.6616 43.9209 75.1094C44.5231 75.4104 45.2719 75.3332 45.1252 72.7933C44.5926 61.8077 44.5231 58.6502 45.1252 53.7556C45.3337 52.2348 43.7511 52.0881 43.3033 53.4391Z" fill="#615FFF"/>
<path d="M67.7533 51.4085C66.4022 50.3586 65.1207 51.5629 66.024 52.3118C68.5098 54.3422 70.656 58.179 73.0183 60.1399C74.3771 61.3443 75.2031 59.9083 74.601 59.2367C73.9988 58.565 70.0847 53.215 67.7533 51.4085Z" fill="#615FFF"/>
<path d="M19.9732 70.0677C21.5172 70.0677 26.0721 61.6451 27.5775 59.9853C29.0829 58.3255 30.6655 55.7007 31.8621 53.4387C32.5415 52.0877 31.7926 50.9606 30.9589 51.7094C30.1251 52.4583 29.4149 54.7202 28.2491 56.3029C26.8981 58.1788 25.1611 59.2365 23.7406 61.7918C21.5558 65.5515 19.4482 68.6395 19.371 69.0178C19.2244 69.6895 19.5254 70.0677 19.9732 70.0677Z" fill="#615FFF"/>
<path d="M31.5611 46.3442C32.0166 47.9268 34.7959 47.2474 42.7707 47.2474C50.7455 47.2474 57.2921 47.9268 64.5181 47.1702C68.0539 46.7997 67.3746 45.217 65.3442 45.217C62.7888 45.217 54.9607 45.742 50.0739 45.4409C45.1871 45.1398 37.4284 45.2942 32.9199 45.4409C32.3949 45.4641 31.4145 45.7652 31.5611 46.3442Z" fill="#615FFF"/>
<path d="M58.3498 65.3281C60.0791 65.7064 58.126 58.8586 57.5238 56.3728C56.9216 53.8869 56.4661 53.5164 55.7173 53.5164C54.9684 53.5164 54.8912 54.1185 55.0379 54.6435C57.3694 62.6183 56.9988 65.027 58.3498 65.3281Z" fill="#615FFF"/>
<path d="M89.1991 107.332C93.4142 103.472 99.0962 107.803 100.108 105.896C100.195 105.667 100.189 105.412 100.091 105.187C99.9927 104.962 99.8102 104.784 99.5826 104.692C94.387 102.739 90.0251 103.186 87.9176 106.051C87.7528 106.222 87.6617 106.45 87.6639 106.688C87.6661 106.925 87.7614 107.152 87.9294 107.32C88.0973 107.488 88.3244 107.584 88.5618 107.586C88.7992 107.588 89.0281 107.497 89.1991 107.332Z" fill="#B9B9B9"/>
<path d="M35.4753 44.1826C44.7394 43.3566 52.4054 44.1826 58.126 44.1826C62.7117 44.1826 64.441 43.511 63.7693 42.6386C62.8661 41.4343 52.4054 34.8105 49.1012 34.9185C46.0904 35.0652 39.4743 38.5238 34.8808 42.9706C34.0316 43.7194 34.271 44.2598 35.4753 44.1826Z" fill="#B9B9B9"/>
<path d="M67.5291 134.098C65.4215 137.409 61.3145 140.158 56.0957 141.324C55.9522 141.358 55.8225 141.435 55.7237 141.544C55.6249 141.653 55.5616 141.79 55.5422 141.936C55.5295 142.034 55.5365 142.132 55.563 142.227C56.0185 143.354 61.438 142.072 64.8966 139.594C67.6758 137.487 69.4128 134.854 68.579 133.874C68.409 133.768 68.2047 133.732 68.009 133.774C67.8132 133.816 67.6413 133.932 67.5291 134.098Z" fill="#B9B9B9"/>
<path d="M37.9607 123.544C40.2767 127.458 42.4692 127.303 45.6344 126.477C47.5876 125.952 53.8332 124.161 56.3962 122.864C57.8244 122.092 57.1682 121.212 55.7941 121.737C53.6865 122.509 49.618 123.914 45.2562 125.049C42.7703 125.721 41.1954 126.099 39.2345 122.787C36.1465 117.599 23.7403 94.7246 22.8371 92.0149C22.0033 89.529 24.7131 89.0812 25.6935 88.8573C26.8206 88.6257 26.975 90.0617 28.1022 90.5866C29.4532 91.1888 34.726 90.0617 37.428 89.1584C39.6437 88.3864 38.0765 86.5722 39.4661 86.2943C40.527 86.0402 41.63 86.0165 42.7008 86.2248C44.0518 87.0509 48.4137 95.404 49.3941 97.3571C50.3746 99.3103 51.6561 98.6387 51.2006 97.7354C49.9963 95.2496 45.7966 86.5954 43.6041 85.0205C42.7703 84.4183 40.1378 84.4183 38.3313 85.0205C37.3585 85.3216 37.3585 86.3715 37.3585 86.8964C37.6519 88.371 29.5227 89.6216 28.7043 89.2125C27.886 88.8033 27.7239 87.0354 25.6163 87.3365C23.061 87.7071 20.4284 89.336 21.5555 92.5244C22.6055 95.5507 35.1738 118.827 37.9607 123.544Z" fill="#B9B9B9"/>
<path d="M148.637 87.6761C149.239 85.7152 151.948 76.6904 149.092 63.8983C147.286 55.6224 152.775 56.6028 147.548 39.7422C145.062 31.5435 147.996 21.8393 136.74 13.4939C126.063 5.59629 101.907 12.6679 70.6098 9.73425C24.5596 5.51909 9.81422 7.92775 6.27843 16.883C1.60778 28.8414 6.34791 35.2414 5.29798 45.6943C1.36074 84.1403 4.52597 66.6157 27.2693 46.2965C41.6364 33.5044 47.8819 32.5316 49.6112 32.6088C56.0883 32.8327 76.9248 48.821 83.8497 56.3789C80.3911 57.9229 79.7118 59.6136 79.2177 63.906C70.2624 64.2843 64.9201 73.6873 71.9917 77.5242C67.4754 80.7589 67.7765 87.0044 72.1461 90.6946C68.0004 93.1728 65.5995 99.1172 65.9006 104.46C63.7158 101.75 60.6277 100.476 56.567 100.7C54.0552 95.3902 51.267 90.2159 48.2139 85.198C44.6781 79.709 41.6209 80.3652 31.5153 81.8166C22.7917 83.1521 12.9872 85.6766 16.4612 94.3771C8.10809 95.9983 9.70614 109.246 19.3948 111.083C15.033 118.456 20.5992 128.84 27.5241 133.58C29.1762 136.668 32.1561 143.886 33.2446 145.847C33.9163 147.051 34.6729 145.916 34.2174 144.565C33.3913 141.933 31.5848 137.864 30.5349 135.533C45.203 143.508 65.5686 135.533 69.5058 125.45C73.2732 132.453 76.284 137.803 81.9969 140.049C86.8142 141.933 93.2837 141.709 97.9466 136.189C106.377 146.565 129.599 143.639 131.961 132.653C132.185 131.603 130.981 130.399 130.602 132.051C129.83 135.286 124.426 140.543 115.162 140.782C103.204 141.084 99.4365 134.908 99.2127 134.606C98.6877 133.935 97.9929 133.541 97.1823 134.537C88.9141 144.643 71.5285 137.185 75.8131 123.621C88.7751 135.973 124.635 134.66 135.86 122.193C139.542 120.988 149.246 115.422 150.304 106.544C151.647 94.7477 147.432 91.513 148.637 87.6761ZM49.2484 28.0077C48.4763 27.7838 47.2875 24.8501 47.9668 19.8784C48.3497 17.6944 48.525 15.4795 48.4918 13.2623C48.4918 12.2047 50.0358 11.9036 50.2211 13.409C50.5994 15.5166 50.1516 19.0524 50.0744 20.5578C49.7733 26.425 50.9776 28.5326 49.2484 28.0077ZM129.676 34.7627C132.61 31.6747 138.106 32.5857 140.137 34.5388C144.128 38.3989 143.371 46.3506 134.115 52.2178C131.938 53.646 131.027 51.9167 132.008 51.3146C136.825 48.3037 140.137 43.718 140.291 40.0278C140.438 34.9866 134.702 33.0797 130.51 36.0443C129.614 36.6773 128.626 35.9053 129.676 34.7627ZM130.579 75.2468C125.839 75.2468 125.175 76.7908 123.585 76.7908C122.604 76.7908 122.458 75.6637 123.207 75.0615C125.237 73.7105 131.483 72.7455 131.784 74.4593C131.861 75.0306 131.56 75.2622 130.579 75.2622V75.2468ZM131.112 64.2611C131.181 65.4655 130.031 65.8051 129.83 64.7089C128.711 58.3861 120.265 55.576 115.085 57.3362C114.63 57.4906 113.95 57.4134 114.251 56.5642C115.379 53.7309 130.44 54.7268 131.112 64.2766V64.2611ZM113.58 67.7969C109.056 67.6811 104.624 69.3409 102.293 72.0121C101.521 72.9153 100.486 71.9349 100.865 70.8077C102.362 66.5926 113.302 64.9559 114.251 66.9477C114.468 67.4418 114.105 67.8201 113.58 67.8124V67.7969ZM121.099 27.6525C129.306 30.2851 127.198 43.3011 123.732 47.0685C123.06 47.8405 121.624 47.2924 122.906 44.9609C126.519 38.4143 124.635 31.0648 120.497 29.3818C116.884 27.9536 112.375 30.9258 111.171 39.7653C110.947 41.649 109.511 40.298 109.511 38.6382C109.442 34.176 113.279 25.1512 121.099 27.6294V27.6525ZM98.9811 42.7067C102.517 40.298 110.113 45.1848 112.375 48.4967C113.201 49.7011 112.159 50.2878 111.017 49.2687C109.164 47.5935 106.655 45.1308 102.741 44.1581C99.1277 43.3243 98.0006 45.3778 98.8807 49.647C99.0891 50.6275 97.4525 50.6275 97.2286 49.7242C96.7268 47.5703 96.3485 44.4128 98.9811 42.6835V42.7067ZM88.6748 54.1401C94.4262 52.2255 105.829 53.839 109.141 58.2009C109.666 58.8802 108.539 59.2585 108.083 59.0269C102.679 55.4911 94.7196 54.7732 89.3464 56.0238C89.2212 56.0681 89.0885 56.0872 88.9559 56.0801C88.8233 56.073 88.6934 56.0398 88.5737 55.9824C88.4539 55.925 88.3467 55.8446 88.258 55.7457C88.1694 55.6469 88.1011 55.5315 88.0572 55.4062C87.9684 55.1533 87.9836 54.8756 88.0994 54.6339C88.2152 54.3922 88.4221 54.2063 88.6748 54.1169V54.1401ZM86.7911 65.9518C87.6943 63.3965 96.1246 61.5128 96.7268 62.6399C97.329 63.767 92.8127 63.7979 88.5204 66.9323C87.5631 67.6116 86.4128 67.0558 86.7911 65.9287V65.9518ZM84.9846 69.9431C85.069 71.4244 85.4276 72.8773 86.0422 74.2277C84.4622 73.5796 82.7776 73.2238 81.0705 73.1778C82.1441 71.8409 83.475 70.733 84.9846 69.9199V69.9431ZM19.8272 87.0971C22.3825 84.9123 33.6692 83.0286 39.8376 82.465C41.9452 82.3184 44.3538 82.8433 45.6354 84.7811C48.9859 89.9381 51.9774 95.319 54.5906 100.885C52.8484 101.093 51.2029 101.798 49.8505 102.916C44.2071 92.6864 44.8093 88.5485 33.7464 93.8908C31.5617 94.9407 31.1911 97.6504 32.5421 100.067C33.8236 102.321 42.0996 117.97 42.7712 119.251C44.8093 123.242 49.3178 120.98 53.4558 119.552C54.9612 119.027 55.9417 118.201 55.7178 116.773C58.497 116.997 60.6818 116.696 61.284 117.9C63.0132 121.513 62.249 122.478 61.5078 123.389C60.9751 124.061 58.1264 125.705 46.9864 129.635C36.6724 133.271 34.3023 127.118 25.7716 109.848C18.1365 94.6087 14.9017 91.3354 19.8272 87.0739V87.0971ZM54.2124 116.433C54.6601 117.561 54.058 117.862 53.008 118.24C50.2211 119.29 45.7126 121.475 44.1299 118.688C43.3579 117.414 35.0975 101.758 33.8236 99.3875C31.6389 95.4039 36.0779 94.3462 39.0115 93.443C43.5818 91.899 44.3152 95.2418 48.7157 104.05C46.2298 107.277 46.3456 114.279 54.2124 116.418V116.433ZM17.156 96.2685C18.2831 98.8239 20.3907 103.116 23.7026 109.663C11.0572 110.489 10.6866 96.8861 17.1946 96.2531L17.156 96.2685ZM54.9612 135.124C44.8788 139.408 30.4345 137.077 23.4401 127.218C23.5868 125.412 25.5477 123.358 26.8987 122.478C26.9881 122.44 27.0672 122.381 27.1295 122.306C27.1918 122.232 27.2357 122.143 27.2575 122.049C27.2793 121.954 27.2785 121.855 27.255 121.761C27.2316 121.667 27.1862 121.579 27.1226 121.505C26.2194 119.768 22.7608 123.003 21.9347 125.111C19.6728 120.602 18.0207 114.804 21.7109 111.493C22.6634 111.543 23.6183 111.52 24.5673 111.423C32.241 124.509 34.3486 136.699 47.6657 131.495C60.7899 126.377 67.5295 126.454 62.936 117.198C61.0601 113.338 53.7569 116.518 50.6766 112.612C47.0636 108.621 49.7733 102.676 55.9417 102.576C62.3339 101.75 65.8774 106.189 67.3056 112.133C69.1121 118.14 72.1924 128.176 54.9612 135.124ZM73.3967 128.577C68.3864 119.985 71.2274 124.856 70.6175 118.116C71.712 119.723 72.9721 121.211 74.3772 122.555C73.5099 124.448 73.1609 126.536 73.3659 128.608L73.3967 128.577ZM135.621 119.846C123.886 134.344 79.5651 134.969 69.8609 113.299C66.7729 106.529 67.074 97.0869 72.8718 92.7636C75.0566 95.62 80.8466 98.8548 85.5867 97.3493C84.6835 99.0014 85.139 102.614 86.5672 102.167C88.2965 101.642 86.2661 97.7971 88.6748 95.6201C91.5312 93.1342 95.4453 96.3921 96.3948 94.6396C97.3444 92.8871 92.3264 92.1615 90.9908 92.6864C95.9548 84.1094 85.5867 77.0378 77.5965 77.8639C78.1725 76.8761 78.8014 75.92 79.4802 74.9997C87.6017 74.6987 89.2615 79.516 90.8364 79.6704C91.894 79.7399 91.894 78.3888 90.2342 76.8062C93.245 76.8834 96.5415 74.8917 98.6645 74.2509C101.058 73.5252 98.1396 80.1954 105.211 81.778C109.951 82.8279 121.238 75.903 119.81 79.516C119.498 80.2717 119.351 81.0848 119.376 81.9017C119.401 82.7187 119.599 83.5211 119.957 84.2561C114.236 81.9401 107.319 83.129 107.689 85.3832C107.767 85.9159 108.461 86.0626 108.894 85.9159C115.842 82.8279 122.064 88.3941 124.851 88.3169C126.503 88.2474 130.942 86.3637 129.437 89.5212C123.415 101.873 133.652 95.4657 138.238 99.5573C143.827 104.529 141.604 112.488 135.621 119.877V119.846ZM82.0509 80.0409C93.6311 81.7008 92.4344 96.9711 81.3716 95.6973C81.7499 91.5902 82.1281 84.6653 82.0509 80.0718V80.0409ZM145.402 56.4175C145.217 57.6893 144.741 58.9013 144.012 59.9591C143.282 61.017 142.318 61.8921 141.194 62.5164C143.896 65.0717 146.236 69.3564 143.896 72.3672C142.129 74.606 139.38 72.9694 141.642 71.8422C146.004 68.9858 139.01 62.5164 135.551 60.7099C134.872 60.3316 134.779 59.8761 135.25 59.6522C136.454 59.0501 138.253 60.4242 139.689 61.2349C143.827 59.2045 145.093 54.2868 141.565 51.4535C141.194 51.1524 140.793 50.4731 141.264 50.2492C142.545 49.7551 145.857 52.9898 145.402 56.4484V56.4175Z" fill="#B9B9B9"/>
<path d="M101.991 124.239C96.9499 126.2 92.9586 121.082 91.955 122.695C91.1212 124.124 94.4331 126.308 98.1928 126.679C104.585 127.158 103.62 123.591 101.991 124.239Z" fill="#B9B9B9"/>
<path d="M102.817 111.3C101.219 110.428 97.8533 112.358 95.9696 111.902C94.3176 111.454 94.7653 109.717 93.7849 109.717C92.9588 109.717 93.9238 111.57 92.5805 112.203C91.5383 112.697 86.9372 110.543 88.2959 113.932C89.3458 116.496 94.5569 120.564 97.9228 119.954C102.308 119.159 104.385 112.157 102.817 111.3Z" fill="#B9B9B9"/>
<path d="M31.036 87.8231C32.6881 87.4526 33.352 86.7732 33.1436 86.2791C32.9351 85.785 32.6263 85.4222 30.2099 86.0552C27.7936 86.6883 28.1024 88.5025 31.036 87.8231Z" fill="#B9B9B9"/>
<path d="M115.911 87.6765C106.431 86.395 102.787 90.2319 102.787 96.0991C102.787 101.295 105.875 106.714 115.579 106.56C129.259 106.39 129.838 89.5757 115.911 87.6765ZM114.105 104.661C113.58 100.299 112.599 93.3739 111.696 89.1665C129.985 89.1819 126.21 106.73 114.105 104.676V104.661Z" fill="#B9B9B9"/>
<path d="M35.3285 87.0744C36.6795 86.92 36.5328 84.5113 34.9502 84.8896C33.4448 85.1135 33.9929 87.2597 35.3285 87.0744Z" fill="#B9B9B9"/>
</svg>
