<svg width="155" height="155" viewBox="0 0 155 155" fill="none" xmlns="http://www.w3.org/2000/svg">
<path d="M38.069 96.4589C40.0237 95.0307 43.0315 65.784 39.2718 65.032C37.8428 64.7309 37.5425 66.7613 37.5425 68.7917C37.5425 70.8962 37.6969 76.1597 37.5425 86.4599C37.4676 93.1508 37.5425 96.5345 38.069 96.4589Z" fill="#615FFF"/>
<path d="M43.4066 89.3912C42.2084 89.7911 43.4931 92.402 43.8575 93.6766C44.0119 94.2031 43.2167 94.8632 44.0119 96.6102C44.4339 97.4763 44.9647 98.2849 45.5914 99.0166C46.1851 99.4798 47.0945 98.8622 46.5687 97.813C46.043 96.7639 45.5914 95.934 45.4408 95.558C45.0649 94.5799 46.192 93.9792 45.5952 92.8513C44.1585 90.3693 44.2357 89.0909 43.4066 89.3912Z" fill="#615FFF"/>
<path d="M38.2197 47.0628C32.5154 49.9447 37.3358 58.7865 42.8803 55.1079C48.008 51.7056 43.2023 44.546 38.2197 47.0628Z" fill="#615FFF"/>
<path d="M52.8821 79.3172C54.0857 81.1962 55.6614 90.8201 58.595 93.5993C55.5124 87.9637 57.0911 76.6082 55.8883 73.074C54.8353 71.1949 50.3245 69.7659 48.8206 67.8868C47.4673 73.5225 47.4673 75.4803 47.4673 75.4803C47.4673 75.4803 51.7519 76.9108 52.8821 79.3172Z" fill="#615FFF"/>
<path d="M37.0163 114.353C36.6404 115.856 37.8964 116.075 38.2199 115.029C38.4667 114.178 38.9647 113.421 39.6487 112.858C40.3328 112.295 41.171 111.951 42.0537 111.872C44.1589 111.646 45.9631 113.15 46.6402 113.901C47.3921 114.653 48.2938 114.128 47.6175 113.075C46.7158 111.646 44.2346 109.692 42.1293 110.218C40.2495 99.2417 22.095 104.538 26.4159 114.579C26.8413 115.567 27.8441 114.579 27.543 113.526C24.9869 106.234 38.8205 101.722 40.5506 110.444C39.7181 110.808 38.9724 111.345 38.3631 112.019C37.7537 112.692 37.2947 113.488 37.0163 114.353Z" fill="#615FFF"/>
<path d="M44.0082 28.866C42.956 24.6563 41.1518 21.874 39.9482 18.7164C39.1214 16.6112 38.7454 11.4233 37.9186 11.3484C36.9413 11.2712 36.8656 17.1385 35.889 18.9419C34.1589 22.0245 32.6558 26.6859 31.8282 29.3925C32.6558 30.2217 41.8281 30.8231 44.0082 28.866Z" fill="#615FFF"/>
<path d="M16.8668 112.699C16.8668 112.699 11.5284 117.435 11.0767 118.037C10.6251 118.639 11.3022 121.12 11.6032 121.796C11.9792 122.473 24.9111 131.344 24.9111 131.344C24.2977 132.033 23.645 132.686 22.9564 133.3C22.731 133.377 16.4152 129.39 16.4152 129.39C16.4152 129.39 16.7039 133.759 17.242 134.503C17.6836 135.111 28.9711 141.645 34.1582 143.6C34.7056 143.806 35.2908 143.893 35.8745 143.854C36.4581 143.815 37.0267 143.651 37.5419 143.375C44.0831 139.84 55.7366 132.623 56.1874 131.794C56.7139 130.892 57.391 125.028 57.391 125.028C46.6462 130.041 46.1583 132.915 42.2257 129.062C40.8631 127.728 34.6013 122.043 34.6013 122.043L16.8668 112.699Z" fill="#615FFF"/>
<path d="M56.6396 113.376C56.4142 113.488 44.2373 118.373 38.15 120.813C39.6338 122.589 43.1681 126.65 45.437 126.984C47.9182 127.285 60.6239 120.819 60.9999 119.54C61.3743 118.341 58.0678 115.253 56.6396 113.376Z" fill="#615FFF"/>
<path d="M65.2109 107.587C66.4137 103 61.2258 99.5414 56.5644 100.82C56.5644 98.3386 54.6097 97.2107 52.7306 97.1359C49.4975 96.9815 48.5193 99.692 49.3469 100.444C49.7229 100.744 50.0232 100.594 50.2494 100.143C51.4522 97.2092 56.0394 98.8651 54.9108 101.421C53.708 101.872 52.3539 103.151 52.1315 104.052C51.9061 105.03 52.5075 105.256 53.1846 104.579C55.8912 102.173 57.7703 101.645 60.1766 102.173C61.2908 102.377 62.2793 103.013 62.927 103.943C63.5747 104.872 63.8292 106.02 63.6352 107.136C61.3794 106.759 59.8007 108.113 60.3272 108.94C60.7024 109.616 63.1836 107.812 64.838 109.165C65.5143 109.692 65.7405 110.669 65.3637 112.022C64.987 113.374 66.4168 113.525 66.7178 112.397C67.0876 110.82 67.1648 108.413 65.2109 107.587Z" fill="#615FFF"/>
<path d="M30.4749 95.5572C29.9973 97.6544 29.2388 99.6776 28.2199 101.572C27.468 102.85 28.5766 103.362 29.1973 102.549C30.4078 100.807 31.3224 98.8767 31.9039 96.8364C32.5802 94.2803 32.4304 93.98 31.7495 93.0775C31.3736 92.551 33.1777 89.4684 32.0506 89.1681C31.599 89.0909 31.1481 89.0909 30.9976 89.7695C30.847 91.3482 29.2938 92.8336 30.2457 94.2054C30.4107 94.3843 30.5203 94.6073 30.561 94.8473C30.6017 95.0873 30.5718 95.3339 30.4749 95.5572Z" fill="#615FFF"/>
<path d="M136.711 84.129C136.557 82.3997 134.907 79.1665 132.876 76.8358C129.591 78.181 126.195 79.2375 122.727 79.9934C120.02 82.3997 114.158 89.7677 111.975 83.9785C105.81 90.5197 103.555 88.1133 101.375 80.7453C96.1111 85.2561 96.6377 76.1596 96.1111 72.325C94.4575 70.2946 93.3319 68.641 93.3319 68.641C81.0014 73.0762 88.2197 75.1066 89.1963 83.0775L91.3023 78.9427C91.3023 78.9427 90.3998 94.6561 91.1479 101.348C100.546 107.588 123.778 109.092 127.913 105.859L123.252 98.2645C123.253 98.1147 127.767 88.4893 136.711 84.129Z" fill="#615FFF"/>
<path d="M28.5958 75.3317C28.5958 75.3317 28.5958 73.3021 27.2425 67.7383C25.7386 69.693 21.2278 71.122 20.1748 72.9262C19.4985 74.129 19.7988 73.753 19.6483 79.9182C19.8737 84.0531 18.8214 89.1661 17.6187 93.5264C21.8292 87.0608 21.4532 76.2342 28.5958 75.3317Z" fill="#615FFF"/>
<path d="M11.1531 106.233C11.2401 107.088 11.5231 107.911 11.9799 108.639C12.4308 109.09 13.1827 108.639 12.8824 107.586C11.3786 102.624 15.8122 97.2848 21.0016 102.624C21.7427 103.387 22.3549 102.701 21.9798 101.722C21.2278 99.9174 21.6887 98.6682 22.8066 98.2629C24.5521 97.6307 25.7479 99.5584 26.5655 99.0905C26.6508 99.0258 26.7212 98.9435 26.7721 98.8493C26.8229 98.755 26.853 98.651 26.8604 98.5441C26.8677 98.4373 26.852 98.3301 26.8145 98.2298C26.7769 98.1295 26.7184 98.0384 26.6427 97.9626C26.1707 97.3847 25.5424 96.9549 24.8327 96.7244C24.1231 96.4939 23.3621 96.4726 22.6406 96.6629C21.9191 96.8532 21.2677 97.2471 20.764 97.7977C20.2604 98.3482 19.9259 99.0321 19.8004 99.7676C16.0415 97.4361 11.0767 100.519 11.0767 104.654C7.01671 105.256 6.94182 109.165 8.37004 110.82C9.12197 111.721 10.175 111.345 9.5736 110.293C8.67189 108.264 9.19763 106.533 11.1531 106.233Z" fill="#615FFF"/>
<path d="M36.6403 54.3556C40.9265 55.0319 42.655 51.7238 42.1293 48.8674C41.6028 46.2356 39.1185 44.1304 35.5881 45.6343C31.8284 47.3636 32.656 53.6786 36.6403 54.3556ZM34.4602 48.8674C36.4898 43.1546 44.5349 48.8674 39.4975 52.6263C37.0919 54.5062 33.5585 51.5733 34.4602 48.8674Z" fill="#001434"/>
<path d="M149.267 94.805C149.19 94.7278 149.19 94.6544 149.116 94.5788C151.071 90.1436 148.515 86.2334 143.703 87.1359C142.5 84.9557 140.395 80.5198 139.116 78.4122C142.275 77.6602 144.906 74.2016 144.38 71.119C150.016 69.3148 151.147 59.9921 147.612 56.0826C151.447 48.6397 148.289 43.2256 142.575 41.4214C140.996 32.9294 134.606 29.392 128.591 29.9185C120.621 18.3384 104.983 20.7455 103.63 32.0987C97.0134 31.5722 91.6001 37.8887 92.728 44.1281C87.9161 45.0306 85.4348 52.1732 88.0666 56.0826C85.6603 58.7893 87.0136 64.5747 90.0213 66.6082C85.5854 68.488 79.1198 72.0215 77.6908 72.8483C74.8344 69.5403 68.1427 71.3452 69.1216 76.7578C69.116 76.8443 69.0932 76.9288 69.0545 77.0064C69.0158 77.0839 68.9619 77.1529 68.8961 77.2094C59.1974 85.1032 70.7003 104.05 85.6618 95.78C85.4364 97.2082 85.0612 99.0132 86.4137 99.9906C85.888 106.983 84.835 116.155 85.5869 121.192C74.46 130.59 96.9401 133.974 105.659 131.192C107.238 135.928 122.124 136.605 128.588 134.203C135.354 131.722 137.685 130.594 137.535 126.083C137.309 119.768 137.009 115.933 136.933 110.821C145.207 110.744 153.853 101.872 149.267 94.805ZM89.2694 61.9491C88.7429 60.4453 88.2172 58.4156 89.6454 57.2129C90.9238 55.9344 87.2398 53.3783 89.4199 49.1678C89.8708 48.2653 90.9238 46.0851 93.4799 46.0103C95.8106 45.9331 92.8785 40.9729 96.6374 37.0627C97.5252 36.0041 98.6662 35.1871 99.9544 34.6877C101.243 34.1883 102.636 34.0227 104.005 34.2063C105.509 34.3607 105.509 32.6275 105.66 31.9505C107.088 23.2268 119.569 21.1995 126.411 30.4466C123.4 31.8007 123.631 33.5292 124.606 33.4574C125.584 33.303 125.734 32.6306 128.365 31.9536C131.072 31.2016 134.455 32.4044 136.935 34.81C141.07 38.9448 140.845 45.1858 140.845 45.1858C140.768 46.5383 143.025 46.9899 142.799 43.5313C147.385 45.3355 148.512 51.1248 145.431 55.5608C145.297 55.7751 145.246 56.0309 145.287 56.28C145.329 56.5292 145.46 56.7547 145.656 56.9141C147.236 58.1925 148.012 61.4133 147.385 64.2821C147.059 65.7806 146.333 68.4927 143.175 69.3195C142.874 69.3967 142.348 69.6954 142.424 70.6728C142.724 74.4317 139.644 77.6649 135.13 76.1618C139.491 72.9286 143.777 65.1846 138.213 62.0263C135.732 60.5981 135.056 57.2901 137.988 52.7785C139.717 49.9992 132.649 52.4781 130.093 45.7871C129.191 43.9073 122.124 48.1171 118.513 41.9526C118.389 41.7373 118.192 41.5734 117.958 41.4908C117.723 41.4081 117.467 41.412 117.235 41.5017C110.243 43.9822 108.208 38.7997 108.137 38.5681C106.979 34.837 88.0867 47.755 91.5221 65.1082C90.4432 64.3325 89.6512 63.2218 89.2694 61.9491ZM108.291 77.4371C96.2615 74.204 91.4495 67.0614 93.9316 56.3104C99.4205 60.8212 104.833 59.3212 106.789 55.709C108.894 51.7995 108.141 46.3106 100.172 44.6569C102.051 42.7773 104.271 41.272 106.713 40.221C107.766 42.0252 110.773 45.6343 117.239 43.6796C120.321 48.1148 125.963 47.8144 128.665 47.3636C129.329 48.7351 130.286 49.9442 131.468 50.9055C132.65 51.8667 134.029 52.5567 135.507 52.9267C133.101 57.5881 134.003 61.5732 137.161 63.6784C138.815 64.8063 139.793 65.6331 138.59 68.4903C134.08 79.0908 119.795 80.5198 108.291 77.4371ZM120.171 80.8957C117.915 82.8504 115.809 85.5571 114.607 85.3317C113.404 85.1063 112.727 82.2491 112.051 80.2943C114.722 80.829 117.449 81.0321 120.171 80.8988V80.8957ZM106.261 79.0159C107.417 79.396 108.598 79.6975 109.795 79.9184C110.144 81.0493 110.571 82.1546 111.073 83.2264C108.968 84.8801 106.186 87.2864 105.283 86.6101C104.456 86.008 103.478 83.4518 102.727 81.2717C103.968 80.6239 105.151 79.8692 106.261 79.0159ZM98.8168 80.8216C97.9151 80.5954 97.4635 77.0619 97.0883 74.3553C99.1468 75.9945 101.457 77.2895 103.93 78.1898C102.201 79.317 99.7201 81.0463 98.8168 80.8216ZM96.9378 55.7846C99.8385 53.9989 102.558 51.9343 105.058 49.6202C107.763 55.0288 102.026 58.8364 96.9385 55.7839L96.9378 55.7846ZM92.3513 67.8897C92.9466 69.3934 93.7852 70.789 94.8333 72.0207C95.2841 74.6525 95.5095 85.554 100.773 82.1711C101.675 84.3512 103.475 88.9748 105.359 89.0126C105.885 89.0234 107.239 88.561 111.9 85.0275C114.456 90.4408 119.644 83.6742 123.48 80.5916C126.867 80.2424 130.144 79.1929 133.103 77.5097C134.271 78.1046 135.554 78.4381 136.863 78.4871C137.389 79.3139 138.216 80.8178 139.043 82.3965C132.276 83.1484 125.66 88.7115 122.879 95.8541C120.247 91.6444 119.571 89.238 118.819 90.9673C118.142 92.3955 119.495 94.05 120.924 96.5312C122.503 99.2378 124.457 102.546 126.262 105.027C117.916 107.282 99.7216 107.132 87.3919 97.6591C88.4441 88.4861 91.0002 79.6898 91.4511 77.7344C91.9027 75.7047 89.8723 76.6072 89.572 77.9606C89.3466 78.8623 89.2709 79.1633 88.4441 82.0954C87.0151 78.3365 84.835 74.2009 83.0308 72.0956C86.037 70.6705 89.9465 68.7914 92.352 67.8889L92.3513 67.8897ZM86.0362 93.0765C84.6829 94.5796 75.5099 97.5873 71.4499 93.3019C73.4795 92.0991 75.2845 91.422 74.758 90.4455C74.2315 89.4689 73.8555 90.0695 70.0209 91.7239C68.9385 90.3061 68.193 88.6606 67.8408 86.912C71.5256 85.107 72.5022 85.0321 72.2019 84.2802C71.9016 83.5283 70.9234 83.4534 67.5405 84.8067C67.3151 81.423 68.6684 79.7694 70.1715 78.7171C72.0513 77.4387 70.1715 74.8077 72.127 73.6798C74.6831 72.1759 75.882 74.5359 77.5403 74.732C78.2907 74.8208 79.3445 74.5066 81.2243 73.2281C83.1034 75.1829 86.4871 81.5735 87.5393 86.0095C86.9154 88.337 86.414 90.6957 86.037 93.0757L86.0362 93.0765ZM105.809 129.165C96.1102 131.796 85.2086 128.037 84.6829 126.534C84.0807 125.481 85.81 123.827 87.0885 122.624C89.3435 124.203 99.4939 127.361 106.937 125.782C107.03 126.102 107.213 126.389 107.463 126.609C106.744 127.339 106.181 128.208 105.81 129.164L105.809 129.165ZM106.636 123.827C100.276 124.758 93.784 123.681 88.0658 120.744C86.3365 119.767 88.2164 105.632 88.3662 101.122C101.073 108.264 115.433 110.068 127.763 106.834C128.613 107.944 129.69 108.86 130.922 109.521C132.153 110.182 133.511 110.573 134.906 110.669C135.207 116.232 135.658 119.766 135.282 125.856C126.861 129.239 111.072 126.683 109.042 125.029C108.038 120.36 107.86 115.55 108.516 110.819C108.516 110.368 108.366 109.616 107.839 109.541C105.133 109.09 106.487 121.871 106.637 123.826L106.636 123.827ZM127.989 132.247C117.689 135.48 108.516 132.247 107.685 130.819C107.459 130.443 107.608 129.541 109.264 127.511C114.976 129.691 128.737 131.045 135.954 127.887C135.132 129.992 129.869 131.645 127.989 132.247L127.989 132.247ZM144.981 105.557C143.536 106.74 141.877 107.633 140.094 108.189C138.666 105.409 137.745 103.36 137.011 104.203C136.239 105.09 136.71 105.331 137.988 108.639C130.395 109.918 127.763 103.903 124.23 98.4141C126.334 90.8955 133.177 84.8808 140.018 84.5805C140.631 85.9919 141.361 87.3499 142.199 88.6405C142.492 88.9248 142.856 89.1241 143.253 89.2168C143.651 89.3096 144.066 89.2924 144.454 89.167C144.985 89.0266 145.546 89.0443 146.067 89.2179C146.588 89.3915 147.047 89.7135 147.388 90.1444C147.644 90.604 147.778 91.1216 147.778 91.6479C147.778 92.1741 147.644 92.6917 147.388 93.1513C146.034 96.085 149.418 96.9102 148.215 100.895C147.88 102.063 147.289 103.142 146.485 104.053C144.305 101.497 143.629 99.3915 142.877 100.82C142.275 102.022 143.553 103 144.983 105.556L144.981 105.557Z" fill="#001434"/>
<path d="M109.57 46.313C110.472 45.7873 110.02 43.9823 107.464 43.0799C105.51 42.4036 103.404 42.7795 103.479 43.9823C103.556 45.4862 105.585 43.9823 108.291 46.0876C108.434 46.2823 108.647 46.4143 108.885 46.4563C109.123 46.4983 109.368 46.447 109.57 46.313Z" fill="#001434"/>
<path d="M109.119 55.1079C106.938 55.7842 106.339 59.3184 107.615 59.8442C107.749 59.8864 107.891 59.8975 108.03 59.8767C108.169 59.8559 108.302 59.8036 108.418 59.7239C108.534 59.6442 108.63 59.5392 108.699 59.4168C108.768 59.2944 108.809 59.1578 108.818 59.0173C108.721 58.1928 108.74 57.3629 109.644 57.0626C110.772 56.7615 111.675 57.1398 112.655 58.2654C112.744 58.376 112.856 58.4665 112.982 58.5311C113.109 58.5956 113.248 58.6328 113.39 58.64C113.531 58.6473 113.673 58.6246 113.806 58.5734C113.938 58.5221 114.058 58.4435 114.158 58.3426C115.338 57.1931 112.126 54.2054 109.119 55.1079Z" fill="#001434"/>
<path d="M122.801 50.9731C124.124 51.2815 125.375 51.843 126.485 52.6267C127.613 53.5292 129.342 52.6267 127.989 51.0479C126.633 49.6527 124.816 48.7977 122.877 48.6424C121.523 48.5667 121.297 50.672 122.801 50.9731Z" fill="#001434"/>
<path d="M112.051 64.9574C110.702 65.1572 109.33 65.1312 107.991 64.8802C104.081 64.129 108.441 72.3988 111.749 71.8723C114.532 71.423 115.283 64.2803 112.051 64.9574Z" fill="#001434"/>
<path d="M128.516 55.3329C121.824 49.6972 113.253 54.9569 115.735 61.949C116.937 65.257 122.05 68.1142 125.659 67.438C131.072 66.6104 133.177 59.2423 128.516 55.3329ZM125.283 65.4825C123.704 65.7835 121.223 64.8062 119.493 63.3772C122.377 61.5875 125.117 59.5765 127.69 57.3625C130.624 59.7688 128.741 64.8811 125.283 65.4825Z" fill="#001434"/>
<path d="M37.4678 58.5664C49.5721 58.5664 49.0479 40.8226 37.3906 41.048C26.1147 41.2735 26.5655 58.5664 37.4678 58.5664ZM32.2799 45.0331C36.3399 39.8452 45.5878 43.8303 44.8351 50.1454C43.332 62.7013 24.3105 55.3332 32.2799 45.0331Z" fill="#001434"/>
<path d="M15.3633 96.3837C19.424 97.6622 21.8296 85.6328 23.0324 82.8504C23.9349 79.2413 24.5363 78.3396 27.8443 76.7601C28.5206 78.7905 27.4683 82.5501 30.0245 83.8278C28.3701 88.0383 31.3029 88.1132 34.611 88.4892C35.1375 94.8799 35.6632 97.436 37.7685 97.436C39.8737 97.436 40.2497 94.2785 40.7793 88.5641C43.7129 88.2638 48.5982 87.8878 45.9664 83.9027C48.4476 82.6999 47.4703 78.941 48.0717 76.9106C51.3048 78.4901 51.7557 79.3919 52.6582 82.9253C54.0115 86.309 55.7408 95.5569 59.4997 96.6092C59.7525 96.6156 60.0034 96.5641 60.2332 96.4585C60.463 96.3529 60.6655 96.1961 60.8253 96.0001C60.985 95.804 61.0977 95.574 61.1547 95.3276C61.2117 95.0812 61.2115 94.8251 61.1541 94.5788C59.7259 88.8659 59.7259 79.4675 59.8757 74.8061C60.0262 67.513 54.4624 67.9638 50.4031 64.4304C57.0185 44.958 51.3048 28.3421 40.8542 16.6879C38.8238 14.8837 40.0274 7.21458 37.6967 7.1397C35.366 7.06481 36.9447 14.8088 34.9174 16.6879C24.0098 29.3195 18.8975 45.0329 25.3631 64.3555C21.3031 67.8889 15.5895 67.4381 15.74 74.8061C15.9654 79.4675 15.9654 88.8652 14.4616 94.5788C14.3858 94.9373 14.4337 95.3108 14.5974 95.6386C14.7612 95.9664 15.0311 96.229 15.3633 96.3837ZM31.0775 86.1585C31.2981 85.5769 31.4494 84.9713 31.5283 84.3543C32.4451 84.5588 33.3731 84.7094 34.3076 84.8052C34.3848 85.4822 34.3848 86.2334 34.462 86.9104C33.3151 86.7532 32.1831 86.5017 31.0775 86.1585ZM37.6936 95.1809C36.1148 88.94 35.5127 70.8959 35.5127 65.8586C36.1897 64.5809 38.8207 64.2798 39.4978 65.8586C40.4072 68.1321 38.7165 92.7507 37.6936 95.1809ZM40.8511 86.9104C40.9429 86.2122 40.9944 85.5093 41.0055 84.8052C42.2083 84.728 43.3362 84.5049 44.3135 84.3543C44.4733 84.9543 44.7001 85.5344 44.9898 86.0836C43.6364 86.4769 42.2517 86.7535 40.8511 86.9104ZM53.3314 68.7158C55.7377 70.2196 58.0684 70.6705 57.843 74.7305C57.6176 79.0159 57.6175 87.2864 58.7455 93.3011C56.3391 89.1662 54.9109 82.6999 53.407 78.7156C52.5045 76.8357 49.723 75.4068 48.3697 74.8061C48.8962 71.573 49.4219 68.9389 49.9484 66.6862C51.1512 67.4381 52.2035 68.0395 53.3314 68.7158ZM35.7389 19.0942C36.6406 18.0412 37.4682 16.989 37.7685 13.4586C37.7685 13.3042 37.9939 13.3042 38.0696 13.4586C38.4455 16.9164 39.2723 17.9694 39.9486 18.8719C41.603 21.2026 43.7083 23.1573 45.9633 27.5184C42.355 29.9247 33.859 30.225 30.0245 27.5184C31.709 24.5671 33.6195 21.7506 35.7389 19.0942ZM29.1976 28.8655C33.5587 31.7992 42.4298 31.5722 46.716 28.8655C47.4018 30.1651 48.0287 31.4948 48.5951 32.8506C44.1591 37.136 31.7538 36.9855 27.3935 32.5495C27.9949 31.3491 28.5963 30.0706 29.1976 28.8655ZM24.5363 45.4838C24.585 41.6247 25.3233 37.8054 26.7164 34.2063C31.7538 38.6422 44.0866 38.792 49.1965 34.4317C52.6551 42.5517 50.9767 54.7548 48.9711 61.7986C47.135 68.2329 45.9263 74.8298 45.3619 81.4971C44.6108 82.4745 42.8807 82.2491 41.1522 82.625C41.5274 77.5128 42.1751 66.4762 41.3019 64.8063C39.7448 61.8264 34.912 62.0997 33.5587 64.9607C33.2576 65.5621 33.1071 67.3663 34.0845 82.5532C32.5806 82.2529 31.0775 82.4035 30.4004 81.4253C28.9722 63.829 24.8366 61.7237 24.5363 45.4838ZM17.7696 74.6556C17.5442 69.0917 22.7321 69.2415 25.8896 66.4623C26.4161 68.793 27.0167 71.3491 27.4683 74.6571C26.115 75.2585 23.1829 76.7616 22.2805 78.6415C20.7017 82.6266 19.3468 89.0921 16.9428 93.2278C17.995 87.2864 17.995 79.0159 17.7696 74.6556Z" fill="#001434"/>
<path d="M34.6106 127.058C34.6106 128.186 35.0614 139.765 35.0614 141.269C35.0614 143.374 36.6402 143.224 36.6402 142.171C36.6402 140.366 36.3399 130.217 36.2642 128.337C36.1893 126.382 34.6106 126.006 34.6106 127.058Z" fill="#001434"/>
<path d="M55.2867 111.27C55.057 111.146 54.7924 111.1 54.534 111.141C54.2756 111.181 54.0379 111.306 53.8578 111.496C53.0309 112.172 54.6846 112.699 55.3616 113.075C44.3852 117.661 36.0391 120.894 34.9868 120.969C33.4829 120.744 21.1524 114.353 17.3179 112.022C18.4458 111.12 21.98 110.067 20.927 109.243C20.3256 108.792 19.8779 108.958 19.2734 109.093C17.0291 109.598 10.928 113.153 8.2962 115.108C5.83272 116.915 2.38185 119.793 4.53652 121.95C6.79233 123.904 10.5512 126.836 12.6565 128.265C12.6565 129.694 12.8449 133.677 12.8827 135.257C12.9033 135.687 13.0921 136.092 13.4084 136.385C17.1681 139.768 33.1819 148.264 36.1147 147.512C39.9485 146.535 54.7602 138.415 59.4216 134.28C60.8498 133.002 60.0987 128.716 60.2484 124.431C64.459 121.497 66.609 120.22 66.6391 119.018C66.6769 117.509 61.3014 114.052 55.2867 111.27ZM13.0325 125.931C11.6043 124.879 6.316 121.653 5.96551 120.368C5.63972 119.171 10.2509 115.781 15.2883 113.15C17.9949 115.029 28.5205 120.443 32.9564 122.323C22.732 131.344 24.164 132.172 22.5814 132.021C21.5284 132.097 14.8374 127.209 13.0325 125.931ZM58.5184 132.021C55.1354 135.781 51.5263 137.284 46.8649 140.066C43.3314 142.021 38.2184 145.254 35.8129 145.404C32.6553 145.629 20.8514 138.788 15.8179 135.555C15.5931 135.406 15.4075 135.205 15.2766 134.97C15.1457 134.734 15.0735 134.471 15.0659 134.201C14.9887 132.999 14.9115 131.044 14.9115 129.54C28.4448 138.863 20.25 133.45 35.0609 123.375C48.3688 135.254 38.8955 134.955 58.3686 125.48C58.4412 127.285 58.5956 130.292 58.5184 132.021ZM59.7219 122.247C59.1099 122.688 58.4547 123.066 57.7664 123.375C49.0327 127.479 46.5646 129.916 45.0607 130.067C43.4063 130.217 43.0311 127.736 37.1662 122.548C41.3011 121.195 49.9475 117.736 57.2384 114.653C60.0176 115.781 63.8545 118.112 63.9294 119.014C63.9324 119.616 61.2258 121.27 59.7227 122.247H59.7219Z" fill="#001434"/>
</svg>
