<svg width="155" height="155" viewBox="0 0 155 155" fill="none" xmlns="http://www.w3.org/2000/svg">
<path d="M14.9953 98.1039C15.2964 90.3476 18.6099 85.9834 18.6099 85.9834C16.8783 86.7361 11.6826 88.5434 9.19755 90.9536C8.14376 92.5347 9.27475 95.3957 9.27475 95.3957L17.2542 124.307C18.0077 126.868 21.9982 125.061 22.2993 123.028C22.6004 120.92 22.676 118.058 23.8055 116.101C19.3626 114.142 14.6942 105.856 14.9953 98.1039Z" fill="#615FFF"/>
<path d="M106.03 61.208L101.964 77.3213C104.148 74.2333 109.418 73.4806 109.418 73.4806C108.138 71.9003 108.289 68.0596 108.44 65.7258C106.256 65.048 106.03 61.208 106.03 61.208Z" fill="#615FFF"/>
<path d="M100.909 20.698C101.362 23.258 104.148 24.1612 106.18 23.258C108.063 25.5917 110.849 29.6579 112.43 30.6368C113.183 31.1641 114.614 30.6368 110.321 25.8179C109.418 24.7634 107.762 22.8843 107.388 22.3539C107.915 21.6769 108.97 19.0413 107.012 17.234C108.945 14.678 110.73 12.013 112.357 9.25221C112.885 8.19842 111.454 7.82168 109.424 11.1351C108.219 13.0929 107.39 14.3729 105.96 16.3307C105.445 16.1763 104.904 16.1309 104.372 16.1974C103.839 16.264 103.326 16.4409 102.865 16.717C102.404 16.9931 102.007 17.3623 101.697 17.8009C101.387 18.2395 101.172 18.738 101.066 19.2644C99.6346 19.1872 98.2041 19.11 93.7619 19.0382C89.6958 18.961 84.0485 18.2098 85.4034 19.716C85.9245 20.3954 96.6925 20.6223 100.909 20.698Z" fill="#615FFF"/>
<path d="M23.8051 48.1814C22.2989 49.1603 18.6094 52.3981 17.629 53.1508C16.1228 51.7959 12.6596 51.7203 10.8523 53.9791C9.12071 53.1508 5.43051 49.8373 5.20432 51.4941C5.05455 52.5486 6.48508 53.4519 10.024 55.2591C8.89451 58.1202 11.0777 61.2082 14.0145 61.5124C14.0802 64.9119 14.3318 68.3053 14.7679 71.6774C14.9934 73.2585 15.3508 75.7212 16.4996 74.7654C16.8701 74.4566 16.654 73.7109 16.5768 72.4309C16.0487 67.7626 15.5971 67.0847 15.5222 61.4375C18.8349 61.2121 20.4916 56.6935 18.6874 54.2841C21.3987 51.9503 25.031 49.4004 25.6154 48.3396C26.3897 46.9145 24.7816 47.5036 23.8051 48.1814Z" fill="#615FFF"/>
<path d="M140.366 40.8772C126.21 39.2961 140.818 46.299 120.638 44.115C117.401 43.5128 120.864 39.8234 117.249 39.8983C115.518 39.8211 113.485 39.6721 112.054 41.0277C110.622 42.3834 108.289 53.6022 108.289 53.6022C108.289 53.6022 112.054 45.0939 131.179 48.9339C138.333 50.3652 141.119 55.0327 141.119 55.0327C141.119 55.0327 142.475 49.1601 143.227 45.6961C143.903 42.2328 141.646 41.0277 140.366 40.8772Z" fill="#615FFF"/>
<path d="M93.6812 74.31C93.9066 73.2554 91.2718 74.5354 88.034 75.5143C86.6803 75.864 85.348 76.2914 84.0435 76.7943C83.7562 76.229 83.2899 75.7747 82.7173 75.5023C82.1447 75.2298 81.4981 75.1545 80.8782 75.2881C80.4009 75.3467 79.9402 75.5005 79.5234 75.7405C78.9961 75.1375 70.4909 62.6387 68.2281 63.3884C67.8514 63.5389 67.927 63.9905 68.2281 64.2924C73.8761 70.2368 75.0805 73.3249 78.5444 76.7163C78.3229 77.0987 78.1821 77.5224 78.1306 77.9612C78.079 78.4001 78.1179 78.8449 78.2449 79.2682C78.3718 79.6915 78.5841 80.0843 78.8686 80.4224C79.1532 80.7605 79.5039 81.0367 79.8993 81.2341C78.5445 84.5468 72.8972 98.2507 75.3066 98.402C75.4677 98.3891 75.6224 98.3334 75.7547 98.2407C75.8871 98.148 75.9922 98.0217 76.0594 97.8747C77.5648 92.0013 80.2761 84.8478 81.4055 81.61C81.8358 81.6574 82.2712 81.6049 82.6779 81.4565C83.0845 81.3082 83.4515 81.0681 83.7503 80.7549C84.049 80.4416 84.2715 80.0637 84.4004 79.6504C84.5293 79.2372 84.5612 78.7998 84.4935 78.3723C92.4761 75.5892 93.3045 75.9659 93.6812 74.31Z" fill="#615FFF"/>
<path d="M57.4632 75.4396C56.9359 72.6534 55.5802 72.201 53.5475 72.7283C51.5141 73.3312 37.4342 78.6017 37.4342 78.6017C41.8763 77.9995 45.792 80.2584 50.0087 83.6468C53.4727 85.6795 54.1497 84.0235 55.8821 84.8511C59.1948 88.0163 57.9148 93.7361 56.1832 99.2328C58.141 100.061 59.421 101.266 60.8515 101.868C61.6042 102.17 62.658 101.116 62.5082 100.363C61.3031 94.9412 57.9148 77.6977 57.4632 75.4396Z" fill="#615FFF"/>
<path d="M138.784 135.753C136.043 133.942 133.174 132.331 130.2 130.933C127.941 129.927 125.753 128.77 123.65 127.47C124.854 123.253 121.692 120.844 119.283 120.693C118.906 113.013 118.003 104.354 117.776 102.697C117.55 100.815 116.195 100.89 116.195 103.449C116.273 106.538 117.55 116.853 117.702 120.693C115.443 121.07 113.108 123.028 113.861 126.715C111.752 127.544 109.644 127.995 107.009 128.748C102.806 129.948 98.6805 131.406 94.6571 133.115C93.0004 133.869 92.8499 134.848 93.6026 134.848C95.0339 134.925 100.832 132.438 114.31 128.221C115.966 131.685 120.785 131.685 122.818 128.748C127.428 131.574 132.179 134.163 137.053 136.505C139.387 137.635 139.839 136.428 138.784 135.753Z" fill="#615FFF"/>
<path d="M69.5857 31.0139C69.5857 31.0139 75.6845 33.1971 77.6424 37.5652C79.6002 36.1346 80.2031 34.2517 79.8264 31.6161C79.374 28.9055 77.8686 18.2889 76.5878 14.8249C75.307 11.3609 74.5551 7.82203 67.2511 8.2752C59.9472 8.72837 41.8011 10.3071 35.3255 11.8882C28.85 13.4693 29.1495 16.6322 29.4521 19.4932C30.6565 24.0867 30.7321 41.4051 35.2499 42.9105C35.2499 42.9105 37.6115 36.5924 41.876 33.6464C41.9744 33.5754 42.0503 33.4776 42.0947 33.3646C42.1391 33.2516 42.15 33.1283 42.1263 33.0093C42.1025 32.8903 42.0451 32.7806 41.9607 32.6933C41.8764 32.606 41.7687 32.5448 41.6506 32.517C36.9066 32.3626 35.5517 24.7606 39.3909 24.1585C35.551 11.3632 58.5954 9.02714 64.6943 13.3187C70.5615 16.2554 71.8446 26.649 69.5857 31.0139Z" fill="#615FFF"/>
<path d="M135.321 39.9745C132.535 39.9745 132.911 42.9853 131.104 43.4377C129.372 43.8144 120.883 43.7959 120.035 42.9104C119.152 41.984 120.637 39.5977 118.077 39.2966C110.548 38.3926 109.945 42.4619 108.44 48.9344C106.256 57.8951 100.458 78.4513 99.9306 84.324C99.4041 90.6498 108.59 92.1552 125.381 94.7152C131.104 95.6192 133.213 92.6825 134.192 88.6163C136.3 79.8062 140.213 61.3583 142.624 51.4944C143.829 46.6006 144.583 43.5882 143.528 41.8566C142.474 40.1999 140.065 39.8988 135.321 39.9745ZM105.955 63.8434C106.206 64.6339 106.709 65.3211 107.385 65.8012C106.849 68.2184 107.169 70.7466 108.289 72.9546C106.4 73.2284 104.611 73.9799 103.094 75.1378C103.922 71.6746 104.976 67.759 105.955 63.8434ZM132.685 88.316C132.008 91.1771 130.276 94.0381 123.725 92.9094C106.256 89.8986 101.286 88.3909 101.362 84.2498C101.581 82.0365 101.984 79.8452 102.566 77.6986C104.333 75.842 106.715 74.6915 109.267 74.4616C111.226 77.0964 114.388 78.9037 118.077 79.8826C116.873 81.0877 115.292 82.3677 114.463 82.292C113.936 82.292 112.71 81.327 111.904 80.0331C111.672 79.661 111.451 79.5815 111.15 79.8826C110.398 80.6361 112.807 83.7226 114.463 83.7982C115.668 83.8754 118.53 81.8404 119.659 80.2593C120.228 80.4023 120.807 80.503 121.391 80.5604C121.993 82.9699 123.123 86.2833 125.833 86.2833C127.565 86.2833 130.501 84.5509 129.899 83.7226C129.674 83.4215 129.378 83.4292 128.996 83.7226C127.586 84.8034 125.532 85.0026 124.854 84.6266C124.402 84.3247 123.499 82.5182 122.972 80.7858C127.339 81.4637 132.761 80.3342 134.869 79.2804C134.083 82.2777 133.355 85.2899 132.685 88.3152V88.316ZM135.321 76.871C135.02 78.0004 128.243 80.6361 120.112 78.8288C111.527 76.9451 107.309 71.7495 108.967 65.2739C110.322 66.2528 112.506 66.5539 114.162 66.6295C117.852 66.7067 119.132 62.3372 117.475 59.9278C116.421 58.3467 114.087 57.7445 110.699 58.0456C112.129 54.7322 114.237 53.754 117.776 56.9162C120.371 59.2221 123.118 59.4167 122.595 55.9373C124.402 56.8405 127.716 59.8529 129.674 59.3256C130.276 59.1002 130.802 58.5729 130.954 57.2929C133.439 58.3467 135.321 61.2834 138.784 61.2085C137.73 66.2528 135.321 76.7946 135.321 76.8702V76.871ZM112.883 59.4012C114.313 59.4784 115.744 59.8529 116.27 60.6056C116.873 61.3583 116.873 64.5212 115.216 65.0485C114.991 65.1257 114.689 65.1257 114.463 65.199C114.011 63.015 113.331 60.9067 112.883 59.4012ZM139.237 59.7023C135.773 60.0034 133.89 55.9373 130.954 55.7867C129.297 55.7095 129.824 57.8194 128.996 57.8951C126.526 57.3068 120.52 50.9014 121.24 57.1416C119.132 56.69 116.346 53.2267 113.861 53.3773C110.927 53.6027 108.59 57.5183 107.611 63.919C107.009 62.9401 106.783 61.3583 107.385 58.0456C110.079 43.4678 137.018 48.6387 140.215 55.0348C139.914 56.4638 139.613 58.0456 139.237 59.7023ZM140.742 53.0762C135.848 47.6544 117.024 43.8121 109.419 51.2689C109.569 50.5911 109.795 49.9889 109.87 49.3868C111.602 43.0617 111.15 39.8239 118.228 40.8777C118.228 42.0072 117.927 43.2115 119.056 44.1912C120.713 45.546 130.2 45.3198 131.331 45.0188C133.891 44.4166 133.589 42.6093 134.644 41.781C135.322 41.2544 136.225 41.3293 139.312 41.6312C140.893 41.781 141.872 42.1577 142.246 42.9104C142.775 43.7395 142.624 45.1701 140.742 53.0762Z" fill="#001434"/>
<path d="M126.21 62.0359C125.607 63.1653 124.93 66.0271 126.059 67.6082C126.888 68.8133 130.577 69.3398 132.761 69.3398C135.321 69.3398 135.998 68.1355 136.45 66.329C136.751 65.049 136.902 63.6185 135.998 62.6396C133.439 59.9275 127.339 59.9275 126.21 62.0359ZM134.947 63.542C135.549 64.0693 135.173 67.4577 133.894 67.8344C133.386 68.0112 132.849 68.0878 132.312 68.0598C131.87 66.0162 131.291 64.0045 130.58 62.0382C132.169 62.0014 133.718 62.5349 134.947 63.542Z" fill="#001434"/>
<path d="M124.553 69.3407C123.574 69.1153 122.369 69.7174 121.164 69.9428C119.959 70.1683 118.604 69.9428 118.154 70.8469C117.175 72.729 120.788 74.9879 122.898 75.0636C125.76 75.2133 127.188 70.0177 124.553 69.3407ZM119.507 71.5988C121.108 71.4939 122.695 71.242 124.25 70.8461C125.306 74.5355 121.014 74.1588 119.507 71.5988Z" fill="#001434"/>
<path d="M31.7871 39.5216C32.6904 43.9645 36.3049 43.9645 39.9943 43.9645C48.051 43.211 82.0849 43.8873 80.5795 32.67C79.938 26.0657 78.6777 19.5362 76.8152 13.1676C75.6109 9.32762 73.8816 7.29493 67.7827 7.52035C55.961 7.89709 36.3088 10.6856 33.1459 11.6622C30.5102 12.4905 28.1765 13.8454 28.5524 18.2127C29.2045 25.3738 30.2847 32.4895 31.7871 39.5216ZM39.9187 21.7515C39.6176 17.9872 42.027 15.4265 45.491 13.9211C44.587 15.5778 44.4365 17.6861 45.1143 17.8359C45.4154 17.9131 45.5659 17.8359 45.6416 17.4599C46.0421 15.9137 46.7318 14.4572 47.6743 13.1676C48.4277 12.9414 49.2561 12.7916 50.0088 12.6403C50.086 13.9211 50.235 16.481 50.9121 16.4054C51.6655 16.4826 51.6655 13.9959 51.4393 12.4149L53.6982 12.1887C55.2044 13.8454 56.1077 16.4054 56.3339 16.7821C56.5601 17.1589 56.7098 17.3843 57.0866 17.3843C57.9149 17.3843 57.539 14.3735 55.7309 12.1887C56.9934 12.143 58.2569 12.2443 59.496 12.4905C59.9249 12.9781 60.3033 13.5078 60.6255 14.0716C61.0022 14.7487 61.0022 15.5021 61.3789 15.6527C62.1316 15.8789 62.6582 14.297 61.8306 13.017C63.7217 13.7157 65.4054 14.8813 66.7251 16.4054C65.9932 16.0785 65.1814 15.9738 64.3905 16.1043C63.1181 16.2323 61.9377 16.8259 61.0761 17.771C60.2145 18.7161 59.7323 19.9462 59.7222 21.225C59.645 23.7842 60.3244 25.5166 64.9178 25.7428C67.8514 25.8972 68.984 25.2912 69.8872 24.161C70.1134 28.3028 69.4572 29.5202 68.8327 30.5617C67.2323 33.2313 63.4116 34.8533 57.2371 35.5311C45.5659 36.8867 43.7586 31.6155 41.7259 31.6155C38.5607 31.6155 36.1536 26.4955 39.0154 25.065C40.0677 24.4621 40.0677 23.4059 39.9187 21.7515ZM66.2735 17.6105C65.269 19.7231 64.4379 21.9138 63.7884 24.161C63.0147 24.197 62.2582 23.9256 61.6839 23.4059C60.3622 21.4999 61.6067 17.3071 65.2228 17.5325C65.5748 17.5183 65.9274 17.5445 66.2735 17.6105ZM33.5187 13.017C36.684 12.0381 57.2371 9.17708 68.6072 8.876C73.5018 8.876 74.4807 10.6833 75.309 13.4694C77.122 19.7174 78.357 26.1188 78.9985 32.5928C79.6755 37.563 70.1134 39.8968 59.9484 41.0262L58.5187 39.3711L59.1965 38.3173C60.0647 38.9608 61.0679 39.3984 62.1301 39.5973C63.1085 39.5827 64.047 39.2074 64.7657 38.5435C65.2174 38.1667 64.9842 37.3229 64.3133 37.6394C63.7048 37.9618 63.0408 38.1661 62.3563 38.2416C61.7541 38.2416 60.925 37.7143 59.7207 36.6605C64.0123 35.8322 67.7773 34.1006 69.8108 31.6911C73.5002 32.8206 75.0064 35.0795 76.1351 35.3049C77.3402 35.5311 75.1562 32.3713 70.6384 30.4111C71.0656 29.4637 71.2962 28.4394 71.3162 27.4003C71.3162 23.1828 71.1618 18.665 67.1752 14.4483C64.0099 11.1357 57.4618 10.0062 51.4378 10.7589C49.9112 11.0153 48.4023 11.3676 46.92 11.8135C41.2743 13.6192 37.2113 17.6105 38.4882 23.6375C34.422 25.5197 36.6809 32.67 41.3492 33.0491C38.1122 35.1574 34.1209 40.5792 36.0787 40.1269C36.7565 39.9771 39.6176 35.8353 42.63 33.9508C45.4154 36.1348 49.8583 37.4148 54.6015 37.1886C54.2255 38.017 53.2466 39.2221 52.2677 39.3718C51.7404 39.449 49.7826 38.5442 49.6321 39.0707C49.2561 40.1245 51.4393 40.6526 52.3434 40.7275C53.7739 40.8047 54.3004 39.8242 55.5086 38.5442L56.4118 39.4475L55.4306 41.6307C47.2983 42.3078 39.6933 42.3078 37.8111 42.4583C34.8003 42.3811 33.7449 41.6307 33.2184 39.2213C31.7838 32.2272 30.7029 25.1651 29.9799 18.0621C29.6788 14.9 31.0352 13.8454 33.5187 13.017Z" fill="#001434"/>
<path d="M124.478 41.6312C125.985 41.5934 127.251 41.2506 127.412 40.6523C127.62 39.8942 127.035 39.5977 124.401 39.6726C122.971 39.6726 121.691 39.827 121.616 40.5766C121.542 41.1788 121.618 41.703 124.478 41.6312Z" fill="#001434"/>
<path d="M49.4814 26.7257C53.096 26.9511 54.9032 25.5206 55.2792 23.4879C55.6494 23.1387 56.1276 22.926 56.6349 22.885C57.6138 22.885 57.9148 24.0901 58.6675 24.0901C59.8727 24.0129 58.5904 21.4923 56.7097 21.4545C56.1899 21.4161 55.6695 21.5202 55.2043 21.7555C54.8276 19.1207 53.0203 17.0123 48.6531 17.3883C44.9637 17.6901 41.8934 22.7923 44.4364 25.445C45.6152 26.6717 48.5782 26.6485 49.4814 26.7257ZM49.6358 18.6683C50.0418 18.6781 50.4456 18.7298 50.8409 18.8227C49.6995 20.8626 48.6937 22.9755 47.8301 25.1477C46.7756 24.9933 45.8638 24.7772 45.5704 24.3201C44.326 22.3762 46.0931 18.5895 49.632 18.6644L49.6358 18.6683Z" fill="#001434"/>
<path d="M119.207 66.78C120.713 66.8572 119.433 63.6148 122.746 64.6717C122.936 64.736 123.143 64.725 123.326 64.641C123.508 64.557 123.651 64.4064 123.725 64.2201C124.101 62.7895 120.715 62.4884 119.658 63.4666C118.53 64.5211 118.003 66.7051 119.207 66.78Z" fill="#001434"/>
<path d="M58.668 29.66C57.388 30.1124 53.548 30.1124 52.3437 28.5306C52.2179 28.3793 52.0407 28.2798 51.846 28.2513C51.6513 28.2228 51.453 28.2673 51.2891 28.3762C50.1597 30.6351 54.828 31.4642 56.5604 31.4642C57.4224 31.4663 58.2816 31.3652 59.1196 31.1631C60.0993 30.713 59.572 29.2825 58.668 29.66Z" fill="#001434"/>
<path d="M144.134 35.9081C141.8 35.0049 132.162 34.4019 124.03 34.703C114.015 35.0049 108.97 34.026 106.712 41.4797C103.546 51.796 97.6019 75.8911 96.5466 84.9267C95.3415 95.0917 106.259 96.5223 124.858 99.2328C131.861 100.212 134.647 98.5557 136.978 96.1447C139.237 93.811 141.496 83.4954 144.281 70.921C146.239 62.1108 148.498 54.8069 149.854 45.8469C150.606 40.5764 148.648 37.6397 144.134 35.9081ZM147.975 45.5459C146.695 54.1298 144.21 62.337 142.553 69.7166C139.542 82.9689 137.131 92.9834 135.399 94.8663C132.466 97.9543 127.644 98.0315 117.026 95.9957C107.916 94.2634 97.0715 92.758 98.4272 84.8511C101.772 66.0673 103.896 58.7279 108.517 41.631C109.421 38.2419 112.432 37.263 114.461 36.9619C121.464 36.1343 140.063 36.5103 143.602 37.7146C147.293 38.9954 148.648 41.1786 147.971 45.5459H147.975Z" fill="#001434"/>
<path d="M28.3986 46.1485C29.2262 49.9885 31.787 51.1928 35.5513 51.2684C36.3048 51.2684 41.7273 51.3456 45.9425 51.114C46.0969 51.8667 46.0197 53.0719 46.0969 54.0477C40.4497 54.5757 39.0191 55.3284 39.1697 57.0585C39.4708 60.4468 43.4613 60.372 46.0969 60.372C51.1381 60.3079 66.7998 58.9484 70.7934 57.0654C71.9977 56.4625 70.9432 55.7098 68.1578 56.3127C64.016 57.216 53.3121 59.197 42.8576 58.4211C42.0284 58.3593 41.2765 57.9695 41.2765 57.1403C41.1221 56.1622 44.1375 56.1622 46.3208 55.936C54.3782 55.1833 64.016 54.2793 71.1694 52.7708C72.2239 52.5446 73.2198 52.4666 73.3534 53.4478C73.5263 54.7255 74.7083 54.5024 74.8588 53.525C75.2355 50.664 74.181 50.5142 68.1578 51.3418C67.9549 50.5291 67.8535 49.6943 67.8559 48.8567C71.5806 48.2502 75.2553 47.3693 78.8501 46.2211C80.6176 45.5993 82.1228 44.3977 83.1208 42.8119C84.1188 41.226 84.5509 39.3492 84.3468 37.4866C83.8944 31.6131 81.2587 16.7798 79.3017 10.4547C77.9461 6.01184 74.3323 4.20534 66.4254 4.43308C52.7948 4.80982 36.9795 6.84252 30.4313 8.64978C26.4401 9.77923 23.8801 12.7916 24.1819 17.0832C24.6336 22.2039 26.7419 38.6183 28.3986 46.1485ZM48.1265 53.8284C48.1497 52.861 48.0226 51.8958 47.7498 50.9674C53.5475 50.5906 60.1019 49.9885 65.9691 49.0844C65.9352 49.9439 66.0112 50.8042 66.1953 51.6444C60.7759 52.5484 53.9992 53.3011 48.1265 53.8284ZM30.7324 10.6076C36.8313 8.72544 52.7948 6.76763 66.1977 6.39089C74.2543 6.16546 76.3627 7.82142 77.4172 10.9087C79.3743 16.7065 82.0099 31.9173 82.4615 37.4889C82.6159 39.07 82.4615 42.9099 78.471 44.4161C68.8055 48.0538 46.0328 49.8341 35.6246 49.5361C32.1606 49.3863 30.8806 48.6328 30.2785 46.0728C28.5484 38.9233 26.4401 22.1283 26.0641 17.3071C25.7622 13.7705 27.1935 11.737 30.7324 10.6076Z" fill="#001434"/>
<path d="M39.768 95.8442C39.7713 95.938 39.7947 96.03 39.8366 96.114C39.8785 96.198 39.9379 96.2721 40.0109 96.3312C40.0838 96.3902 40.1686 96.433 40.2595 96.4565C40.3503 96.48 40.4452 96.4838 40.5377 96.4675C40.6301 96.4512 40.718 96.4153 40.7954 96.3621C40.8728 96.309 40.9378 96.2398 40.9862 96.1594C41.0346 96.0789 41.0651 95.989 41.0758 95.8958C41.0865 95.8025 41.077 95.708 41.048 95.6187C40.747 93.6609 39.6924 93.1738 38.2619 93.2093C35.1738 93.2865 34.0452 96.2201 35.4008 96.5976C35.7019 96.6748 35.9281 96.4471 36.0786 96.1452C36.907 94.4893 39.3473 93.82 39.768 95.8442Z" fill="#001434"/>
<path d="M38.4131 88.1641C41.1993 87.1096 43.0058 86.8841 42.4036 86.0558C41.8015 85.2274 39.2384 85.5285 38.0364 86.3568C37.3586 86.8085 37.2829 88.6157 38.4131 88.1641Z" fill="#001434"/>
<path d="M21.5464 123.103C21.9224 123.253 22.2235 122.801 22.2992 122.425C22.5053 120.614 23.0957 118.869 24.0308 117.305C25.4675 118.301 27.1181 118.946 28.8496 119.187C32.5398 119.413 35.326 116.099 36.3798 113.011C44.211 113.613 51.3645 109.697 53.3215 103.824C54.571 102.855 55.5554 101.586 56.1833 100.135C58.8182 100.661 60.3244 101.942 60.9265 101.942C61.68 102.019 61.7557 100.436 56.8611 98.6284C58.5171 94.6378 58.8938 88.915 57.6139 85.7528C56.936 84.0212 55.7317 83.795 53.9993 83.8699C48.1267 84.1717 46.3186 78.4489 40.8227 77.771C43.4059 76.7914 46.0171 75.8875 48.6532 75.0605C51.2888 74.2322 54.6748 73.1027 55.5055 73.5543C56.7855 74.2321 57.1622 77.5456 57.6139 79.8794C58.2917 83.4183 59.5717 83.2677 59.1949 81.3099C58.6676 78.5276 58.3642 73.7828 56.3339 72.5059C55.1295 71.7525 53.0961 72.4287 47.5237 74.1619C34.1232 78.3006 12.7386 87.7145 11.0047 88.5405C6.93853 90.4235 8.03864 93.4991 8.5196 95.5434C9.10246 98.0138 11.9836 108.796 13.0374 112.109C14.0912 115.422 15.2283 120.075 15.8992 120.392C16.9654 120.895 15.673 115.799 14.4687 111.658C13.2644 107.516 10.5531 97.5769 9.9509 95.1674C9.4985 93.2096 8.7458 91.1762 11.6825 89.8213C13.2636 89.0678 15.2214 88.2402 17.3297 87.3362C11.0765 96.4459 14.3961 110.227 22.8264 116.401C21.5464 118.359 20.5675 122.801 21.5464 123.103ZM20.2665 86.1311C24.9348 84.0984 34.0452 80.1866 35.7776 79.5806C44.2859 76.4926 47.2226 86.2068 54.4517 85.3784C54.808 85.3271 55.1712 85.3954 55.4845 85.5725C55.7978 85.7496 56.0436 86.0256 56.1833 86.3573C57.7497 90.7577 56.8611 96.598 54.3004 100.514C54.6838 98.3154 54.5573 96.0586 53.9308 93.9171C53.3042 91.7755 52.1943 89.8064 50.6866 88.1615C46.9216 84.0953 45.9427 86.2793 46.771 86.8058C51.3645 89.592 53.171 94.5622 52.7155 100.058C52.5373 101.664 52.0391 103.217 51.2503 104.627C50.4615 106.037 49.398 107.274 48.1228 108.266C44.9576 110.676 40.7432 111.654 36.7527 111.504C37.0538 109.772 37.3548 107.588 36.0749 107.061C33.5149 105.932 26.512 109.245 24.4793 101.639C22.1448 93.1309 33.2887 86.0531 43.7548 83.568C44.7345 83.4136 43.832 82.288 41.8726 82.7404C32.0843 85.0742 20.3336 92.0045 23.048 102.092C23.3575 103.56 24.083 104.909 25.1378 105.976C26.1927 107.044 27.5323 107.786 28.9971 108.113C31.0298 108.64 33.2138 108.264 35.0187 108.264C36.1474 108.264 35.6209 112.179 33.5126 115.191C32.082 117.149 29.8231 118.429 27.6391 117.6C15.9741 113.163 11.0047 96.0707 20.2665 86.1311Z" fill="#001434"/>
<path d="M28.3226 98.4046C26.8921 99.91 26.2143 102.621 27.6448 102.696C28.3983 102.696 28.1721 100.814 29.6026 99.3835C29.9998 98.9854 30.491 98.6938 31.0308 98.5358C31.5705 98.3778 32.1414 98.3584 32.6906 98.4795C32.7848 98.497 32.8816 98.4951 32.9751 98.4739C33.0686 98.4528 33.1567 98.4128 33.2342 98.3564C33.3118 98.3001 33.377 98.2286 33.4259 98.1462C33.4749 98.0638 33.5065 97.9723 33.519 97.8773C33.7436 96.1449 30.1299 96.5217 28.3226 98.4046Z" fill="#001434"/>
<path d="M42.4036 97.4261C41.4996 97.6516 41.7258 98.9316 40.1447 99.9105C38.7142 100.739 36.0037 101.492 36.3048 102.546C36.6058 104.052 43.5763 104.491 44.2858 102.847C45.0084 101.177 43.6087 97.1243 42.4036 97.4261Z" fill="#001434"/>
<path d="M129.674 41.7026C129.818 41.713 129.964 41.6934 130.101 41.6451C130.238 41.5969 130.363 41.5209 130.469 41.422C130.576 41.3231 130.66 41.2034 130.718 41.0703C130.776 40.9372 130.806 40.7936 130.806 40.6484C130.806 40.5033 130.776 40.3597 130.718 40.2266C130.66 40.0935 130.576 39.9738 130.469 39.8749C130.363 39.776 130.238 39.7 130.101 39.6517C129.964 39.6034 129.818 39.5839 129.674 39.5943C129.529 39.5839 129.384 39.6034 129.247 39.6517C129.11 39.7 128.984 39.776 128.878 39.8749C128.772 39.9738 128.687 40.0935 128.629 40.2266C128.571 40.3597 128.541 40.5033 128.541 40.6484C128.541 40.7936 128.571 40.9372 128.629 41.0703C128.687 41.2034 128.772 41.3231 128.878 41.422C128.984 41.5209 129.11 41.5969 129.247 41.6451C129.384 41.6934 129.529 41.713 129.674 41.7026Z" fill="#001434"/>
<path d="M40.973 92.3057C42.4784 92.6824 41.0502 88.3901 45.9424 88.8425C46.3941 88.9197 46.6951 88.6881 46.6951 88.3152C46.5407 86.9595 43.1563 86.9595 41.6509 88.6163C40.8225 89.5195 39.6923 92.0046 40.973 92.3057Z" fill="#001434"/>
<path d="M23.4285 134.097C25.3106 135.452 40.9731 147.726 48.8793 148.478C53.6225 148.629 59.6464 142.302 62.9599 140.422C64.4661 139.518 65.8935 141.852 67.8536 140.572C72.5976 137.561 77.7932 133.796 78.6973 132.741C79.8267 131.462 79.1489 129.807 80.4289 128.826C91.1961 120.619 92.7038 119.489 92.6266 118.736C92.4722 117.833 89.1626 121.145 79.5997 127.621C77.8681 128.751 78.5459 130.555 77.6419 131.763C77.0398 132.59 69.2842 138.163 67.5518 138.916C66.813 139.155 66.0136 139.128 65.2929 138.838C62.8086 138.01 62.2821 139.065 57.1613 142.829C53.1701 145.762 50.0079 147.949 44.3607 145.389C36.0778 141.549 26.515 134.622 24.4823 133.268C23.5041 132.741 22.1485 133.118 23.4285 134.097Z" fill="#001434"/>
<path d="M29.7532 94.1889C30.8827 93.0595 29.5463 92.3299 28.247 93.3605C26.9848 94.3641 25.8376 96.8994 26.8922 97.2762C27.7205 97.5772 28.6238 95.3183 29.7532 94.1889Z" fill="#001434"/>
<path d="M35.0998 131.988C35.5514 131.91 37.5841 130.481 41.5754 128.072C42.931 128.976 44.509 130.03 46.0183 130.933C45.5659 131.31 44.587 131.988 43.4575 133.042C42.4038 134.02 42.931 134.322 43.4575 134.247C44.211 134.096 44.8132 133.644 47.4488 131.837C48.5451 132.449 49.6022 133.128 50.6141 133.871C51.6686 134.548 52.253 133.667 51.2162 132.816C50.1431 131.935 49.2592 131.159 48.8824 130.783C49.8466 130.129 50.7765 129.425 51.6686 128.675C53.4002 127.244 51.227 127.563 50.3879 128.072C48.9751 128.931 48.8068 129.127 47.5268 129.879C46.0963 128.976 44.516 127.997 43.009 127.169C46.4969 125.116 50.0112 123.109 53.5508 121.147C54.6802 121.976 55.8853 122.729 57.014 123.557C54.5297 125.514 55.4159 126.391 56.4875 125.741C57.5258 125.111 57.8424 124.837 58.4453 124.535C60.102 125.665 61.8336 126.794 63.5652 128.074C59.6496 130.861 56.4628 133.096 55.2824 134.55C54.742 135.217 55.4368 135.755 56.5631 134.927C60.1769 132.367 61.2307 131.689 64.8452 129.053C65.3725 129.43 65.5987 129.656 66.2009 130.108C67.1041 130.786 67.7071 129.505 66.0503 128.15C69.1841 125.87 72.2965 123.56 75.387 121.222C77.0437 122.277 77.9555 122.885 78.3206 122.352C78.7838 121.682 78.1662 121.298 76.7396 120.168C78.0952 119.114 79.2995 118.136 80.2036 117.307C80.5046 117.081 80.8034 116.487 80.429 116.403C79.823 116.267 78.6974 116.93 75.2334 119.265C74.405 118.738 71.6188 116.856 70.8661 116.254C72.2218 115.351 72.8239 114.899 73.7272 114.296C74.405 113.845 73.8044 113.092 71.4691 114.296C71.0167 114.523 70.1134 115.05 69.5861 115.351C68.6829 114.673 67.704 113.92 66.7251 113.318C67.4021 112.866 67.7789 112.64 68.5316 112.188C69.285 111.661 68.2305 110.909 66.7251 111.662C66.194 111.881 65.6889 112.158 65.2189 112.489C64.0138 111.887 63.5622 111.586 63.0349 111.887C62.5076 112.188 62.9577 112.715 63.7127 113.393C61.0022 115.05 55.1295 118.514 53.4728 119.415C50.0837 116.779 48.8794 117.608 49.9339 118.512C50.9885 119.416 51.3644 119.641 52.0415 120.167C48.9535 121.824 44.8132 124.083 41.2743 126.189C40.2712 125.456 39.213 124.801 38.1091 124.231C36.9789 123.704 36.7534 124.683 37.4313 125.21C38.4102 125.963 38.7112 126.039 39.9156 127.017C37.964 128.11 36.1449 129.423 34.4945 130.932C34.1232 131.611 34.3471 132.138 35.0998 131.988ZM65.4443 114.293C66.3483 114.895 67.4021 115.572 68.4551 116.326C68.1541 116.552 67.4762 117.079 67.25 117.229C66.7984 117.681 67.5511 118.51 69.8108 117.229C71.3162 118.284 72.8988 119.413 74.2529 120.317C72.2202 121.898 67.6268 125.287 65.066 127.094C63.4248 125.846 61.7155 124.69 59.9461 123.631C61.3766 122.727 63.485 121.372 64.1628 120.92C64.8406 120.469 64.9201 119.93 64.4639 119.715C63.793 119.399 59.9461 121.748 58.4422 122.649C57.9906 122.348 55.8066 120.917 54.9782 120.314C58.6676 118.209 62.2065 116.175 65.4443 114.293Z" fill="#001434"/>
<path d="M93.3799 114.895C91.0454 113.84 72.6732 106.387 66.7997 103.902C64.6914 92.6064 62.9598 84.0233 62.0557 78.3004C60.4747 68.7375 58.364 66.5535 50.9118 68.8132C43.2327 71.1469 30.5061 75.7404 9.72756 84.3992C3.10142 87.1854 4.30575 93.1337 4.83303 95.9199C6.1621 103.048 7.92216 110.088 10.1035 117.003C12.137 123.101 13.417 133.945 17.4831 134.397C17.7178 135.758 18.4743 136.973 19.5915 137.785C23.206 140.421 38.2648 150.661 39.3194 151.037C40.3739 151.413 40.4488 149.909 37.7383 148.252C35.0278 146.595 21.7709 137.409 20.6422 136.505C19.5135 135.601 19.3622 135.827 19.0611 132.665C18.8349 130.557 21.0189 129.577 30.6567 124.91C36.9099 121.899 65.7266 107.379 65.0681 106.459C64.215 105.27 60.0231 108.341 44.813 116.172C38.1868 119.636 22.0735 126.939 18.76 129.274C18.3028 129.594 17.9327 130.024 17.6829 130.523C17.4332 131.023 17.3117 131.577 17.3295 132.135C16.2749 131.607 15.6728 130.403 14.6939 127.015C12.2844 118.507 8.21828 103.672 6.7121 95.3895C6.03504 91.7757 5.73396 88.0107 10.5528 85.9772C25.2356 79.5773 48.1264 70.9184 52.3431 69.9387C56.3336 69.0355 58.3648 70.0159 59.2703 74.0806C60.0987 77.8456 64.774 103.595 64.8419 103.899C64.9996 104.467 65.306 104.983 65.7296 105.393C66.1531 105.803 66.6784 106.093 67.2514 106.232C72.6732 108.416 90.5181 115.645 92.5516 116.624C95.3378 117.979 95.1116 121.066 93.9064 122.8C92.5516 124.833 83.1393 132.438 74.3299 138.913C64.466 146.142 57.3874 150.885 60.7758 150.133C62.9598 149.681 90.9705 128.825 95.4126 124.004C97.521 121.446 96.9188 116.552 93.3799 114.895Z" fill="#001434"/>
</svg>
