<svg width="155" height="155" viewBox="0 0 155 155" fill="none" xmlns="http://www.w3.org/2000/svg">
<path d="M14.9953 97.5487C15.2964 89.7924 18.6099 85.4282 18.6099 85.4282C16.8783 86.1809 11.6826 87.9882 9.19755 90.3984C8.14376 91.9795 9.27475 94.8405 9.27475 94.8405L17.2542 123.752C18.0077 126.313 21.9982 124.506 22.2993 122.473C22.6004 120.365 22.676 117.503 23.8055 115.546C19.3626 113.586 14.6942 105.301 14.9953 97.5487Z" fill="#404040"/>
<path d="M106.03 60.6528L101.964 76.7662C104.148 73.6781 109.418 72.9254 109.418 72.9254C108.138 71.3451 108.289 67.5044 108.44 65.1706C106.256 64.4928 106.03 60.6528 106.03 60.6528Z" fill="#404040"/>
<path d="M100.909 20.1428C101.362 22.7028 104.148 23.606 106.18 22.7028C108.063 25.0366 110.849 29.1027 112.43 30.0816C113.183 30.6089 114.614 30.0816 110.321 25.2628C109.418 24.2082 107.762 22.3291 107.388 21.7988C107.915 21.1217 108.97 18.4861 107.012 16.6788C108.945 14.1228 110.73 11.4578 112.357 8.69703C112.885 7.64324 111.454 7.2665 109.424 10.58C108.219 12.5378 107.39 13.8178 105.96 15.7756C105.445 15.6212 104.904 15.5758 104.372 15.6423C103.839 15.7088 103.326 15.8857 102.865 16.1618C102.404 16.4379 102.007 16.8071 101.697 17.2457C101.387 17.6844 101.172 18.1828 101.066 18.7092C99.6346 18.632 98.2041 18.5548 93.7619 18.483C89.6958 18.4058 84.0485 17.6546 85.4034 19.1608C85.9245 19.8402 96.6925 20.0672 100.909 20.1428Z" fill="#404040"/>
<path d="M23.805 47.6262C22.2988 48.6051 18.6094 51.8429 17.6289 52.5956C16.1228 51.2407 12.6595 51.1651 10.8523 53.424C9.12065 52.5956 5.43045 49.2822 5.20425 50.9389C5.05449 51.9934 6.48501 52.8967 10.0239 54.704C8.89445 57.565 11.0777 60.653 14.0144 60.9572C14.0802 64.3568 14.3317 67.7502 14.7679 71.1222C14.9933 72.7033 15.3507 75.166 16.4995 74.2103C16.8701 73.9015 16.6539 73.1557 16.5767 71.8757C16.0486 67.2074 15.597 66.5296 15.5221 60.8823C18.8348 60.6569 20.4915 56.1383 18.6874 53.7289C21.3986 51.3951 25.0309 48.8452 25.6154 47.7845C26.3897 46.3593 24.7816 46.9484 23.805 47.6262Z" fill="#404040"/>
<path d="M140.366 40.322C126.21 38.7409 140.818 45.7438 120.638 43.5598C117.401 42.9576 120.864 39.2682 117.249 39.3431C115.518 39.2659 113.485 39.1169 112.054 40.4726C110.622 41.8282 108.289 53.047 108.289 53.047C108.289 53.047 112.054 44.5387 131.179 48.3787C138.333 49.81 141.119 54.4775 141.119 54.4775C141.119 54.4775 142.475 48.6049 143.227 45.1409C143.903 41.6777 141.646 40.4726 140.366 40.322Z" fill="#404040"/>
<path d="M93.6811 73.7548C93.9066 72.7002 91.2717 73.9802 88.0339 74.9591C86.6803 75.3089 85.3479 75.7362 84.0434 76.2391C83.7561 75.6738 83.2898 75.2195 82.7172 74.9471C82.1447 74.6746 81.498 74.5993 80.8782 74.7329C80.4008 74.7915 79.9401 74.9453 79.5233 75.1853C78.996 74.5824 70.4908 62.0836 68.2281 62.8332C67.8513 62.9837 67.927 63.4353 68.2281 63.7372C73.8761 69.6817 75.0804 72.7697 78.5444 76.1611C78.3229 76.5435 78.182 76.9672 78.1305 77.4061C78.079 77.845 78.1179 78.2897 78.2448 78.713C78.3718 79.1363 78.584 79.5291 78.8686 79.8672C79.1531 80.2053 79.5039 80.4815 79.8993 80.6789C78.5444 83.9916 72.8972 97.6955 75.3066 97.8468C75.4676 97.8339 75.6223 97.7782 75.7547 97.6855C75.887 97.5928 75.9922 97.4665 76.0593 97.3195C77.5647 91.4461 80.276 84.2927 81.4054 81.0549C81.8357 81.1022 82.2711 81.0497 82.6778 80.9014C83.0845 80.753 83.4514 80.5129 83.7502 80.1997C84.049 79.8864 84.2715 79.5085 84.4004 79.0953C84.5293 78.682 84.5611 78.2446 84.4935 77.8171C92.476 75.034 93.3044 75.4107 93.6811 73.7548Z" fill="#404040"/>
<path d="M57.4632 74.8844C56.9359 72.0982 55.5802 71.6458 53.5475 72.1731C51.5141 72.776 37.4342 78.0465 37.4342 78.0465C41.8763 77.4444 45.792 79.7032 50.0087 83.0916C53.4727 85.1243 54.1497 83.4683 55.8821 84.2959C59.1948 87.4612 57.9148 93.181 56.1832 98.6776C58.141 99.506 59.421 100.711 60.8515 101.313C61.6042 101.615 62.658 100.561 62.5082 99.8079C61.3031 94.3861 57.9148 77.1425 57.4632 74.8844Z" fill="#404040"/>
<path d="M138.784 135.197C136.043 133.386 133.174 131.776 130.2 130.378C127.941 129.372 125.753 128.215 123.65 126.915C124.854 122.698 121.692 120.288 119.283 120.138C118.906 112.458 118.003 103.798 117.776 102.142C117.55 100.259 116.195 100.334 116.195 102.894C116.273 105.982 117.55 116.298 117.702 120.138C115.443 120.515 113.108 122.472 113.861 126.16C111.752 126.989 109.644 127.44 107.009 128.193C102.806 129.393 98.6805 130.851 94.6571 132.56C93.0004 133.314 92.8499 134.293 93.6026 134.293C95.0339 134.37 100.832 131.883 114.31 127.666C115.966 131.13 120.785 131.13 122.818 128.193C127.428 131.019 132.179 133.608 137.053 135.95C139.387 137.08 139.839 135.873 138.784 135.197Z" fill="#404040"/>
<path d="M69.5858 30.4587C69.5858 30.4587 75.6846 32.642 77.6424 37.01C79.6002 35.5794 80.2032 33.6965 79.8264 31.0609C79.374 28.3504 77.8686 17.7337 76.5879 14.2697C75.3071 10.8057 74.5552 7.26686 67.2512 7.72002C59.9472 8.17319 41.8012 9.75195 35.3256 11.333C28.85 12.9141 29.1496 16.077 29.4522 18.9381C30.6565 23.5315 30.7322 40.8499 35.25 42.3554C35.25 42.3554 37.6115 36.0372 41.8761 33.0913C41.9745 33.0202 42.0504 32.9224 42.0948 32.8094C42.1391 32.6965 42.1501 32.5731 42.1263 32.4541C42.1026 32.3351 42.0451 32.2254 41.9608 32.1381C41.8764 32.0508 41.7688 31.9896 41.6507 31.9618C36.9067 31.8074 35.5518 24.2055 39.391 23.6033C35.551 10.8081 58.5955 8.47196 64.6943 12.7635C70.5616 15.7003 71.8446 26.0938 69.5858 30.4587Z" fill="#404040"/>
<path d="M135.321 39.4193C132.535 39.4193 132.911 42.4301 131.104 42.8825C129.372 43.2592 120.883 43.2407 120.035 42.3552C119.152 41.4288 120.637 39.0425 118.077 38.7415C110.548 37.8374 109.945 41.9067 108.44 48.3792C106.256 57.3399 100.458 77.8961 99.9306 83.7688C99.4041 90.0946 108.59 91.6 125.381 94.16C131.104 95.064 133.213 92.1273 134.192 88.0611C136.3 79.251 140.213 60.8031 142.624 50.9392C143.829 46.0454 144.583 43.033 143.528 41.3014C142.474 39.6447 140.065 39.3436 135.321 39.4193ZM105.955 63.2882C106.206 64.0787 106.709 64.7659 107.385 65.246C106.849 67.6632 107.169 70.1915 108.289 72.3994C106.4 72.6732 104.611 73.4247 103.094 74.5827C103.922 71.1194 104.976 67.2038 105.955 63.2882ZM132.685 87.7608C132.008 90.6219 130.276 93.4829 123.725 92.3543C106.256 89.3434 101.286 87.8357 101.362 83.6947C101.581 81.4813 101.984 79.29 102.566 77.1434C104.333 75.2869 106.715 74.1363 109.267 73.9064C111.226 76.5412 114.388 78.3485 118.077 79.3274C116.873 80.5325 115.292 81.8125 114.463 81.7369C113.936 81.7369 112.71 80.7718 111.904 79.478C111.672 79.1059 111.451 79.0263 111.15 79.3274C110.398 80.0809 112.807 83.1674 114.463 83.243C115.668 83.3202 118.53 81.2852 119.659 79.7042C120.228 79.8471 120.807 79.9478 121.391 80.0052C121.993 82.4147 123.122 85.7281 125.833 85.7281C127.565 85.7281 130.501 83.9957 129.899 83.1674C129.674 82.8663 129.378 82.874 128.996 83.1674C127.586 84.2482 125.532 84.4474 124.854 84.0714C124.402 83.7696 123.499 81.9631 122.972 80.2307C127.339 80.9085 132.761 79.779 134.869 78.7253C134.083 81.7225 133.355 84.7347 132.685 87.7601V87.7608ZM135.321 76.3158C135.02 77.4453 128.243 80.0809 120.112 78.2736C111.527 76.3899 107.309 71.1943 108.967 64.7187C110.322 65.6976 112.506 65.9987 114.162 66.0744C117.852 66.1516 119.132 61.782 117.475 59.3726C116.421 57.7915 114.087 57.1893 110.699 57.4904C112.129 54.177 114.237 53.1988 117.776 56.361C120.371 58.667 123.118 58.8615 122.595 55.3821C124.402 56.2853 127.716 59.2977 129.674 58.7704C130.276 58.545 130.802 58.0177 130.954 56.7377C133.439 57.7915 135.321 60.7282 138.784 60.6533C137.73 65.6976 135.321 76.2394 135.321 76.315V76.3158ZM112.883 58.8461C114.313 58.9233 115.744 59.2977 116.27 60.0504C116.873 60.8031 116.873 63.966 115.216 64.4933C114.991 64.5705 114.689 64.5705 114.463 64.6438C114.011 62.4598 113.331 60.3515 112.883 58.8461ZM139.237 59.1472C135.773 59.4482 133.89 55.3821 130.954 55.2315C129.297 55.1543 129.824 57.2642 128.996 57.3399C126.526 56.7516 120.52 50.3463 121.24 56.5864C119.132 56.1348 116.346 52.6716 113.861 52.8221C110.927 53.0475 108.59 56.9631 107.611 63.3639C107.009 62.385 106.783 60.8031 107.385 57.4904C110.079 42.9126 137.018 48.0835 140.215 54.4796C139.914 55.9086 139.613 57.4904 139.237 59.1472ZM140.742 52.521C135.848 47.0992 117.024 43.2569 109.419 50.7137C109.569 50.0359 109.795 49.4338 109.87 48.8316C111.602 42.5065 111.15 39.2687 118.228 40.3225C118.228 41.452 117.927 42.6563 119.056 43.636C120.713 44.9909 130.2 44.7647 131.331 44.4636C133.891 43.8614 133.589 42.0541 134.644 41.2258C135.322 40.6993 136.225 40.7742 139.312 41.076C140.893 41.2258 141.872 41.6025 142.246 42.3552C142.775 43.1844 142.624 44.6149 140.742 52.521Z" fill="#615FFF"/>
<path d="M126.21 61.4807C125.607 62.6101 124.93 65.472 126.059 67.053C126.888 68.2581 130.577 68.7846 132.761 68.7846C135.321 68.7846 135.998 67.5803 136.45 65.7738C136.751 64.4938 136.902 63.0633 135.998 62.0844C133.439 59.3723 127.339 59.3723 126.21 61.4807ZM134.947 62.9869C135.549 63.5141 135.173 66.9025 133.894 67.2792C133.386 67.4561 132.849 67.5326 132.312 67.5047C131.87 65.461 131.291 63.4493 130.58 61.483C132.169 61.4462 133.718 61.9797 134.947 62.9869Z" fill="#615FFF"/>
<path d="M124.553 68.7855C123.574 68.5601 122.369 69.1622 121.164 69.3877C119.959 69.6131 118.604 69.3877 118.154 70.2917C117.175 72.1738 120.788 74.4327 122.898 74.5084C125.76 74.6582 127.188 69.4626 124.553 68.7855ZM119.507 71.0436C121.108 70.9388 122.695 70.6868 124.25 70.2909C125.306 73.9803 121.014 73.6036 119.507 71.0436Z" fill="#615FFF"/>
<path d="M31.7871 38.9664C32.6904 43.4093 36.3049 43.4093 39.9943 43.4093C48.051 42.6558 82.0849 43.3321 80.5795 32.1149C79.938 25.5105 78.6777 18.9811 76.8152 12.6124C75.6109 8.77245 73.8816 6.73975 67.7827 6.96518C55.961 7.34192 36.3088 10.1304 33.1459 11.107C30.5102 11.9354 28.1765 13.2902 28.5524 17.6575C29.2045 24.8186 30.2847 31.9343 31.7871 38.9664ZM39.9187 21.1964C39.6176 17.4321 42.027 14.8713 45.491 13.3659C44.587 15.0226 44.4365 17.131 45.1143 17.2807C45.4154 17.3579 45.5659 17.2807 45.6416 16.9048C46.0421 15.3585 46.7318 13.902 47.6743 12.6124C48.4277 12.3862 49.2561 12.2364 50.0088 12.0851C50.086 13.3659 50.235 15.9259 50.9121 15.8502C51.6655 15.9274 51.6655 13.4408 51.4393 11.8597L53.6982 11.6335C55.2044 13.2902 56.1077 15.8502 56.3339 16.2269C56.5601 16.6037 56.7098 16.8291 57.0866 16.8291C57.9149 16.8291 57.539 13.8183 55.7309 11.6335C56.9934 11.5878 58.2569 11.6891 59.496 11.9354C59.9249 12.4229 60.3033 12.9527 60.6255 13.5164C61.0022 14.1935 61.0022 14.947 61.3789 15.0975C62.1316 15.3237 62.6581 13.7419 61.8306 12.4619C63.7217 13.1606 65.4054 14.3261 66.7251 15.8502C65.9932 15.5233 65.1814 15.4186 64.3905 15.5491C63.1181 15.6772 61.9377 16.2707 61.0761 17.2158C60.2145 18.1609 59.7323 19.391 59.7222 20.6698C59.645 23.2291 60.3244 24.9614 64.9178 25.1876C67.8514 25.342 68.984 24.736 69.8872 23.6058C70.1134 27.7476 69.4572 28.9651 68.8327 30.0065C67.2323 32.6761 63.4116 34.2981 57.2371 34.9759C45.5659 36.3316 43.7586 31.0603 41.7259 31.0603C38.5607 31.0603 36.1536 25.9403 39.0154 24.5098C40.0677 23.9069 40.0677 22.8508 39.9187 21.1964ZM66.2735 17.0553C65.269 19.1679 64.4379 21.3586 63.7884 23.6058C63.0147 23.6418 62.2582 23.3704 61.6839 22.8508C60.3622 20.9447 61.6067 16.7519 65.2228 16.9773C65.5748 16.9631 65.9274 16.9893 66.2735 17.0553ZM33.5187 12.4619C36.684 11.483 57.2371 8.6219 68.6072 8.32082C73.5018 8.32082 74.4807 10.1281 75.309 12.9143C77.122 19.1623 78.357 25.5636 78.9985 32.0377C79.6755 37.0078 70.1134 39.3416 59.9484 40.4711L58.5187 38.8159L59.1965 37.7621C60.0647 38.4056 61.0679 38.8433 62.1301 39.0421C63.1085 39.0275 64.047 38.6523 64.7657 37.9883C65.2174 37.6115 64.9842 36.7677 64.3133 37.0843C63.7048 37.4067 63.0408 37.611 62.3563 37.6864C61.7541 37.6864 60.925 37.1592 59.7207 36.1054C64.0123 35.277 67.7773 33.5454 69.8108 31.136C73.5002 32.2654 75.0064 34.5243 76.1351 34.7497C77.3402 34.9759 75.1562 31.8161 70.6384 29.856C71.0656 28.9085 71.2962 27.8843 71.3162 26.8451C71.3162 22.6277 71.1618 18.1099 67.1752 13.8932C64.0099 10.5805 57.4618 9.45104 51.4378 10.2037C49.9112 10.4602 48.4023 10.8124 46.92 11.2583C41.2743 13.064 37.2113 17.0553 38.4882 23.0824C34.422 24.9645 36.6809 32.1149 41.3492 32.4939C38.1122 34.6023 34.1209 40.0241 36.0787 39.5717C36.7565 39.4219 39.6176 35.2801 42.63 33.3956C45.4154 35.5796 49.8583 36.8596 54.6015 36.6334C54.2255 37.4618 53.2466 38.6669 52.2677 38.8167C51.7404 38.8939 49.7826 37.9891 49.6321 38.5156C49.2561 39.5694 51.4393 40.0974 52.3434 40.1723C53.7739 40.2495 54.3004 39.2691 55.5086 37.9891L56.4118 38.8923L55.4306 41.0755C47.2983 41.7526 39.6933 41.7526 37.8111 41.9031C34.8003 41.8259 33.7449 41.0755 33.2184 38.6661C31.7838 31.672 30.7029 24.61 29.9799 17.5069C29.6788 14.3448 31.0352 13.2902 33.5187 12.4619Z" fill="#615FFF"/>
<path d="M124.478 41.076C125.985 41.0382 127.251 40.6954 127.412 40.0971C127.62 39.339 127.035 39.0426 124.401 39.1174C122.971 39.1174 121.691 39.2718 121.616 40.0215C121.542 40.6236 121.618 41.1478 124.478 41.076Z" fill="#615FFF"/>
<path d="M49.4815 26.1705C53.096 26.396 54.9033 24.9654 55.2793 22.9327C55.6495 22.5835 56.1276 22.3709 56.6349 22.3298C57.6138 22.3298 57.9149 23.5349 58.6676 23.5349C59.8727 23.4577 58.5904 20.9371 56.7098 20.8993C56.19 20.861 55.6695 20.9651 55.2044 21.2004C54.8277 18.5655 53.0204 16.4571 48.6531 16.8331C44.9637 17.135 41.8934 22.2372 44.4364 24.8898C45.6153 26.1165 48.5783 26.0933 49.4815 26.1705ZM49.6359 18.1131C50.0418 18.1229 50.4457 18.1746 50.841 18.2675C49.6995 20.3074 48.6937 22.4204 47.8302 24.5926C46.7756 24.4382 45.8639 24.222 45.5705 23.765C44.326 21.8211 46.0932 18.0344 49.632 18.1092L49.6359 18.1131Z" fill="#615FFF"/>
<path d="M119.207 66.2249C120.713 66.3021 119.433 63.0596 122.746 64.1165C122.936 64.1808 123.143 64.1699 123.326 64.0858C123.508 64.0018 123.651 63.8512 123.725 63.6649C124.101 62.2343 120.715 61.9333 119.658 62.9114C118.53 63.966 118.003 66.15 119.207 66.2249Z" fill="#615FFF"/>
<path d="M58.6679 29.1048C57.3879 29.5572 53.548 29.5572 52.3436 27.9754C52.2179 27.8241 52.0406 27.7247 51.8459 27.6962C51.6513 27.6677 51.4529 27.7121 51.2891 27.821C50.1596 30.0799 54.8279 30.909 56.5603 30.909C57.4224 30.9111 58.2815 30.81 59.1195 30.6079C60.0992 30.1579 59.5719 28.7273 58.6679 29.1048Z" fill="#615FFF"/>
<path d="M144.134 35.3529C141.8 34.4497 132.162 33.8468 124.03 34.1478C114.015 34.4497 108.97 33.4708 106.712 40.9245C103.546 51.2408 97.6019 75.336 96.5466 84.3715C95.3415 94.5366 106.259 95.9671 124.858 98.6776C131.861 99.6565 134.647 98.0005 136.978 95.5896C139.237 93.2558 141.496 82.9402 144.281 70.3658C146.239 61.5556 148.498 54.2517 149.854 45.2918C150.606 40.0213 148.648 37.0845 144.134 35.3529ZM147.975 44.9907C146.695 53.5746 144.21 61.7818 142.553 69.1614C139.542 82.4137 137.131 92.4282 135.399 94.3111C132.466 97.3992 127.644 97.4764 117.026 95.4406C107.916 93.7082 97.0715 92.2028 98.4272 84.2959C101.772 65.5122 103.896 58.1727 108.517 41.0758C109.421 37.6867 112.432 36.7078 114.461 36.4067C121.464 35.5791 140.063 35.9551 143.602 37.1594C147.293 38.4402 148.648 40.6234 147.971 44.9907H147.975Z" fill="#615FFF"/>
<path d="M28.3986 45.5933C29.2262 49.4333 31.787 50.6376 35.5513 50.7133C36.3048 50.7133 41.7273 50.7905 45.9425 50.5589C46.0969 51.3116 46.0197 52.5167 46.0969 53.4925C40.4497 54.0205 39.0191 54.7733 39.1697 56.5033C39.4708 59.8917 43.4613 59.8168 46.0969 59.8168C51.1381 59.7527 66.7998 58.3932 70.7934 56.5103C71.9977 55.9073 70.9432 55.1546 68.1578 55.7576C64.016 56.6608 53.3121 58.6418 42.8576 57.8659C42.0284 57.8042 41.2765 57.4143 41.2765 56.5852C41.1221 55.607 44.1375 55.607 46.3208 55.3808C54.3782 54.6281 64.016 53.7241 71.1694 52.2156C72.2239 51.9894 73.2198 51.9114 73.3534 52.8926C73.5263 54.1703 74.7083 53.9472 74.8588 52.9698C75.2355 50.1088 74.181 49.959 68.1578 50.7866C67.9549 49.9739 67.8535 49.1392 67.8559 48.3015C71.5806 47.695 75.2553 46.8141 78.8501 45.6659C80.6176 45.0441 82.1228 43.8425 83.1208 42.2567C84.1188 40.6708 84.5509 38.794 84.3468 36.9314C83.8944 31.058 81.2587 16.2246 79.3017 9.89956C77.9461 5.45666 74.3323 3.65016 66.4254 3.8779C52.7948 4.25464 36.9795 6.28734 30.4313 8.09461C26.4401 9.22405 23.8801 12.2364 24.1819 16.528C24.6336 21.6487 26.7419 38.0632 28.3986 45.5933ZM48.1265 53.2732C48.1497 52.3058 48.0226 51.3406 47.7498 50.4122C53.5475 50.0354 60.1019 49.4333 65.9691 48.5293C65.9352 49.3887 66.0112 50.249 66.1953 51.0892C60.7759 51.9933 53.9992 52.746 48.1265 53.2732ZM30.7324 10.0524C36.8313 8.17026 52.7948 6.21245 66.1977 5.83572C74.2543 5.61029 76.3627 7.26624 77.4172 10.3535C79.3743 16.1513 82.0099 31.3621 82.4615 36.9337C82.6159 38.5148 82.4615 42.3547 78.471 43.8609C68.8055 47.4986 46.0328 49.2789 35.6246 48.9809C32.1606 48.8311 30.8806 48.0776 30.2785 45.5177C28.5484 38.3681 26.4401 21.5731 26.0641 16.7519C25.7622 13.2153 27.1935 11.1819 30.7324 10.0524Z" fill="#615FFF"/>
<path d="M39.768 95.289C39.7713 95.3828 39.7947 95.4748 39.8366 95.5588C39.8785 95.6428 39.9379 95.7169 40.0109 95.776C40.0838 95.8351 40.1686 95.8778 40.2595 95.9013C40.3503 95.9248 40.4452 95.9286 40.5377 95.9123C40.6301 95.896 40.718 95.8601 40.7954 95.8069C40.8728 95.7538 40.9378 95.6847 40.9862 95.6042C41.0346 95.5238 41.0651 95.4339 41.0758 95.3406C41.0865 95.2473 41.077 95.1528 41.048 95.0636C40.747 93.1057 39.6924 92.6186 38.2619 92.6541C35.1738 92.7313 34.0452 95.6649 35.4008 96.0425C35.7019 96.1197 35.9281 95.8919 36.0786 95.5901C36.907 93.9341 39.3473 93.2648 39.768 95.289Z" fill="#615FFF"/>
<path d="M38.4131 87.6089C41.1992 86.5544 43.0057 86.3289 42.4036 85.5006C41.8014 84.6722 39.2383 84.9733 38.0363 85.8017C37.3585 86.2533 37.2828 88.0606 38.4131 87.6089Z" fill="#615FFF"/>
<path d="M21.5465 122.547C21.9225 122.698 22.2236 122.246 22.2992 121.87C22.5054 120.059 23.0958 118.314 24.0308 116.75C25.4675 117.746 27.1182 118.39 28.8497 118.632C32.5399 118.858 35.3261 115.544 36.3799 112.456C44.2111 113.058 51.3645 109.142 53.3216 103.269C54.5711 102.3 55.5555 101.031 56.1834 99.5794C58.8182 100.106 60.3244 101.387 60.9266 101.387C61.6801 101.464 61.7557 99.8804 56.8612 98.0732C58.5172 94.0827 58.8939 88.3598 57.6139 85.1976C56.9361 83.466 55.7318 83.2398 53.9994 83.3147C48.1267 83.6166 46.3187 77.8937 40.8228 77.2159C43.4059 76.2362 46.0172 75.3323 48.6532 74.5053C51.2889 73.677 54.6749 72.5475 55.5056 72.9991C56.7856 73.677 57.1623 76.9904 57.6139 79.3242C58.2917 82.8631 59.5717 82.7125 59.195 80.7547C58.6677 77.9724 58.3643 73.2277 56.3339 71.9508C55.1296 71.1973 53.0961 71.8736 47.5238 73.6067C34.1233 77.7455 12.7387 87.1593 11.0047 87.9854C6.93859 89.8683 8.0387 92.944 8.51966 94.9882C9.10252 97.4587 11.9837 108.241 13.0374 111.554C14.0912 114.867 15.2284 119.52 15.8993 119.837C16.9654 120.339 15.6731 115.243 14.4687 111.102C13.2644 106.961 10.5531 97.0217 9.95096 94.6123C9.49856 92.6545 8.74586 90.621 11.6826 89.2661C13.2636 88.5126 15.2215 87.685 17.3298 86.781C11.0765 95.8907 14.3962 109.672 22.8265 115.846C21.5465 117.803 20.5676 122.246 21.5465 122.547ZM20.2665 85.5759C24.9348 83.5432 34.0453 79.6315 35.7777 79.0254C44.286 75.9374 47.2227 85.6516 54.4518 84.8232C54.808 84.7719 55.1712 84.8402 55.4846 85.0173C55.7979 85.1944 56.0436 85.4704 56.1834 85.8021C57.7498 90.2026 56.8612 96.0428 54.3005 99.9584C54.6838 97.7603 54.5574 95.5034 53.9308 93.3619C53.3043 91.2203 52.1944 89.2512 50.6867 87.6063C46.9216 83.5401 45.9427 85.7241 46.7711 86.2507C51.3645 89.0368 53.171 94.007 52.7155 99.5029C52.5374 101.109 52.0392 102.662 51.2504 104.072C50.4615 105.482 49.3981 106.719 48.1229 107.711C44.9576 110.12 40.7432 111.099 36.7527 110.949C37.0538 109.216 37.3549 107.033 36.0749 106.506C33.5149 105.376 26.5121 108.69 24.4794 101.084C22.1448 92.5757 33.2887 85.4979 43.7548 83.0129C44.7345 82.8585 43.832 81.7329 41.8727 82.1853C32.0844 84.519 20.3337 91.4494 23.0481 101.536C23.3576 103.005 24.0831 104.354 25.1379 105.421C26.1927 106.489 27.5324 107.231 28.9972 107.558C31.0298 108.085 33.2139 107.709 35.0188 107.709C36.1475 107.709 35.621 111.623 33.5126 114.636C32.0821 116.594 29.8232 117.874 27.6392 117.045C15.9742 112.608 11.0047 95.5155 20.2665 85.5759Z" fill="#615FFF"/>
<path d="M28.3226 97.8494C26.8921 99.3548 26.2143 102.066 27.6448 102.141C28.3983 102.141 28.1721 100.259 29.6026 98.8283C29.9998 98.4302 30.491 98.1386 31.0308 97.9806C31.5705 97.8226 32.1414 97.8032 32.6906 97.9243C32.7848 97.9418 32.8816 97.9399 32.9751 97.9187C33.0686 97.8976 33.1567 97.8576 33.2342 97.8013C33.3118 97.7449 33.377 97.6734 33.4259 97.591C33.4749 97.5086 33.5065 97.4171 33.519 97.3221C33.7436 95.5897 30.1299 95.9665 28.3226 97.8494Z" fill="#615FFF"/>
<path d="M42.4036 96.871C41.4996 97.0964 41.7258 98.3764 40.1447 99.3553C38.7142 100.184 36.0037 100.937 36.3048 101.991C36.6058 103.497 43.5763 103.936 44.2858 102.292C45.0084 100.621 43.6087 96.5691 42.4036 96.871Z" fill="#615FFF"/>
<path d="M129.674 41.1474C129.818 41.1578 129.964 41.1382 130.101 41.09C130.238 41.0417 130.363 40.9657 130.469 40.8668C130.576 40.7679 130.66 40.6482 130.718 40.5151C130.776 40.382 130.806 40.2384 130.806 40.0933C130.806 39.9481 130.776 39.8045 130.718 39.6714C130.66 39.5383 130.576 39.4186 130.469 39.3197C130.363 39.2208 130.238 39.1448 130.101 39.0965C129.964 39.0483 129.818 39.0287 129.674 39.0391C129.529 39.0287 129.384 39.0483 129.247 39.0965C129.11 39.1448 128.984 39.2208 128.878 39.3197C128.772 39.4186 128.687 39.5383 128.629 39.6714C128.571 39.8045 128.541 39.9481 128.541 40.0933C128.541 40.2384 128.571 40.382 128.629 40.5151C128.687 40.6482 128.772 40.7679 128.878 40.8668C128.984 40.9657 129.11 41.0417 129.247 41.09C129.384 41.1382 129.529 41.1578 129.674 41.1474Z" fill="#615FFF"/>
<path d="M40.973 91.7505C42.4784 92.1272 41.0502 87.8349 45.9424 88.2873C46.3941 88.3645 46.6951 88.1329 46.6951 87.76C46.5407 86.4044 43.1563 86.4044 41.6509 88.0611C40.8225 88.9643 39.6923 91.4494 40.973 91.7505Z" fill="#615FFF"/>
<path d="M23.4285 133.542C25.3106 134.897 40.9731 147.171 48.8793 147.923C53.6225 148.074 59.6464 141.747 62.9599 139.867C64.4661 138.963 65.8935 141.297 67.8536 140.017C72.5976 137.006 77.7932 133.24 78.6973 132.186C79.8267 130.907 79.1489 129.252 80.4289 128.271C91.1961 120.064 92.7038 118.934 92.6266 118.181C92.4722 117.278 89.1626 120.59 79.5997 127.066C77.8681 128.195 78.5459 130 77.6419 131.208C77.0398 132.035 69.2842 137.608 67.5518 138.36C66.813 138.6 66.0136 138.573 65.2929 138.283C62.8086 137.455 62.2821 138.509 57.1613 142.274C53.1701 145.207 50.0079 147.394 44.3607 144.834C36.0778 140.994 26.515 134.066 24.4823 132.713C23.5041 132.186 22.1485 132.563 23.4285 133.542Z" fill="#615FFF"/>
<path d="M29.7532 93.6337C30.8827 92.5043 29.5463 91.7747 28.247 92.8054C26.9848 93.809 25.8376 96.3442 26.8922 96.721C27.7205 97.0221 28.6238 94.7632 29.7532 93.6337Z" fill="#615FFF"/>
<path d="M35.0999 131.433C35.5515 131.355 37.5842 129.926 41.5755 127.517C42.9311 128.421 44.5091 129.475 46.0184 130.378C45.566 130.755 44.5871 131.432 43.4576 132.487C42.4038 133.465 42.9311 133.767 43.4576 133.691C44.2111 133.541 44.8133 133.089 47.4489 131.282C48.5452 131.893 49.6023 132.573 50.6141 133.315C51.6687 133.992 52.2531 133.112 51.2163 132.261C50.1432 131.38 49.2592 130.604 48.8825 130.228C49.8466 129.573 50.7766 128.87 51.6687 128.12C53.4003 126.689 51.2271 127.007 50.3879 127.517C48.9751 128.375 48.8068 128.571 47.5269 129.324C46.0963 128.421 44.516 127.442 43.0091 126.614C46.497 124.561 50.0112 122.554 53.5508 120.592C54.6803 121.42 55.8854 122.174 57.0141 123.001C54.5297 124.959 55.416 125.835 56.4875 125.185C57.5259 124.555 57.8424 124.282 58.4454 123.98C60.1021 125.11 61.8337 126.239 63.5653 127.519C59.6497 130.305 56.4628 132.541 55.2824 133.995C54.742 134.662 55.4368 135.2 56.5632 134.372C60.177 131.812 61.2308 131.134 64.8453 128.498C65.3726 128.875 65.5988 129.101 66.2009 129.553C67.1042 130.23 67.7071 128.95 66.0504 127.595C69.1842 125.315 72.2966 123.005 75.3871 120.667C77.0438 121.721 77.9555 122.33 78.3207 121.797C78.7839 121.127 78.1663 120.743 76.7396 119.613C78.0953 118.559 79.2996 117.58 80.2036 116.752C80.5047 116.526 80.8035 115.932 80.429 115.848C79.823 115.712 78.6974 116.375 75.2334 118.71C74.4051 118.183 71.6189 116.3 70.8662 115.699C72.2218 114.796 72.824 114.344 73.7272 113.741C74.4051 113.29 73.8044 112.537 71.4691 113.741C71.0167 113.967 70.1135 114.495 69.5862 114.796C68.6829 114.118 67.704 113.365 66.7251 112.763C67.4022 112.311 67.7789 112.085 68.5316 111.633C69.2851 111.106 68.2306 110.354 66.7251 111.106C66.1941 111.326 65.6889 111.603 65.2189 111.934C64.0138 111.332 63.5622 111.031 63.0349 111.332C62.5077 111.633 62.9577 112.16 63.7128 112.838C61.0022 114.495 55.1296 117.959 53.4729 118.86C50.0837 116.224 48.8794 117.052 49.934 117.956C50.9885 118.86 51.3645 119.086 52.0416 119.612C48.9535 121.269 44.8133 123.528 41.2744 125.634C40.2713 124.901 39.213 124.246 38.1091 123.676C36.9789 123.149 36.7535 124.128 37.4313 124.655C38.4102 125.408 38.7113 125.483 39.9156 126.462C37.964 127.554 36.145 128.868 34.4946 130.377C34.1233 131.056 34.3472 131.583 35.0999 131.433ZM65.4444 113.738C66.3484 114.34 67.4022 115.017 68.4552 115.771C68.1541 115.997 67.4763 116.523 67.2501 116.674C66.7985 117.126 67.5512 117.955 69.8109 116.674C71.3163 117.729 72.8989 118.858 74.253 119.762C72.2203 121.343 67.6268 124.731 65.0661 126.539C63.4248 125.291 61.7155 124.134 59.9461 123.076C61.3767 122.172 63.485 120.817 64.1628 120.365C64.8407 119.913 64.9202 119.375 64.4639 119.16C63.7931 118.843 59.9461 121.193 58.4423 122.094C57.9906 121.792 55.8066 120.362 54.9783 119.759C58.6677 117.654 62.2066 115.62 65.4444 113.738Z" fill="#615FFF"/>
<path d="M93.3799 114.34C91.0454 113.285 72.6732 105.832 66.7997 103.346C64.6914 92.0512 62.9598 83.4681 62.0557 77.7452C60.4747 68.1823 58.364 65.9983 50.9118 68.258C43.2327 70.5918 30.5061 75.1852 9.72756 83.844C3.10142 86.6302 4.30575 92.5785 4.83303 95.3647C6.1621 102.492 7.92216 109.533 10.1035 116.447C12.137 122.546 13.417 133.39 17.4831 133.842C17.7178 135.202 18.4743 136.418 19.5915 137.23C23.206 139.866 38.2648 150.106 39.3194 150.482C40.3739 150.858 40.4488 149.353 37.7383 147.697C35.0278 146.04 21.7709 136.854 20.6422 135.95C19.5135 135.046 19.3622 135.272 19.0611 132.11C18.8349 130.002 21.0189 129.022 30.6567 124.354C36.9099 121.344 65.7266 106.824 65.0681 105.903C64.215 104.715 60.0231 107.786 44.813 115.617C38.1868 119.081 22.0735 126.384 18.76 128.719C18.3028 129.039 17.9327 129.469 17.6829 129.968C17.4332 130.468 17.3117 131.021 17.3295 131.58C16.2749 131.052 15.6728 129.848 14.6939 126.46C12.2844 117.951 8.21828 103.117 6.7121 94.8343C6.03504 91.2206 5.73396 87.4555 10.5528 85.422C25.2356 79.0221 48.1264 70.3633 52.3431 69.3836C56.3336 68.4803 58.3648 69.4608 59.2703 73.5254C60.0987 77.2905 64.774 103.04 64.8419 103.343C64.9996 103.912 65.306 104.427 65.7296 104.838C66.1531 105.248 66.6784 105.538 67.2514 105.677C72.6732 107.861 90.5181 115.089 92.5516 116.068C95.3378 117.424 95.1115 120.511 93.9064 122.244C92.5516 124.278 83.1393 131.883 74.3299 138.358C64.466 145.587 57.3874 150.33 60.7758 149.577C62.9598 149.126 90.9705 128.27 95.4126 123.449C97.521 120.89 96.9188 115.997 93.3799 114.34Z" fill="#615FFF"/>
</svg>
