<svg width="155" height="155" viewBox="0 0 155 155" fill="none" xmlns="http://www.w3.org/2000/svg">
<path d="M85.6934 6.58502C89.2832 7.04823 95.1196 7.39563 95.5287 5.6895C95.5091 5.56754 95.4654 5.4507 95.4003 5.34572C95.3352 5.24075 95.25 5.14973 95.1494 5.07793C95.0489 5.00613 94.9352 4.95498 94.8147 4.92744C94.6943 4.8999 94.5696 4.89652 94.4479 4.91749C88.3645 5.14909 84.4118 3.48928 74.507 4.36936C64.3319 5.27261 61.0354 5.01013 61.4292 6.68539C61.9155 8.75437 76.7767 5.44245 85.6934 6.58502Z" fill="#404040"/>
<path d="M20.5202 7.84305C21.4929 5.88987 10.0286 6.29903 8.42284 8.22905C6.67038 10.4293 4.63229 36.9786 7.34203 36.9863C9.56541 36.9863 6.89427 29.5056 8.27616 23.8622C9.10221 20.3032 8.639 12.2821 10.1753 9.71131C11.0785 7.75813 19.7173 9.45654 20.5202 7.84305Z" fill="#404040"/>
<path d="M140.96 14.0886C129.095 11.7725 96.0142 13.4709 86.9586 13.0541C75.4557 13.6099 77.8875 13.2625 77.5941 28.1082C77.185 49.0991 77.9184 94.0067 77.9878 96.2147C77.9878 97.5503 79.8098 98.6002 79.8947 97.6197C80.1186 95.1416 79.2848 89.1277 79.6013 82.7354C80.3733 67.8125 78.4742 32.47 79.555 16.7443C79.5755 16.3414 79.7448 15.9605 80.03 15.6752C80.3153 15.39 80.6962 15.2208 81.099 15.2002C95.0646 14.49 133.866 14.1735 139.918 15.6403C142.867 16.3583 142.173 23.5765 142.234 30.4165C142.234 38.4068 142.072 40.8926 141.817 52.2334C141.3 82.7586 141.763 120.942 141.401 124.3C141.285 125.389 143.138 126.03 143.238 124.964C143.4 123.297 143.709 64.076 144.11 30.5169C144.226 19.2533 144.157 14.7062 140.96 14.0886Z" fill="#404040"/>
<path d="M134.33 21.8938C130.3 18.4892 119.785 18.3657 101.573 19.184C91.7921 19.6163 87.2218 18.8212 84.5893 21.8938C81.9567 24.9664 82.7287 40.4683 83.0453 59.3747C83.3541 79.1844 82.8136 85.8083 83.1765 98.392C83.5393 110.976 90.333 117.6 94.8492 121.683C103.403 129.403 132.94 126.099 135.881 122.571C140.043 117.569 138.259 90.5715 137.811 67.4113C138.715 45.108 138.36 25.2983 134.33 21.8938ZM94.2625 22.7816C94.5096 21.1758 97.2733 21.9324 99.4272 22.0713C101.581 22.2103 104.87 21.8938 104.87 23.1521C104.87 25.2597 96.9568 23.4609 95.158 23.6771C95.0369 23.6904 94.9142 23.6764 94.7992 23.6362C94.6841 23.596 94.5794 23.5306 94.4928 23.4448C94.4063 23.3589 94.34 23.2548 94.2988 23.1401C94.2576 23.0254 94.2426 22.9029 94.2548 22.7816H94.2625ZM89.7463 36.0215C91.5991 35.1569 95.0808 34.5161 96.2466 34.2459C103.195 32.6015 106.19 30.1234 106.784 31.9299C107.34 33.5897 98.2924 36.1373 90.8811 37.7817C89.2522 38.1136 88.4879 36.6005 89.7386 36.0215H89.7463ZM103.187 63.6362C98.0762 63.6362 97.8292 63.7134 95.6753 63.4432C92.263 63.0109 87.6001 63.4432 87.7699 62.0536C87.9784 60.3938 96.4164 62.1385 103.928 61.8992C105.765 61.8451 105.441 63.6362 103.179 63.6362H103.187ZM106.977 58.0083C105.055 58.6336 105.866 54.7272 100.601 56.4643C100.467 56.5115 100.325 56.5283 100.184 56.5134C100.044 56.4986 99.9079 56.4525 99.7873 56.3785C99.6667 56.3045 99.5641 56.2045 99.4872 56.0857C99.4102 55.967 99.3607 55.8326 99.3423 55.6922C98.0299 52.4961 92.2553 55.0592 90.0319 56.9583C88.8893 57.9388 88.4879 56.3871 86.2877 56.9583C84.9058 57.3289 84.8518 55.6614 85.9171 55.2908C86.8918 54.9198 87.9687 54.9198 88.9434 55.2908C91.7998 52.2028 98.5472 50.5738 100.91 54.3953C105.279 52.8358 109.077 57.3289 106.97 58.0083H106.977ZM99.875 47.9722C99.3423 46.6906 99.875 47.8564 107.989 42.2284C109.139 41.4564 110.645 39.1404 111.694 40.3447C112.891 41.7961 100.755 50.1801 99.8673 48.0108L99.875 47.9722ZM121.005 50.9521C116.581 58.1858 113.98 65.0567 112.227 64.3928C112.121 64.3377 112.028 64.2611 111.953 64.1678C111.878 64.0744 111.824 63.9665 111.793 63.8509C111.763 63.7352 111.756 63.6145 111.775 63.4964C111.794 63.3784 111.838 63.2656 111.903 63.1653C114.651 58.4483 115.531 56.5801 119.662 50.211C120.225 49.3618 121.854 49.5857 120.997 50.9907L121.005 50.9521ZM132.786 59.0968C132.786 59.5214 132.415 63.7983 131.674 65.5045C131.234 66.5312 129.574 66.4077 129.96 64.6398C130.732 61.0114 130.987 53.6927 132.724 54.071C134.067 54.3721 132.971 56.912 132.786 59.0968ZM135.403 50.1801C124.927 49.0993 116.929 44.5367 112.806 34.6628C109.718 27.2901 109.625 21.7008 111.007 21.9169C113.076 22.2257 111.007 25.252 114.867 33.8985C118.82 42.8306 126.262 47.3005 135.187 48.3505C136.329 48.4663 136.553 50.2728 135.403 50.1801Z" fill="#404040"/>
<path d="M149.098 6.33779C146.365 4.69341 141.849 5.9209 135.341 5.12573C134.144 4.95589 133.905 6.2683 135.124 6.40727C140.899 7.40316 146.828 6.76239 147.971 8.05936C149.275 9.52618 147.577 26.9504 148.434 48.0879C148.519 50.1724 150.125 50.2341 150.094 48.8599C149.445 13.4325 152.039 8.10568 149.098 6.33779Z" fill="#404040"/>
<path d="M65.2036 19.8875C63.7754 18.1968 54.2488 18.8144 48.6363 18.6368C43.0238 18.4593 27.2208 18.1427 22.8358 18.9919C18.4508 19.8411 19.5316 20.6054 19.2614 25.7007C18.9912 30.7959 19.2614 51.0071 19.2614 51.0071C21.4683 48.0967 24.5331 45.9526 28.0237 44.8773C33.6517 43.2716 45.9961 44.1671 49.169 45.5027C52.342 46.8382 58.0471 49.795 62.3858 62.0931C65.2962 72.4148 66.2458 73.3181 66.7245 72.9475C66.7245 70.3999 66.7708 36.6091 66.5006 32.587C66.2304 28.5648 66.6318 21.6168 65.2036 19.8875ZM58.3482 36.6863C54.6425 37.2267 47.1695 36.5937 45.9961 36.4239C40.6441 35.6444 35.2152 35.5433 29.8379 36.1228C29.3207 36.1768 28.7726 35.1114 29.2281 34.8644C35.0336 31.676 49.4547 36.5242 59.4135 34.5788C61.5597 34.1542 60.3631 36.3853 58.3482 36.6863ZM63.7985 32.6101C63.7027 32.8402 63.5203 33.0233 63.2907 33.1201C63.0611 33.2169 62.8026 33.2195 62.5711 33.1274C60.8881 32.1701 64.779 27.0054 56.8196 30.3096C56.6663 30.3808 56.4968 30.4099 56.3285 30.3937C56.1602 30.3775 55.9993 30.3167 55.8624 30.2176C55.7254 30.1184 55.6175 29.9845 55.5496 29.8297C55.4817 29.6749 55.4564 29.5047 55.4763 29.3368C55.4145 24.0486 48.8216 24.7048 45.0388 27.0903C43.8962 27.816 43.4253 29.2133 42.4371 29.4063C41.4489 29.5993 40.0284 28.6961 37.5812 29.2288C36.5128 29.363 35.5247 29.8653 34.7865 30.6492C33.4123 31.9925 31.2584 29.3523 27.2749 31.8381C27.1684 31.9036 27.0495 31.946 26.9256 31.9627C26.8018 31.9793 26.6759 31.9699 26.5559 31.935C26.4359 31.9001 26.3246 31.8405 26.229 31.76C26.1335 31.6795 26.0558 31.5799 26.0011 31.4676C25.2291 29.1902 31.1735 27.9858 33.2888 29.3986C34.4133 28.3287 35.811 27.5896 37.3283 27.2627C38.8456 26.9358 40.4237 27.0338 41.889 27.5458C44.6759 22.8365 56.0939 21.3697 57.3291 28.0553C62.3472 26.1407 65.0029 28.5648 63.7985 32.6101Z" fill="#404040"/>
<path d="M71.1019 37.01C71.1869 18.5282 71.4108 13.402 67.5044 13.2631C57.2599 12.8925 21.3924 10.9471 15.9575 13.873C13.8113 15.0233 13.9503 17.4937 14.3208 26.8273C14.4984 31.1351 14.2822 45.2396 14.2513 47.6714C14.2513 49.3081 16.1196 48.1578 16.135 47.2391C16.1891 44.9771 16.3666 30.7954 16.2045 26.7655C15.8262 17.5014 15.8031 15.5868 17.239 15.2549C28.1089 12.715 53.616 14.7762 66.8945 15.1545C68.5003 15.2008 68.6624 16.5827 68.755 18.1885C69.7973 36.1763 68.9944 79.2697 69.473 79.7329C69.598 79.8422 69.7465 79.9213 69.907 79.9639C70.0675 80.0066 70.2356 80.0117 70.3984 79.9788C70.5612 79.946 70.7142 79.8761 70.8456 79.7745C70.977 79.6729 71.0832 79.5425 71.156 79.3932C71.5574 78.7447 70.9398 74.738 71.1019 37.01Z" fill="#404040"/>
<path d="M146.496 128.925C142.636 128.439 129.566 129.38 122.564 129.334C123.151 127.08 122.07 120.572 122.564 118.526C126.177 113.076 121.383 112.311 113.006 112.296C113.338 109.268 112.878 106.206 111.671 103.41C114.805 98.4384 120.086 102.059 128.292 96.6937C134.144 92.8337 133.387 90.6875 126.154 88.2788C120.348 86.3488 113.601 93.1039 111.192 97.3267C111.74 95.6129 111.192 93.4667 110.984 91.5598C116.017 88.4718 123.869 85.8161 122.973 79.1614C122.965 78.9265 122.896 78.6977 122.773 78.4974C122.649 78.2971 122.477 78.1322 122.271 78.0188C117.932 76.3976 111.764 80.4893 110.096 86.7116C104.831 77.0307 116.195 78.5901 117.16 71.7656C117.213 71.3574 117.13 70.9432 116.923 70.5872C116.716 70.2312 116.398 69.9534 116.017 69.797C111.64 67.9596 104.769 70.0208 104.599 75.5947C99.4192 72.2751 89.5606 78.6828 96.7943 80.9293C100.485 81.3308 104.121 87.9237 107.348 84.1717C108.18 86.4728 108.75 88.8606 109.046 91.2896C106.483 89.074 101.419 88.0318 99.3419 85.6772C98.7012 85.1059 97.9755 84.4497 96.9719 84.9669C94.6559 87.5068 94.7253 90.7492 98.8787 94.8795C101.257 97.0025 105.742 97.1415 109.293 96.9099C109.043 98.4421 109.02 100.003 109.224 101.542C106.908 100.075 104.074 99.6428 101.658 98.6006C96.0918 96.1996 92.3476 100.507 91.2359 102.144C89.3367 104.939 94.6481 107.548 97.6667 108.011C102.152 108.783 107.942 106.382 111.161 109.432V112.196C100.654 111.794 98.8787 113.33 102.021 119.252C102.592 120.904 101.836 127.157 102.276 129.288L92.5946 129.118C94.1849 125.065 91.398 122.471 85.6929 121.205C82.2883 98.7627 78.104 99.1024 73.8966 96.4235C73.719 83.5078 74.2594 80.7595 71.5034 80.7903C70.052 80.7903 68.6392 82.0256 68.2223 82.3344C67.1765 81.0528 65.7392 80.1497 64.1307 79.7636C70.9861 77.8336 66.6938 63.6904 62.2547 54.4495C56.7966 44.7222 51.2999 41.5415 30.9267 42.7381C13.6337 43.7186 5.23427 65.9678 3.8601 74.4444C3.61306 78.6133 7.20289 81.13 10.3372 84.1717C8.19106 93.9917 9.43399 103.318 12.4757 109.007C12.661 118.21 14.4598 123.737 20.0259 127.304C8.16018 128.354 8.1293 131.727 11.2405 137.34C13.2091 140.907 30.1547 138.652 31.5983 139.386C33.814 144.906 41.6035 150.418 46.5135 148.997C47.3796 149.672 48.436 150.058 49.5333 150.099C50.6306 150.141 51.7132 149.836 52.6278 149.229C53.4646 149.938 54.5261 150.328 55.6232 150.328C56.7203 150.328 57.7817 149.938 58.6186 149.229C64.6093 150.649 65.3736 143.508 61.4596 140.142C79.7561 140.142 111.532 140.775 129.334 140.026C134.738 139.795 146.249 140.281 147.778 137.981C149.499 136.128 149.962 129.35 146.496 128.925ZM121.12 79.6015C121.715 84.3879 115.238 87.0436 111.285 89.0277C113.284 82.759 115.801 79.2926 121.12 79.586V79.6015ZM96.2462 78.7445C96.941 76.2278 102.252 75.587 104.684 77.9725C104.988 79.4965 105.586 80.9467 106.444 82.2417C104.314 85.7698 100.847 78.8526 96.2462 78.7445ZM107.155 79.6323C105.533 75.919 106.939 73.2787 108.228 72.1979C109.725 70.955 113.47 70.6539 115.407 71.1557C115.029 75.1393 108.614 76.2278 107.155 79.6555V79.6323ZM97.7439 86.7039C100.176 90.0235 108.042 90.564 109.224 94.9644C101.72 95.9217 96.2694 92.5171 97.7439 86.7271V86.7039ZM92.7413 103.225C93.8298 101.92 96.7094 98.4461 100.894 100.284C104.692 101.966 109.756 102.021 110.868 106.861C105.904 104.352 96.115 108.683 92.7413 103.248V103.225ZM119.406 91.2896C122.672 88.4409 127.898 89.4831 130.639 92.0616C123.182 100.917 117.654 95.3427 111.547 100.615C111.995 96.8327 116.087 94.285 119.406 91.3128V91.2896ZM102.523 115.029C103.457 113.4 121.329 113.778 121.776 115.214C121.875 115.48 121.89 115.77 121.822 116.046C121.753 116.321 121.603 116.569 121.39 116.758C119.908 118.758 120.781 121.552 120.719 124.926C120.719 126.879 121.491 129.056 119.947 129.296C114.828 129.342 109.764 129.296 104.375 129.218C103.233 127.173 104.182 119.63 103.665 118.41C102.986 116.766 101.805 116.303 102.523 115.029ZM91.1355 127.188C91.0274 128.616 90.5411 128.686 88.889 129.025C89.172 128.419 89.2923 127.749 89.2382 127.081C89.184 126.414 88.9573 125.773 88.5802 125.219C88.4274 125.057 88.2218 124.953 88 124.928C87.7783 124.903 87.5547 124.957 87.3693 125.082C87.1839 125.206 87.0486 125.392 86.9876 125.607C86.9266 125.821 86.9438 126.051 87.0362 126.254C87.9008 127.543 87.1906 129.064 85.4381 129.242C85.6152 128.545 85.6279 127.817 85.4751 127.115C85.3224 126.413 85.0084 125.756 84.558 125.196C84.387 125.027 84.1581 124.93 83.9179 124.925C83.6778 124.919 83.4446 125.006 83.2661 125.167C83.0877 125.327 82.9773 125.55 82.9577 125.79C82.9381 126.029 83.0107 126.267 83.1607 126.455C83.7783 127.111 83.9327 128.771 83.3305 129.334C79.8488 130.037 68.315 129.813 62.9109 128.786C63.1889 127.373 63.4359 125.93 63.6289 124.478C66.7324 124.517 90.1628 119.375 91.1355 127.219V127.188ZM73.5569 98.2609C81.5858 101.851 82.1957 113.794 83.7706 121.043C77.1001 121.133 70.4422 121.649 63.8373 122.587C64.316 117.824 64.0612 113.323 61.9768 110.729C66.2692 107.139 72.3063 100.801 73.5569 98.2609ZM69.9053 83.4229C71.4493 82.2572 72.1519 82.2186 72.2213 84.496C72.2213 88.495 72.2985 94.8563 71.9434 97.3345C71.3721 99.0715 61.336 110.852 59.0663 110.011C58.6417 109.856 58.4487 102.105 58.4333 99.581C58.3715 91.2356 63.1271 88.5104 69.9053 83.4229ZM66.7324 83.4229C64.0894 85.4478 61.5898 87.6533 59.2516 90.0236C58.6726 88.4255 56.3952 88.8578 57.1904 90.3324C57.4606 90.7338 57.8157 91.2433 58.055 91.6139C57.1981 93.0421 56.7349 94.864 56.5805 98.091C54.9901 97.6819 54.7508 91.2896 53.145 91.915C51.7709 92.4322 53.1914 95.5666 53.6005 97.1723C53.8476 98.1451 52.9134 98.7164 52.0179 98.7164C51.3231 95.0725 50.0802 92.2392 48.3354 90.3015C48.6365 86.2407 60.9886 77.2005 66.7324 83.4229ZM36.3307 109.988C25.4763 119.167 5.8982 112.45 19.0995 100.191C25.8083 93.9222 37.1568 86.9432 44.7765 90.3246C48.5362 92.0076 49.0766 95.0107 50.2809 99.5887C51.3694 103.711 48.5362 104.885 47.8414 102.939C47.4785 101.936 47.4399 97.5352 45.7955 98.2609C43.9273 99.0329 47.6947 103.835 44.375 106.9C44.0662 104.807 43.4718 100.847 41.6576 101.179C40.0518 101.48 43.5336 107.154 41.4414 108.575C38.1604 110.791 36.0914 105.487 34.4084 106.074C32.4244 106.776 35.2885 109.339 36.3307 109.988ZM47.7024 104.993C48.2635 105.254 48.8861 105.355 49.5011 105.284C50.1161 105.214 50.6994 104.974 51.1864 104.591C51.6734 104.209 52.0449 103.7 52.2598 103.119C52.4747 102.538 52.5246 101.91 52.4039 101.303C52.4039 101.056 52.3344 100.816 52.3036 100.569C52.8316 100.541 53.3451 100.385 53.8006 100.117C54.2561 99.848 54.6403 99.4736 54.9207 99.0252C55.3606 99.5419 55.9088 99.9557 56.5264 100.237C56.4184 106.599 56.5805 109.887 57.1826 111.485C55.2372 112.142 42.1671 112.582 39.8434 110.713C43.2325 110.652 46.9149 107.95 47.7024 104.993ZM29.9462 58.1242C31.9766 57.7691 46.0117 61.7681 49.3004 59.5293C50.3967 58.7573 50.4816 53.9631 51.4157 54.1252C52.2264 54.2951 52.3344 58.6723 52.9057 59.4212C54.9361 61.4747 60.9192 57.9775 60.4868 63.397C59.2362 63.1268 51.7631 61.6677 51.1069 64.6477C51.1768 64.887 51.3388 65.0889 51.5573 65.209C51.7759 65.3292 52.0331 65.3577 52.2727 65.2884C54.9803 64.5381 57.841 64.5381 60.5486 65.2884V66.2843C54.7431 65.6513 50.0647 65.5664 49.5861 71.6884C49.2155 79.3081 54.6968 77.9185 58.8502 78.2504C58.6881 78.8372 58.5182 79.3853 58.3406 79.8871C53.7626 81.0606 47.9417 85.2911 46.7065 88.7961C39.7198 84.9206 31.027 91.0194 22.4423 83.3766C20.8443 70.2524 27.4063 58.5874 29.9694 58.1474L29.9462 58.1242ZM57.1904 67.9982C56.4399 70.7206 56.0098 73.5214 55.9088 76.3436C53.5928 75.78 51.3694 77.0538 51.4698 71.9354C51.5624 68.6544 53.5696 67.782 57.1904 67.9982ZM11.9353 85.3684C14.1741 87.1362 25.1521 92.88 22.8978 86.0709C25.7218 87.8131 28.8761 88.9513 32.1619 89.4137C24.272 93.0267 16.6059 97.8208 12.9621 105.579C11.0629 100.43 10.646 93.4127 11.9353 85.3684ZM14.4829 111.941C21.0604 118.889 31.8917 116.573 37.9442 111.169C38.6004 114.674 47.0848 113.485 50.5743 113.616C54.5269 113.74 57.9006 114.195 60.5023 111.879C64.702 117.106 59.7303 134.182 58.9583 138.343C51.7091 139.447 40.0904 137.749 33.7985 133.418C34.1358 132.068 34.5851 130.748 35.1418 129.473C36.0991 129.218 38.2299 129.651 38.1681 128.13C38.1484 128.009 38.105 127.893 38.0404 127.788C37.9758 127.684 37.8913 127.593 37.7916 127.521C37.6919 127.45 37.5791 127.398 37.4596 127.37C37.3401 127.342 37.2162 127.338 37.095 127.358C23.1989 129.388 15.4402 125.968 14.4829 111.941ZM31.3899 137.556C28.5257 137.494 17.8025 138.112 14.2668 137.178C13.5323 136.913 12.9074 136.41 12.4911 135.75C7.72014 126.709 26.2483 130.091 33.0034 129.697C31.9862 132.184 31.4391 134.838 31.3899 137.525V137.556ZM61.9305 144.203C62.5635 146.118 61.7143 147.646 59.7766 147.515C60.2707 146.589 59.9696 142.52 57.862 143.23C57.6527 143.365 57.5052 143.577 57.4517 143.82C57.3982 144.063 57.443 144.317 57.5764 144.527C59.3443 147.407 56.3875 149.491 53.9556 147.878C54.8898 146.774 54.5655 142.528 52.319 143.246C52.1167 143.389 51.9785 143.606 51.9338 143.849C51.889 144.093 51.9414 144.345 52.0797 144.55C54.0406 147.453 50.1805 148.997 48.0344 147.731C48.5046 147.172 48.7929 146.483 48.8605 145.756C48.9281 145.029 48.7718 144.298 48.4126 143.663C47.5866 142.08 45.9422 142.999 46.3745 143.863C46.6012 144.18 46.7571 144.542 46.8317 144.924C46.9062 145.306 46.8978 145.7 46.8069 146.079C44.4214 150.649 31.3667 141.709 33.3817 135.425C40.6926 139.864 50.9911 141.239 59.2207 140.204C59.8306 141.208 61.5908 143.169 61.9305 144.172V144.203ZM145.909 136.923C142.991 139.332 86.2873 137.433 60.8342 138.228C61.2666 136.02 61.9768 133.186 62.5018 130.654C70.0211 132.129 81.6553 131.619 89.3599 130.886C90.7109 130.886 110.467 131.341 119.962 131.226C129.296 131.226 145.153 130.114 146.388 130.786C148.017 131.658 147.206 135.873 145.909 136.923Z" fill="#615FFF"/>
<path d="M41.1174 73.4334C47.2934 62.7025 27.3988 60.6258 26.4492 68.8014C23.7935 76.5523 38.6006 78.6831 41.1174 73.4334ZM34.2311 65.7983C33.4001 68.4653 32.8414 71.2096 32.5635 73.9893C25.4765 73.997 27.4992 64.5631 34.2311 65.7983Z" fill="#615FFF"/>
<path d="M43.9119 72.2905C45.9731 72.4063 47.162 73.9349 45.95 75.7028C46.0889 80.9679 52.1878 71.1788 44.0199 70.4146C43.7816 70.4175 43.5532 70.5108 43.3808 70.6755C43.2085 70.8402 43.1051 71.0642 43.0913 71.3022C43.0776 71.5402 43.1547 71.7745 43.307 71.9579C43.4592 72.1414 43.6754 72.2602 43.9119 72.2905Z" fill="#615FFF"/>
<path d="M31.6524 62.8104C34.0997 61.5907 42.1363 64.2 42.4605 62.7255C43.5259 59.7533 25.7311 60.1316 31.6524 62.8104Z" fill="#615FFF"/>
<path d="M44.6761 80.5048C40.1444 81.6551 37.5428 77.5249 35.8135 78.6211C34.3775 80.9912 44.8768 84.4961 45.7338 81.3154C45.7176 81.1927 45.6774 81.0744 45.6155 80.9673C45.5536 80.8601 45.4711 80.7662 45.3729 80.6909C45.2747 80.6157 45.1626 80.5605 45.043 80.5285C44.9235 80.4966 44.7988 80.4885 44.6761 80.5048Z" fill="#615FFF"/>
</svg>
