<svg width="155" height="155" viewBox="0 0 155 155" fill="none" xmlns="http://www.w3.org/2000/svg">
<path d="M85.6933 6.58502C89.2831 7.04823 95.1195 7.39563 95.5287 5.6895C95.509 5.56754 95.4654 5.4507 95.4003 5.34572C95.3352 5.24075 95.2499 5.14973 95.1494 5.07793C95.0489 5.00613 94.9351 4.95498 94.8147 4.92744C94.6943 4.8999 94.5696 4.89652 94.4479 4.91749C88.3644 5.14909 84.4118 3.48928 74.5069 4.36936C64.3319 5.27261 61.0354 5.01013 61.4291 6.68539C61.9155 8.75437 76.7766 5.44245 85.6933 6.58502Z" fill="#615FFF"/>
<path d="M20.5201 7.84305C21.4929 5.88987 10.0286 6.29903 8.42278 8.22905C6.67032 10.4293 4.63222 36.9786 7.34197 36.9863C9.56535 36.9863 6.89421 29.5056 8.2761 23.8622C9.10215 20.3032 8.63894 12.2821 10.1752 9.71131C11.0785 7.75813 19.7172 9.45654 20.5201 7.84305Z" fill="#615FFF"/>
<path d="M140.96 14.0886C129.095 11.7725 96.0141 13.4709 86.9584 13.0541C75.4555 13.6099 77.8874 13.2625 77.594 28.1082C77.1848 49.0991 77.9182 94.0067 77.9877 96.2147C77.9877 97.5503 79.8097 98.6002 79.8946 97.6197C80.1185 95.1416 79.2847 89.1277 79.6012 82.7354C80.3732 67.8125 78.4741 32.47 79.5549 16.7443C79.5754 16.3414 79.7447 15.9605 80.0299 15.6752C80.3151 15.39 80.6961 15.2208 81.0989 15.2002C95.0645 14.49 133.866 14.1735 139.918 15.6403C142.867 16.3583 142.172 23.5765 142.234 30.4165C142.234 38.4068 142.072 40.8926 141.817 52.2334C141.3 82.7586 141.763 120.942 141.4 124.3C141.285 125.389 143.137 126.03 143.238 124.964C143.4 123.297 143.709 64.076 144.11 30.5169C144.226 19.2533 144.156 14.7062 140.96 14.0886Z" fill="#615FFF"/>
<path d="M134.33 21.8938C130.3 18.4892 119.785 18.3657 101.573 19.184C91.792 19.6163 87.2217 18.8212 84.5891 21.8938C81.9566 24.9664 82.7286 40.4683 83.0451 59.3747C83.3539 79.1844 82.8135 85.8082 83.1764 98.392C83.5392 110.976 90.3329 117.6 94.8491 121.683C103.403 129.403 132.94 126.099 135.881 122.571C140.042 117.569 138.259 90.5715 137.811 67.4113C138.715 45.108 138.359 25.2983 134.33 21.8938ZM94.2624 22.7816C94.5094 21.1758 97.2732 21.9324 99.4271 22.0713C101.581 22.2103 104.87 21.8938 104.87 23.1521C104.87 25.2597 96.9567 23.4609 95.1579 23.6771C95.0367 23.6904 94.9141 23.6764 94.799 23.6362C94.6839 23.596 94.5793 23.5306 94.4927 23.4448C94.4062 23.3589 94.3399 23.2548 94.2987 23.1401C94.2575 23.0254 94.2424 22.9029 94.2547 22.7816H94.2624ZM89.7462 36.0215C91.599 35.1569 95.0807 34.5161 96.2465 34.2459C103.195 32.6015 106.19 30.1234 106.784 31.9299C107.34 33.5897 98.2923 36.1373 90.881 37.7817C89.2521 38.1136 88.4878 36.6005 89.7384 36.0215H89.7462ZM103.187 63.6362C98.0761 63.6362 97.8291 63.7134 95.6752 63.4432C92.2629 63.0109 87.6 63.4432 87.7698 62.0536C87.9783 60.3938 96.4163 62.1385 103.928 61.8992C105.765 61.8451 105.441 63.6362 103.179 63.6362H103.187ZM106.977 58.0083C105.055 58.6336 105.866 54.7272 100.601 56.4643C100.467 56.5115 100.325 56.5283 100.184 56.5134C100.043 56.4986 99.9078 56.4525 99.7872 56.3785C99.6666 56.3045 99.564 56.2045 99.487 56.0857C99.41 55.967 99.3606 55.8326 99.3422 55.6922C98.0298 52.4961 92.2552 55.0592 90.0318 56.9583C88.8892 57.9388 88.4878 56.3871 86.2876 56.9583C84.9057 57.3289 84.8516 55.6614 85.917 55.2908C86.8917 54.9198 87.9686 54.9198 88.9433 55.2908C91.7997 52.2028 98.547 50.5738 100.909 54.3953C105.279 52.8358 109.077 57.3289 106.97 58.0083H106.977ZM99.8749 47.9722C99.3422 46.6906 99.8749 47.8564 107.989 42.2284C109.139 41.4564 110.644 39.1404 111.694 40.3447C112.891 41.7961 100.755 50.1801 99.8672 48.0108L99.8749 47.9722ZM121.005 50.9521C116.581 58.1858 113.979 65.0567 112.227 64.3928C112.121 64.3377 112.027 64.2611 111.953 64.1677C111.878 64.0744 111.823 63.9665 111.793 63.8509C111.762 63.7352 111.756 63.6145 111.775 63.4964C111.794 63.3784 111.838 63.2656 111.903 63.1653C114.651 58.4483 115.531 56.5801 119.661 50.211C120.225 49.3618 121.854 49.5857 120.997 50.9907L121.005 50.9521ZM132.786 59.0968C132.786 59.5214 132.415 63.7983 131.674 65.5045C131.234 66.5312 129.574 66.4077 129.96 64.6398C130.732 61.0114 130.987 53.6927 132.724 54.071C134.067 54.3721 132.971 56.912 132.786 59.0968ZM135.403 50.1801C124.927 49.0993 116.929 44.5367 112.806 34.6628C109.718 27.2901 109.625 21.7008 111.007 21.9169C113.076 22.2257 111.007 25.252 114.867 33.8985C118.82 42.8306 126.262 47.3005 135.187 48.3505C136.329 48.4663 136.553 50.2728 135.403 50.1801Z" fill="#615FFF"/>
<path d="M149.098 6.33779C146.365 4.69341 141.848 5.9209 135.34 5.12573C134.144 4.95589 133.905 6.2683 135.124 6.40727C140.899 7.40316 146.828 6.76239 147.97 8.05936C149.275 9.52618 147.577 26.9504 148.434 48.0879C148.519 50.1724 150.124 50.2341 150.094 48.8599C149.445 13.4325 152.039 8.10568 149.098 6.33779Z" fill="#615FFF"/>
<path d="M65.2035 19.8875C63.7753 18.1968 54.2487 18.8144 48.6362 18.6368C43.0237 18.4593 27.2207 18.1427 22.8357 18.9919C18.4507 19.8411 19.5315 20.6054 19.2613 25.7007C18.9911 30.7959 19.2613 51.0071 19.2613 51.0071C21.4681 48.0967 24.533 45.9526 28.0236 44.8773C33.6515 43.2716 45.9959 44.1671 49.1689 45.5027C52.3418 46.8382 58.047 49.795 62.3857 62.0931C65.2961 72.4148 66.2457 73.3181 66.7243 72.9475C66.7243 70.3999 66.7707 36.6091 66.5005 32.587C66.2302 28.5648 66.6317 21.6168 65.2035 19.8875ZM58.3481 36.6863C54.6424 37.2267 47.1694 36.5937 45.9959 36.4239C40.644 35.6444 35.2151 35.5433 29.8378 36.1228C29.3206 36.1768 28.7725 35.1114 29.2279 34.8644C35.0334 31.676 49.4545 36.5242 59.4134 34.5788C61.5596 34.1542 60.363 36.3853 58.3481 36.6863ZM63.7984 32.6101C63.7026 32.8402 63.5202 33.0233 63.2906 33.1201C63.061 33.2169 62.8025 33.2195 62.5709 33.1274C60.888 32.1701 64.7789 27.0054 56.8195 30.3096C56.6662 30.3808 56.4966 30.4099 56.3284 30.3937C56.1601 30.3775 55.9992 30.3167 55.8622 30.2176C55.7253 30.1184 55.6173 29.9845 55.5495 29.8297C55.4816 29.6749 55.4563 29.5047 55.4762 29.3368C55.4144 24.0486 48.8215 24.7048 45.0386 27.0903C43.8961 27.816 43.4252 29.2133 42.437 29.4063C41.4488 29.5993 40.0283 28.6961 37.5811 29.2288C36.5127 29.363 35.5245 29.8653 34.7864 30.6492C33.4122 31.9925 31.2583 29.3523 27.2748 31.8381C27.1683 31.9036 27.0493 31.946 26.9255 31.9627C26.8017 31.9793 26.6757 31.9699 26.5558 31.935C26.4358 31.9001 26.3245 31.8405 26.2289 31.76C26.1333 31.6795 26.0557 31.5799 26.0009 31.4676C25.2289 29.1902 31.1734 27.9858 33.2887 29.3986C34.4131 28.3287 35.8109 27.5896 37.3282 27.2627C38.8455 26.9358 40.4236 27.0338 41.8889 27.5458C44.6758 22.8365 56.0938 21.3697 57.329 28.0553C62.3471 26.1407 65.0028 28.5648 63.7984 32.6101Z" fill="#615FFF"/>
<path d="M71.1019 37.01C71.1869 18.5282 71.4108 13.402 67.5044 13.2631C57.2599 12.8925 21.3924 10.9471 15.9575 13.873C13.8113 15.0233 13.9503 17.4937 14.3208 26.8273C14.4984 31.1351 14.2822 45.2396 14.2513 47.6714C14.2513 49.3081 16.1196 48.1578 16.135 47.2391C16.1891 44.9771 16.3666 30.7954 16.2045 26.7655C15.8262 17.5014 15.8031 15.5868 17.239 15.2549C28.1089 12.715 53.616 14.7762 66.8945 15.1545C68.5003 15.2008 68.6624 16.5827 68.755 18.1885C69.7973 36.1763 68.9944 79.2697 69.473 79.7329C69.598 79.8422 69.7465 79.9213 69.907 79.9639C70.0675 80.0066 70.2356 80.0117 70.3984 79.9788C70.5612 79.946 70.7142 79.8761 70.8456 79.7745C70.977 79.6729 71.0832 79.5425 71.156 79.3932C71.5574 78.7447 70.9398 74.738 71.1019 37.01Z" fill="#615FFF"/>
<path d="M146.496 128.925C142.636 128.439 129.566 129.38 122.564 129.334C123.151 127.08 122.07 120.572 122.564 118.526C126.177 113.076 121.383 112.311 113.006 112.296C113.338 109.268 112.878 106.206 111.671 103.41C114.805 98.4384 120.086 102.059 128.292 96.6937C134.144 92.8337 133.387 90.6875 126.154 88.2788C120.348 86.3488 113.601 93.1039 111.192 97.3267C111.74 95.6129 111.192 93.4667 110.984 91.5598C116.017 88.4718 123.868 85.8161 122.973 79.1614C122.965 78.9265 122.896 78.6977 122.773 78.4974C122.649 78.2971 122.476 78.1322 122.27 78.0188C117.932 76.3976 111.763 80.4893 110.096 86.7116C104.831 77.0307 116.195 78.5901 117.16 71.7656C117.213 71.3574 117.129 70.9432 116.923 70.5872C116.716 70.2312 116.398 69.9534 116.017 69.797C111.64 67.9596 104.769 70.0208 104.599 75.5947C99.419 72.2751 89.5605 78.6828 96.7942 80.9293C100.484 81.3308 104.121 87.9237 107.348 84.1717C108.18 86.4728 108.75 88.8606 109.046 91.2896C106.483 89.074 101.419 88.0318 99.3418 85.6772C98.7011 85.1059 97.9754 84.4497 96.9718 84.9669C94.6557 87.5068 94.7252 90.7492 98.8786 94.8795C101.256 97.0025 105.742 97.1415 109.293 96.9099C109.043 98.4421 109.02 100.003 109.224 101.542C106.907 100.075 104.074 99.6428 101.658 98.6006C96.0917 96.1996 92.3474 100.507 91.2358 102.144C89.3366 104.939 94.648 107.548 97.6666 108.011C102.152 108.783 107.942 106.382 111.161 109.432V112.196C100.654 111.794 98.8786 113.33 102.021 119.252C102.592 120.904 101.835 127.157 102.275 129.288L92.5945 129.118C94.1848 125.065 91.3979 122.471 85.6927 121.205C82.2882 98.7627 78.1039 99.1024 73.8965 96.4235C73.7189 83.5078 74.2593 80.7595 71.5033 80.7903C70.0519 80.7903 68.6391 82.0256 68.2222 82.3344C67.1764 81.0528 65.739 80.1497 64.1306 79.7636C70.986 77.8336 66.6936 63.6904 62.2546 54.4495C56.7965 44.7222 51.2998 41.5415 30.9266 42.7381C13.6336 43.7186 5.23415 65.9678 3.85998 74.4444C3.61293 78.6133 7.20277 81.13 10.3371 84.1717C8.19094 93.9917 9.43387 103.318 12.4756 109.007C12.6609 118.21 14.4596 123.737 20.0258 127.304C8.16006 128.354 8.12918 131.727 11.2404 137.34C13.209 140.907 30.1545 138.652 31.5982 139.386C33.8139 144.906 41.6034 150.418 46.5134 148.997C47.3794 149.672 48.4359 150.058 49.5332 150.099C50.6305 150.141 51.713 149.836 52.6277 149.229C53.4645 149.938 54.526 150.328 55.6231 150.328C56.7201 150.328 57.7816 149.938 58.6184 149.229C64.6092 150.649 65.3735 143.508 61.4594 140.142C79.756 140.142 111.532 140.775 129.334 140.026C134.738 139.795 146.249 140.281 147.778 137.981C149.499 136.128 149.962 129.35 146.496 128.925ZM121.12 79.6015C121.715 84.3879 115.237 87.0436 111.285 89.0277C113.284 82.759 115.801 79.2926 121.12 79.586V79.6015ZM96.2461 78.7445C96.9409 76.2278 102.252 75.587 104.684 77.9725C104.988 79.4965 105.585 80.9467 106.444 82.2417C104.314 85.7698 100.847 78.8526 96.2461 78.7445ZM107.155 79.6323C105.533 75.919 106.938 73.2787 108.228 72.1979C109.725 70.955 113.47 70.6539 115.407 71.1557C115.029 75.1393 108.614 76.2278 107.155 79.6555V79.6323ZM97.7438 86.7039C100.176 90.0235 108.042 90.564 109.224 94.9644C101.72 95.9217 96.2692 92.5171 97.7438 86.7271V86.7039ZM92.7412 103.225C93.8297 101.92 96.7093 98.4461 100.894 100.284C104.692 101.966 109.756 102.021 110.868 106.861C105.904 104.352 96.1148 108.683 92.7412 103.248V103.225ZM119.406 91.2896C122.672 88.4409 127.898 89.4831 130.639 92.0617C123.181 100.917 117.654 95.3427 111.547 100.615C111.995 96.8327 116.087 94.285 119.406 91.3128V91.2896ZM102.523 115.029C103.457 113.4 121.329 113.778 121.776 115.214C121.875 115.481 121.89 115.77 121.821 116.046C121.753 116.321 121.602 116.569 121.39 116.758C119.908 118.758 120.78 121.552 120.719 124.926C120.719 126.879 121.491 129.056 119.947 129.296C114.828 129.342 109.764 129.296 104.375 129.218C103.233 127.173 104.182 119.63 103.665 118.41C102.986 116.766 101.805 116.303 102.523 115.029ZM91.1354 127.188C91.0273 128.616 90.5409 128.686 88.8889 129.025C89.1718 128.419 89.2922 127.749 89.238 127.082C89.1839 126.414 88.9571 125.773 88.58 125.219C88.4273 125.057 88.2217 124.953 87.9999 124.928C87.7781 124.903 87.5546 124.957 87.3692 125.082C87.1838 125.206 87.0485 125.392 86.9875 125.607C86.9265 125.821 86.9437 126.051 87.036 126.254C87.9007 127.543 87.1904 129.064 85.438 129.242C85.6151 128.545 85.6278 127.817 85.475 127.115C85.3223 126.413 85.0083 125.756 84.5579 125.196C84.3869 125.027 84.158 124.93 83.9178 124.925C83.6777 124.919 83.4445 125.006 83.266 125.167C83.0875 125.327 82.9772 125.55 82.9576 125.79C82.938 126.029 83.0106 126.267 83.1606 126.455C83.7782 127.111 83.9326 128.771 83.3304 129.334C79.8486 130.037 68.3149 129.813 62.9108 128.786C63.1887 127.373 63.4358 125.93 63.6288 124.478C66.7322 124.517 90.1627 119.375 91.1354 127.219V127.188ZM73.5568 98.2609C81.5857 101.851 82.1955 113.794 83.7704 121.043C77.1 121.133 70.442 121.649 63.8372 122.587C64.3159 117.824 64.0611 113.323 61.9767 110.729C66.269 107.139 72.3061 100.801 73.5568 98.2609ZM69.9052 83.4229C71.4492 82.2572 72.1517 82.2186 72.2212 84.496C72.2212 88.495 72.2984 94.8563 71.9433 97.3345C71.372 99.0715 61.3359 110.852 59.0662 110.011C58.6416 109.856 58.4486 102.105 58.4332 99.581C58.3714 91.2356 63.127 88.5104 69.9052 83.4229ZM66.7322 83.4229C64.0893 85.4478 61.5897 87.6533 59.2515 90.0236C58.6725 88.4255 56.3951 88.8578 57.1902 90.3324C57.4604 90.7338 57.8156 91.2433 58.0549 91.6139C57.198 93.0421 56.7348 94.864 56.5803 98.091C54.99 97.6819 54.7507 91.2896 53.1449 91.915C51.7707 92.4322 53.1912 95.5666 53.6004 97.1723C53.8474 98.1451 52.9133 98.7164 52.0178 98.7164C51.323 95.0725 50.0801 92.2392 48.3353 90.3015C48.6364 86.2407 60.9885 77.2005 66.7322 83.4229ZM36.3306 109.988C25.4762 119.167 5.89808 112.45 19.0994 100.191C25.8081 93.9222 37.1566 86.9432 44.7764 90.3246C48.536 92.0076 49.0764 95.0107 50.2808 99.5887C51.3693 103.711 48.536 104.885 47.8412 102.939C47.4784 101.936 47.4398 97.5352 45.7954 98.2609C43.9272 99.0329 47.6945 103.835 44.3749 106.9C44.0661 104.807 43.4717 100.847 41.6575 101.179C40.0517 101.48 43.5334 107.154 41.4413 108.575C38.1603 110.791 36.0913 105.487 34.4083 106.074C32.4242 106.776 35.2884 109.339 36.3306 109.988ZM47.7023 104.993C48.2634 105.254 48.886 105.355 49.501 105.284C50.116 105.214 50.6993 104.974 51.1863 104.591C51.6732 104.209 52.0448 103.7 52.2597 103.119C52.4746 102.538 52.5245 101.91 52.4038 101.303C52.4038 101.056 52.3343 100.816 52.3034 100.569C52.8315 100.541 53.345 100.385 53.8005 100.117C54.256 99.848 54.6402 99.4736 54.9205 99.0252C55.3605 99.5419 55.9087 99.9557 56.5263 100.237C56.4182 106.599 56.5803 109.887 57.1825 111.485C55.2371 112.142 42.167 112.582 39.8432 110.713C43.2323 110.652 46.9148 107.95 47.7023 104.993ZM29.9461 58.1242C31.9765 57.7691 46.0116 61.7681 49.3003 59.5293C50.3966 58.7573 50.4815 53.9631 51.4156 54.1252C52.2262 54.2951 52.3343 58.6723 52.9056 59.4212C54.936 61.4747 60.919 57.9775 60.4867 63.397C59.2361 63.1268 51.763 61.6677 51.1068 64.6477C51.1767 64.887 51.3387 65.0889 51.5572 65.209C51.7758 65.3292 52.033 65.3577 52.2726 65.2884C54.9802 64.5381 57.8409 64.5381 60.5485 65.2884V66.2843C54.743 65.6513 50.0646 65.5664 49.586 71.6884C49.2154 79.3081 54.6967 77.9185 58.8501 78.2504C58.6879 78.8372 58.5181 79.3853 58.3405 79.8871C53.7625 81.0606 47.9416 85.2911 46.7064 88.7961C39.7197 84.9206 31.0269 91.0194 22.4422 83.3766C20.8441 70.2524 27.4062 58.5874 29.9693 58.1474L29.9461 58.1242ZM57.1902 67.9982C56.4398 70.7206 56.0097 73.5214 55.9087 76.3436C53.5927 75.78 51.3693 77.0538 51.4697 71.9354C51.5623 68.6544 53.5695 67.782 57.1902 67.9982ZM11.9352 85.3683C14.174 87.1362 25.1519 92.88 22.8977 86.0709C25.7216 87.8131 28.876 88.9513 32.1618 89.4137C24.2718 93.0267 16.6058 97.8208 12.9619 105.579C11.0628 100.43 10.6459 93.4127 11.9352 85.3683ZM14.4828 111.941C21.0603 118.889 31.8916 116.573 37.9441 111.169C38.6003 114.674 47.0847 113.485 50.5741 113.616C54.5268 113.74 57.9005 114.195 60.5021 111.879C64.7019 117.106 59.7301 134.182 58.9581 138.343C51.709 139.447 40.0903 137.749 33.7984 133.418C34.1357 132.068 34.585 130.748 35.1417 129.473C36.099 129.218 38.2297 129.651 38.168 128.13C38.1483 128.009 38.1049 127.893 38.0403 127.788C37.9757 127.684 37.8911 127.593 37.7915 127.521C37.6918 127.45 37.579 127.398 37.4595 127.37C37.3399 127.342 37.216 127.338 37.0949 127.358C23.1988 129.388 15.4401 125.968 14.4828 111.941ZM31.3898 137.556C28.5256 137.494 17.8024 138.112 14.2666 137.178C13.5322 136.913 12.9073 136.41 12.491 135.75C7.72001 126.709 26.2482 130.091 33.0033 129.697C31.9861 132.184 31.439 134.838 31.3898 137.525V137.556ZM61.9304 144.203C62.5634 146.118 61.7142 147.646 59.7765 147.515C60.2705 146.589 59.9695 142.52 57.8619 143.23C57.6526 143.365 57.5051 143.577 57.4516 143.82C57.398 144.063 57.4429 144.317 57.5762 144.527C59.3441 147.407 56.3873 149.491 53.9555 147.878C54.8897 146.774 54.5654 142.528 52.3189 143.246C52.1166 143.389 51.9784 143.606 51.9336 143.849C51.8889 144.093 51.9413 144.345 52.0795 144.55C54.0404 147.453 50.1804 148.997 48.0342 147.731C48.5045 147.172 48.7927 146.483 48.8604 145.756C48.928 145.029 48.7717 144.298 48.4125 143.663C47.5865 142.08 45.9421 142.999 46.3744 143.863C46.601 144.18 46.7569 144.542 46.8315 144.924C46.9061 145.306 46.8977 145.7 46.8067 146.079C44.4212 150.649 31.3666 141.709 33.3815 135.425C40.6924 139.864 50.991 141.239 59.2206 140.204C59.8305 141.208 61.5907 143.169 61.9304 144.172V144.203ZM145.909 136.923C142.991 139.332 86.2872 137.433 60.8341 138.228C61.2664 136.02 61.9767 133.186 62.5016 130.654C70.021 132.129 81.6551 131.619 89.3598 130.886C90.7108 130.886 110.466 131.341 119.962 131.226C129.296 131.226 145.153 130.114 146.388 130.786C148.017 131.658 147.206 135.873 145.909 136.923Z" fill="#001434"/>
<path d="M41.1173 73.4334C47.2934 62.7025 27.3987 60.6258 26.4492 68.8014C23.7935 76.5523 38.6006 78.6831 41.1173 73.4334ZM34.231 65.7983C33.4 68.4653 32.8413 71.2096 32.5635 73.9893C25.4764 73.997 27.4991 64.5631 34.231 65.7983Z" fill="#001434"/>
<path d="M43.9118 72.2905C45.9731 72.4063 47.1619 73.9349 45.9499 75.7028C46.0889 80.9679 52.1877 71.1788 44.0199 70.4146C43.7815 70.4175 43.5531 70.5108 43.3808 70.6755C43.2084 70.8402 43.105 71.0642 43.0913 71.3022C43.0776 71.5402 43.1546 71.7745 43.3069 71.9579C43.4592 72.1414 43.6753 72.2602 43.9118 72.2905Z" fill="#001434"/>
<path d="M31.6523 62.8104C34.0996 61.5907 42.1362 64.2 42.4604 62.7255C43.5258 59.7533 25.731 60.1316 31.6523 62.8104Z" fill="#001434"/>
<path d="M44.6761 80.5048C40.1444 81.6551 37.5427 77.5249 35.8134 78.6211C34.3775 80.9912 44.8768 84.4961 45.7337 81.3154C45.7175 81.1927 45.6773 81.0744 45.6154 80.9673C45.5535 80.8601 45.4711 80.7662 45.3729 80.6909C45.2746 80.6157 45.1625 80.5605 45.043 80.5285C44.9234 80.4966 44.7987 80.4885 44.6761 80.5048Z" fill="#001434"/>
</svg>
